<svg width="20" height="20" viewBox="0 0 20 20" fill="none" xmlns="http://www.w3.org/2000/svg">
<path d="M14.9999 18.3337H4.99992C4.07944 18.3337 3.33325 17.5875 3.33325 16.667V3.33365C3.33325 2.41318 4.07944 1.66699 4.99992 1.66699H10.8333C10.8407 1.66602 10.8483 1.66602 10.8558 1.66699H10.8608C10.8686 1.66945 10.8767 1.67113 10.8849 1.67199C10.9584 1.6767 11.031 1.69098 11.1008 1.71449H11.1133H11.1258H11.1358C11.1511 1.72526 11.1656 1.73724 11.1791 1.75032C11.2699 1.79067 11.3526 1.84714 11.4233 1.91699L16.4233 6.91699C16.4931 6.98764 16.5496 7.07037 16.5899 7.16115C16.5974 7.17949 16.6033 7.19699 16.6091 7.21615L16.6174 7.23949C16.6407 7.30898 16.6544 7.3813 16.6583 7.45449C16.659 7.46279 16.6609 7.47093 16.6641 7.47865V7.48365C16.6655 7.48911 16.6663 7.4947 16.6666 7.50032V16.667C16.6666 17.109 16.491 17.5329 16.1784 17.8455C15.8659 18.1581 15.4419 18.3337 14.9999 18.3337ZM12.0199 11.667V15.8337H12.8033V14.1337H14.0199V13.4353H12.8033V12.3678H14.1666V11.667H12.0199ZM8.93658 11.667V15.8337H9.94159C10.3632 15.8544 10.7714 15.6827 11.0516 15.367C11.339 15.0002 11.483 14.5414 11.4566 14.0762V13.4012C11.4759 12.9408 11.3279 12.4891 11.0399 12.1295C10.7688 11.8209 10.3729 11.6509 9.96242 11.667H8.93658ZM5.83325 11.667V15.8337H6.61659V14.3678H7.13825C7.4866 14.3871 7.82686 14.2581 8.07492 14.0128C8.31165 13.7482 8.43443 13.4008 8.41658 13.0462C8.43205 12.683 8.30937 12.3275 8.07325 12.0512C7.83969 11.7921 7.50249 11.6512 7.15409 11.667H5.83325ZM10.8333 3.33365V7.50032H14.9999L10.8333 3.33365ZM9.95492 15.1353H9.71992V12.3678H10.0049C10.2073 12.3559 10.4019 12.4475 10.5216 12.6112C10.6438 12.8639 10.6961 13.1447 10.6733 13.4245V14.1487C10.6916 14.4151 10.6338 14.6813 10.5066 14.9162C10.37 15.0756 10.1637 15.1576 9.95492 15.1353ZM7.15409 13.667H6.61575V12.3678H7.16159C7.29785 12.3693 7.42378 12.4408 7.49492 12.557C7.5851 12.7058 7.62864 12.8782 7.61992 13.052C7.63037 13.2141 7.58733 13.3751 7.49742 13.5103C7.41454 13.6143 7.28698 13.6726 7.15409 13.667Z" fill="white"/>
</svg>
