<svg width="20" height="20" viewBox="0 0 20 20" fill="none" xmlns="http://www.w3.org/2000/svg">
<path d="M12.5001 18.9584H7.50008C2.97508 18.9584 1.04175 17.0251 1.04175 12.5001V7.50008C1.04175 2.97508 2.97508 1.04175 7.50008 1.04175H12.5001C17.0251 1.04175 18.9584 2.97508 18.9584 7.50008V12.5001C18.9584 17.0251 17.0251 18.9584 12.5001 18.9584ZM7.50008 2.29175C3.65841 2.29175 2.29175 3.65841 2.29175 7.50008V12.5001C2.29175 16.3417 3.65841 17.7084 7.50008 17.7084H12.5001C16.3417 17.7084 17.7084 16.3417 17.7084 12.5001V7.50008C17.7084 3.65841 16.3417 2.29175 12.5001 2.29175H7.50008Z" fill="#989898"/>
<path d="M7.50004 8.95833C6.23337 8.95833 5.20837 7.93333 5.20837 6.66667C5.20837 5.4 6.23337 4.375 7.50004 4.375C8.76671 4.375 9.79171 5.4 9.79171 6.66667C9.79171 7.93333 8.76671 8.95833 7.50004 8.95833ZM7.50004 5.625C7.22377 5.625 6.95882 5.73475 6.76347 5.9301C6.56812 6.12545 6.45837 6.3904 6.45837 6.66667C6.45837 6.94293 6.56812 7.20789 6.76347 7.40324C6.95882 7.59859 7.22377 7.70833 7.50004 7.70833C7.77631 7.70833 8.04126 7.59859 8.23661 7.40324C8.43196 7.20789 8.54171 6.94293 8.54171 6.66667C8.54171 6.3904 8.43196 6.12545 8.23661 5.9301C8.04126 5.73475 7.77631 5.625 7.50004 5.625ZM2.22421 16.4158C2.09027 16.416 1.95985 16.373 1.85236 16.2931C1.74487 16.2132 1.66606 16.1007 1.62766 15.9724C1.58926 15.8441 1.59333 15.7068 1.63925 15.581C1.68518 15.4552 1.77051 15.3476 1.88254 15.2742L5.99087 12.5158C6.89087 11.9075 8.13254 11.9825 8.94921 12.6742L9.22421 12.9158C9.64087 13.2742 10.3492 13.2742 10.7575 12.9158L14.2242 9.94083C15.1075 9.1825 16.4992 9.1825 17.3909 9.94083L18.7492 11.1075C19.0075 11.3325 19.0409 11.7242 18.8159 11.9908C18.5909 12.2492 18.1992 12.2825 17.9325 12.0575L16.5742 10.8908C16.1575 10.5325 15.4492 10.5325 15.0325 10.8908L11.5659 13.8658C10.6825 14.6242 9.29087 14.6242 8.39921 13.8658L8.12421 13.6242C7.74087 13.2992 7.10754 13.2658 6.68254 13.5575L2.57421 16.3158C2.46587 16.3825 2.34087 16.4158 2.22421 16.4158Z" fill="#989898"/>
</svg>
