<svg width="25" height="26" viewBox="0 0 25 26" fill="none" xmlns="http://www.w3.org/2000/svg">
<circle cx="12" cy="13" r="9" fill="white"/>
<g clip-path="url(#clip0_221_2945)">
<path fill-rule="evenodd" clip-rule="evenodd" d="M9.92572 6.56613C9.18111 6.56613 8.46702 6.85471 7.94051 7.36838L5.3999 9.847V10.9816C5.3999 11.7831 5.75282 12.5043 6.31533 13.0052C5.75282 13.506 5.3999 14.2272 5.3999 15.0287V16.1633L7.94051 18.6419C8.46702 19.1556 9.18111 19.4442 9.92572 19.4442C10.7473 19.4442 11.4865 19.0999 11.9999 18.5511C12.5133 19.0999 13.2525 19.4442 14.0741 19.4442C14.8187 19.4442 15.5328 19.1556 16.0593 18.6419L18.5999 16.1633V15.0287C18.5999 14.2272 18.247 13.506 17.6845 13.0052C18.247 12.5043 18.5999 11.7831 18.5999 10.9816V9.847L16.0593 7.36838C15.5328 6.85471 14.8187 6.56613 14.0741 6.56613C13.2525 6.56613 12.5133 6.91044 11.9999 7.45923C11.4865 6.91044 10.7473 6.56613 9.92572 6.56613ZM13.9003 13.0052C13.8687 12.977 13.8376 12.948 13.8072 12.9184L11.9999 11.1552L10.1926 12.9184C10.1622 12.948 10.1311 12.977 10.0995 13.0052C10.1311 13.0333 10.1622 13.0623 10.1926 13.0919L11.9999 14.8551L13.8072 13.0919C13.8376 13.0623 13.8687 13.0333 13.9003 13.0052ZM12.7332 16.1633V16.7051C12.7332 17.4276 13.3336 18.0133 14.0741 18.0133C14.4297 18.0133 14.7707 17.8755 15.0222 17.6301L17.1332 15.5706V15.0287C17.1332 14.3063 16.5329 13.7206 15.7924 13.7206C15.4368 13.7206 15.0957 13.8584 14.8443 14.1037L12.7332 16.1633ZM11.2666 16.1633L9.15553 14.1037C8.90407 13.8584 8.56303 13.7206 8.20742 13.7206C7.46689 13.7206 6.86657 14.3063 6.86657 15.0287V15.5706L8.9776 17.6301C9.22906 17.8755 9.57011 18.0133 9.92572 18.0133C10.6662 18.0133 11.2666 17.4276 11.2666 16.7051V16.1633ZM11.2666 9.30517V9.847L9.15553 11.9066C8.90407 12.1519 8.56303 12.2897 8.20742 12.2897C7.46689 12.2897 6.86657 11.704 6.86657 10.9816V10.4397L8.9776 8.38017C9.22906 8.13485 9.57011 7.99703 9.92572 7.99703C10.6662 7.99703 11.2666 8.5827 11.2666 9.30517ZM14.8443 11.9066L12.7332 9.847V9.30517C12.7332 8.5827 13.3336 7.99703 14.0741 7.99703C14.4297 7.99703 14.7707 8.13485 15.0222 8.38017L17.1332 10.4397V10.9816C17.1332 11.704 16.5329 12.2897 15.7924 12.2897C15.4368 12.2897 15.0957 12.1519 14.8443 11.9066Z" fill="#FF630B"/>
</g>
<path d="M15.4651 25.6248C15.0814 25.6248 14.7209 25.3585 14.6163 24.9469C14.5 24.4628 14.7674 23.9665 15.2326 23.8333C17.5293 23.2012 19.5606 21.7958 21.0098 19.8362C22.4589 17.8766 23.2446 15.473 23.2442 13C23.2442 6.82682 18.4186 1.80354 12.4884 1.80354C7.45349 1.80354 4.15116 4.86592 2.60465 6.71788H6.02326C6.5 6.71788 6.89535 7.12942 6.89535 7.6257C6.89535 8.12197 6.52326 8.54562 6.03488 8.54562H0.883721C0.802326 8.54562 0.72093 8.53352 0.639535 8.50931C0.540055 8.4757 0.445984 8.42674 0.360465 8.36406C0.25887 8.2929 0.175137 8.19744 0.116279 8.08566C0.0581396 7.96462 0.0116279 7.84358 0 7.71043V2.11825C0 1.62197 0.395349 1.21043 0.872093 1.21043C1.34884 1.21043 1.74419 1.62197 1.74419 2.11825V5.01117C3.63953 2.89292 7.2093 0 12.5 0C19.3953 0 25 5.83426 25 13.0121C25 18.919 21.1744 24.0996 15.686 25.6006C15.6163 25.6127 15.5349 25.6248 15.4651 25.6248ZM11.6744 26C11.6512 26 11.6163 26 11.593 25.9879C10.3488 25.9032 9.12791 25.6127 7.96512 25.1406C7.74939 25.0537 7.57558 24.8813 7.48184 24.6612C7.3881 24.4411 7.38209 24.1912 7.46512 23.9665C7.63953 23.5065 8.15116 23.2644 8.59302 23.446C9.59302 23.8575 10.6512 24.0996 11.7209 24.1844H11.7326C12.1977 24.2086 12.5465 24.6201 12.5465 25.1043V25.1527C12.5291 25.3818 12.4299 25.5958 12.2685 25.7526C12.1071 25.9095 11.8952 25.9977 11.6744 26ZM5.26744 23.3976C5.06977 23.3976 4.88372 23.3371 4.72093 23.2039C3.74419 22.3929 2.89535 21.4367 2.18605 20.3594C2.11841 20.2626 2.07036 20.1526 2.04481 20.0359C2.01925 19.9193 2.01673 19.7984 2.03739 19.6807C2.05804 19.563 2.10146 19.4509 2.16499 19.3511C2.22852 19.2514 2.31085 19.1662 2.40698 19.1006C2.5978 18.968 2.83066 18.9179 3.05634 18.9608C3.28201 19.0037 3.48281 19.1363 3.61628 19.3305C4.23256 20.2626 4.96512 21.0857 5.81395 21.7756C6.01163 21.9451 6.13953 22.1993 6.13953 22.4777C6.13953 22.6834 6.0814 22.8892 5.95349 23.0587C5.7907 23.2765 5.53488 23.3976 5.26744 23.3976ZM1.38372 17.4907C1 17.4907 0.662791 17.2365 0.55814 16.8613C0.186047 15.6145 0 14.3194 0 13.0121C0 12.5158 0.395349 12.1043 0.872093 12.1043C1.34884 12.1043 1.74419 12.5158 1.74419 13.0121C1.74419 14.1378 1.90698 15.2514 2.22093 16.3166C2.24419 16.4013 2.25581 16.4981 2.25581 16.595C2.25581 16.9944 2.01163 17.3333 1.65116 17.4544C1.55814 17.4786 1.47674 17.4907 1.38372 17.4907Z" fill="#7210FF"/>
<defs>
<clipPath id="clip0_221_2945">
<rect width="13.2" height="13.2" fill="white" transform="translate(5.3999 6.39996)"/>
</clipPath>
</defs>
</svg>
