<svg width="12" height="13" viewBox="0 0 12 13" fill="none" xmlns="http://www.w3.org/2000/svg">
<path d="M5.4649 11.875C5.2249 11.875 4.98492 11.815 4.76492 11.695C4.31992 11.445 4.0549 11 4.0549 10.495V7.82002C4.0549 7.56502 3.88989 7.19001 3.73489 6.99501L1.8349 5.00002C1.5199 4.68502 1.2749 4.13501 1.2749 3.73001V2.57002C1.2749 1.76502 1.88491 1.13501 2.65991 1.13501H9.3299C10.0949 1.13501 10.7149 1.75502 10.7149 2.52002V3.63002C10.7149 4.15502 10.3999 4.76001 10.0999 5.05501C9.95491 5.20001 9.71492 5.20001 9.56992 5.05501C9.42492 4.91001 9.42492 4.67001 9.56992 4.52501C9.75492 4.34001 9.9649 3.92502 9.9649 3.63002V2.52002C9.9649 2.17002 9.6799 1.88501 9.3299 1.88501H2.65991C2.30491 1.88501 2.0249 2.18502 2.0249 2.57002V3.73001C2.0249 3.91501 2.1749 4.28002 2.3699 4.47502L4.29492 6.50002C4.54992 6.81502 4.7999 7.34502 4.7999 7.82002V10.495C4.7999 10.825 5.02491 10.985 5.12491 11.04C5.33991 11.16 5.59492 11.155 5.79492 11.035L6.4949 10.585C6.6399 10.5 6.77991 10.225 6.77991 10.04C6.77991 9.83501 6.94991 9.66501 7.15491 9.66501C7.35991 9.66501 7.52991 9.83501 7.52991 10.04C7.52991 10.49 7.2499 11.005 6.8949 11.22L6.19992 11.67C5.97492 11.805 5.7199 11.875 5.4649 11.875Z" fill="white"/>
<path d="M8.03506 9.13499C6.94506 9.13499 6.06006 8.25 6.06006 7.16C6.06006 6.07 6.94506 5.185 8.03506 5.185C9.12506 5.185 10.0101 6.07 10.0101 7.16C10.0101 8.25 9.12506 9.13499 8.03506 9.13499ZM8.03506 5.935C7.36006 5.935 6.81006 6.485 6.81006 7.16C6.81006 7.835 7.36006 8.38499 8.03506 8.38499C8.71006 8.38499 9.26007 7.835 9.26007 7.16C9.26007 6.485 8.71006 5.935 8.03506 5.935Z" fill="white"/>
<path d="M9.93501 9.435C9.84001 9.435 9.74503 9.4 9.67003 9.325L9.17003 8.825C9.02503 8.68 9.02503 8.44 9.17003 8.295C9.31503 8.15 9.55503 8.15 9.70003 8.295L10.2 8.795C10.345 8.94 10.345 9.18 10.2 9.325C10.13 9.395 10.03 9.435 9.93501 9.435Z" fill="white"/>
</svg>
