<svg width="16" height="16" viewBox="0 0 16 16" fill="none" xmlns="http://www.w3.org/2000/svg">
<path d="M8.00008 15.1667C4.50675 15.1667 1.66675 12.3267 1.66675 8.83333C1.66675 5.34 4.50675 2.5 8.00008 2.5C11.4934 2.5 14.3334 5.34 14.3334 8.83333C14.3334 12.3267 11.4934 15.1667 8.00008 15.1667ZM8.00008 3.5C5.06008 3.5 2.66675 5.89333 2.66675 8.83333C2.66675 11.7733 5.06008 14.1667 8.00008 14.1667C10.9401 14.1667 13.3334 11.7733 13.3334 8.83333C13.3334 5.89333 10.9401 3.5 8.00008 3.5Z" fill="#989898"/>
<path d="M8 9.16666C7.72667 9.16666 7.5 8.93999 7.5 8.66666V5.33333C7.5 5.05999 7.72667 4.83333 8 4.83333C8.27333 4.83333 8.5 5.05999 8.5 5.33333V8.66666C8.5 8.93999 8.27333 9.16666 8 9.16666Z" fill="#989898"/>
<path d="M10 1.83333H6C5.72667 1.83333 5.5 1.60666 5.5 1.33333C5.5 1.05999 5.72667 0.833328 6 0.833328H10C10.2733 0.833328 10.5 1.05999 10.5 1.33333C10.5 1.60666 10.2733 1.83333 10 1.83333Z" fill="#989898"/>
</svg>
