<svg width="1024" height="1024" viewBox="0 0 1024 1024" fill="none" xmlns="http://www.w3.org/2000/svg">
<rect width="1024" height="1024" fill="#32009A"/>
<path d="M809.725 651.21C806.837 648.191 803.95 645.172 801.063 642.153V518.124C788.2 507.887 764.969 489.512 745.282 474.025V442C727.039 427.563 688.058 396.72 667.714 380.576V246.703L508.511 339.495L349.307 246.703V380.576C328.963 396.588 289.983 427.563 271.739 442V467.594C252.708 482.687 231.052 499.749 218.715 509.593V640.053C217.927 640.841 217.14 641.497 216.484 642.285C207.821 650.685 212.415 665.516 224.227 667.616C224.49 667.616 224.621 667.747 224.884 667.747C229.477 668.534 234.202 666.959 237.615 663.809C289.72 614.591 360.988 577.448 435.799 556.186C482.786 542.799 532.529 542.536 579.647 555.136C655.246 575.217 724.939 609.998 777.569 661.709C749.876 689.665 714.308 714.209 672.833 734.027C667.846 736.39 663.646 742.821 663.777 748.202C664.04 759.095 675.589 765.92 685.433 761.064C736.095 735.602 827.575 679.822 809.725 651.21ZM248.508 523.636L271.87 505.13C271.87 569.18 271.87 562.486 271.87 595.954C264.389 601.073 256.514 607.11 248.508 613.673V523.636ZM301.533 577.317V456.044L349.438 418.113V509.462V543.192V506.312V522.193V523.243V536.63V553.167C349.569 553.167 349.832 553.036 350.094 553.036C333.295 560.255 317.02 568.392 301.533 577.317ZM379.625 541.355V534.53V515.63V504.212V527.836V494.106V295.79L479.374 356.558L480.161 356.951L440.13 380.314V464.05V497.124V497.781V503.949V507.099V522.849C427.137 525.999 414.406 529.674 401.806 533.611C394.194 536.105 386.844 538.73 379.625 541.355ZM577.153 522.98C573.085 521.93 569.016 521.011 564.947 520.093V426.775L534.892 450.531V485.837V514.055C526.098 512.48 517.436 511.168 508.642 509.855C495.911 508.149 483.049 506.705 470.186 505.655V482.425V481.768V448.694V406.694V398.688L511.529 372.57L537.91 356.426L637.659 295.659V494.106V527.836V504.212V515.63V534.53V541.355C630.309 538.73 622.959 536.236 615.609 533.874C602.878 529.805 590.147 526.261 577.153 522.98ZM667.714 553.167V536.63V523.243V522.193V506.312V543.192V509.462V418.113L715.62 456.044V577.186C700.001 568.261 683.858 560.255 667.058 552.905C667.321 553.167 667.583 553.167 667.714 553.167ZM745.282 511.562L771.4 532.299V615.379C763.001 608.554 754.207 601.992 745.282 595.823C745.282 563.536 745.282 575.348 745.282 511.562Z" fill="white"/>
<path fill-rule="evenodd" clip-rule="evenodd" d="M511.791 723.397C537.647 723.397 558.516 702.398 558.516 676.673C558.516 671.817 557.728 667.092 556.416 662.63C552.216 669.454 544.603 674.048 535.941 674.048C522.685 674.048 511.923 663.286 511.923 650.03C511.923 642.286 515.598 635.461 521.241 630.999C518.222 630.343 515.073 630.08 511.923 630.08C486.067 630.08 465.198 650.949 465.198 676.804C465.198 702.529 486.067 723.397 511.791 723.397Z" fill="#F28705"/>
<path fill-rule="evenodd" clip-rule="evenodd" d="M586.603 711.191C579.384 707.909 570.984 710.272 566.391 716.572C565.603 717.753 564.684 718.803 563.897 719.853C563.634 720.115 563.503 720.378 563.241 720.64C562.584 721.428 561.797 722.215 561.141 723.003C560.878 723.265 560.747 723.528 560.484 723.79C559.697 724.709 558.778 725.497 557.991 726.284C557.859 726.415 557.728 726.547 557.728 726.547C555.628 728.515 553.397 730.353 551.034 732.059C549.853 732.846 548.672 733.634 547.491 734.421C547.36 734.421 547.359 734.553 547.228 734.553C543.553 736.784 539.747 738.621 535.678 740.196C535.416 740.328 535.022 740.459 534.76 740.59C533.841 740.984 532.922 741.246 531.872 741.509C531.347 741.64 530.954 741.771 530.429 741.903C529.641 742.165 528.854 742.296 528.066 742.559C527.541 742.69 526.885 742.821 526.36 742.953C525.572 743.084 524.916 743.215 524.129 743.346C522.947 743.609 521.897 743.74 520.716 743.871C519.929 744.003 519.272 744.003 518.485 744.134C517.829 744.134 517.304 744.265 516.647 744.265C515.729 744.265 514.941 744.396 514.023 744.396C513.498 744.396 513.104 744.396 512.579 744.396C511.398 744.396 510.085 744.396 508.773 744.265C508.641 744.265 508.51 744.265 508.379 744.265C506.804 744.134 505.229 744.003 503.785 743.871C475.436 740.328 452.861 718.934 446.692 692.16C446.561 691.635 446.43 690.978 446.299 690.453C446.299 690.322 446.298 690.06 446.167 689.928C445.511 686.647 445.117 683.235 444.986 679.691C444.986 679.56 444.986 679.56 444.986 679.429C444.986 678.51 444.986 677.591 444.986 676.804C444.986 676.541 444.986 676.147 444.986 675.885C444.986 675.229 444.986 674.572 445.117 674.047C445.117 673.391 445.249 672.866 445.249 672.21C445.249 671.685 445.38 671.16 445.38 670.635C445.38 669.979 445.511 669.454 445.642 668.929C445.774 668.404 445.774 667.747 445.905 667.222C445.905 666.96 446.036 666.566 446.036 666.304C450.892 637.692 474.386 614.33 504.048 610.786C505.623 610.655 507.198 610.523 508.773 610.392C508.904 610.392 508.904 610.392 509.035 610.392C510.348 610.392 511.529 610.261 512.841 610.392C513.366 610.392 513.891 610.392 514.285 610.392C515.073 610.392 515.991 610.523 516.779 610.523C517.435 610.523 518.091 610.655 518.747 610.655C519.272 610.655 519.929 610.786 520.454 610.917C521.897 611.048 523.341 611.311 524.916 611.573C525.441 611.705 525.966 611.705 526.491 611.836C527.147 611.967 527.935 612.23 528.591 612.361C529.247 612.492 529.904 612.755 530.56 612.886C531.216 613.017 531.741 613.28 532.397 613.411C533.185 613.673 533.972 613.936 534.76 614.198C535.285 614.33 535.678 614.461 536.203 614.723C537.385 615.248 538.697 615.642 539.878 616.167C541.191 616.692 542.372 617.348 543.685 618.004C543.947 618.136 544.078 618.267 544.341 618.398C545.391 618.923 546.31 619.579 547.36 620.104C547.622 620.236 547.884 620.498 548.147 620.629C549.066 621.154 549.984 621.811 550.903 622.467C551.166 622.598 551.428 622.861 551.691 622.992C553.922 624.567 555.891 626.273 557.991 628.111C558.384 628.504 558.778 628.767 559.172 629.161C559.697 629.686 560.222 630.211 560.878 630.867C561.272 631.392 561.797 631.785 562.191 632.31C562.584 632.835 562.978 633.229 563.372 633.754C563.897 634.279 564.291 634.804 564.816 635.46C565.078 635.723 565.341 636.117 565.472 636.379C565.997 637.035 566.522 637.692 566.915 638.348C571.509 644.779 580.04 647.142 587.259 643.86C597.234 639.398 600.253 626.667 593.296 618.267L590.015 614.198C587.653 611.311 585.159 608.686 582.534 606.061C581.747 605.142 580.959 604.223 580.04 603.436L575.972 600.155C575.84 600.023 575.709 600.023 575.709 599.892C575.578 599.761 575.578 599.761 575.447 599.63C557.466 585.061 535.81 577.843 514.285 577.58C513.76 577.58 513.104 577.58 512.579 577.58C512.054 577.58 511.66 577.58 511.135 577.58C489.217 577.843 467.298 585.192 449.055 600.023C448.005 600.811 447.086 601.73 446.167 602.517C445.905 602.648 445.774 602.911 445.511 603.042C444.33 604.092 443.149 605.273 441.967 606.455C432.124 616.167 424.643 627.586 419.786 639.792C419.524 640.448 419.261 641.104 419.13 641.629C418.868 642.548 418.474 643.335 418.211 644.254C417.818 645.304 417.555 646.354 417.161 647.404C417.03 647.798 416.899 648.323 416.768 648.716C416.374 649.898 416.111 651.079 415.718 652.391C415.586 652.785 415.586 653.048 415.455 653.441C415.193 654.623 414.93 655.804 414.668 656.985C414.536 657.379 414.536 657.773 414.405 658.166C414.143 659.216 414.012 660.266 413.88 661.448C413.749 661.973 413.749 662.498 413.618 663.023C413.486 663.941 413.355 664.86 413.224 665.648C413.093 666.435 413.093 667.091 412.962 667.879C412.962 668.535 412.83 669.191 412.83 669.847C412.699 670.766 412.699 671.816 412.568 672.735C412.568 673.129 412.568 673.522 412.568 673.916C412.568 675.229 412.437 676.41 412.437 677.722C412.437 677.854 412.437 677.985 412.437 677.985C412.568 693.735 416.243 709.616 423.855 724.053C427.661 731.403 432.517 738.228 438.292 744.659C438.686 745.053 439.08 745.578 439.605 745.971C440.261 746.759 441.049 747.546 441.705 748.202C442.492 748.99 443.28 749.777 444.067 750.434C444.461 750.827 444.855 751.221 445.249 751.615C446.167 752.534 447.217 753.321 448.136 754.109C448.398 754.371 448.661 754.634 448.923 754.765C448.923 754.765 448.923 754.765 449.055 754.896C449.842 755.552 450.63 756.209 451.548 756.734C452.073 757.127 452.598 757.652 453.255 758.046C453.386 758.177 453.517 758.309 453.648 758.309C470.842 770.777 490.923 776.946 510.873 777.34C511.398 777.34 511.923 777.34 512.316 777.34C512.973 777.34 513.498 777.34 514.154 777.34C533.972 777.077 553.791 770.908 570.853 758.702C571.115 758.44 571.509 758.309 571.772 758.046C572.165 757.652 572.69 757.39 573.084 756.996C574.003 756.34 574.922 755.552 575.84 754.896C575.84 754.896 575.84 754.896 575.972 754.896L580.04 751.615C580.959 750.827 581.747 750.04 582.534 749.121C585.159 746.496 587.653 743.871 590.015 740.984L593.296 736.915C599.465 728.384 596.446 715.653 586.603 711.191Z" fill="#F28705"/>
</svg>
