<svg width="33" height="32" viewBox="0 0 33 32" fill="none" xmlns="http://www.w3.org/2000/svg">
<path d="M16.5 17C12.2733 17 8.83334 13.56 8.83334 9.33334C8.83334 5.10667 12.2733 1.66667 16.5 1.66667C20.7267 1.66667 24.1667 5.10667 24.1667 9.33334C24.1667 13.56 20.7267 17 16.5 17ZM16.5 3.66667C13.38 3.66667 10.8333 6.21334 10.8333 9.33334C10.8333 12.4533 13.38 15 16.5 15C19.62 15 22.1667 12.4533 22.1667 9.33334C22.1667 6.21334 19.62 3.66667 16.5 3.66667Z" fill="#00AF46"/>
<path d="M5.04688 30.3333C4.50021 30.3333 4.04688 29.88 4.04688 29.3333C4.04688 23.64 9.63354 19 16.5002 19C17.8469 19 19.1669 19.1734 20.4469 19.5334C20.9802 19.68 21.2869 20.2267 21.1402 20.76C20.9936 21.2933 20.4469 21.6 19.9135 21.4534C18.8202 21.1467 17.6735 21 16.5002 21C10.7402 21 6.04688 24.7333 6.04688 29.3333C6.04688 29.88 5.59354 30.3333 5.04688 30.3333Z" fill="#00AF46"/>
<path d="M24.5 30.3333C22.2867 30.3333 20.2067 29.16 19.0867 27.2533C18.4867 26.2933 18.1667 25.16 18.1667 24C18.1667 22.0533 19.0333 20.2533 20.54 19.0533C21.66 18.16 23.0733 17.6667 24.5 17.6667C27.9933 17.6667 30.8333 20.5067 30.8333 24C30.8333 25.16 30.5133 26.2934 29.9133 27.2667C29.58 27.8267 29.1533 28.3333 28.6467 28.76C27.54 29.7733 26.06 30.3333 24.5 30.3333ZM24.5 19.6667C23.5133 19.6667 22.58 20 21.7933 20.6266C20.7667 21.44 20.1667 22.68 20.1667 24C20.1667 24.7867 20.38 25.56 20.7933 26.2266C21.5667 27.5333 22.9933 28.3333 24.5 28.3333C25.5533 28.3333 26.5667 27.9467 27.34 27.2533C27.6867 26.96 27.98 26.6133 28.1933 26.24C28.62 25.56 28.8333 24.7867 28.8333 24C28.8333 21.6133 26.8867 19.6667 24.5 19.6667Z" fill="#00AF46"/>
<path d="M23.7398 26.3201C23.4865 26.3201 23.2332 26.2268 23.0332 26.0268L21.7132 24.7068C21.3265 24.3201 21.3265 23.6801 21.7132 23.2934C22.0998 22.9067 22.7398 22.9067 23.1265 23.2934L23.7665 23.9334L25.8998 21.9601C26.2998 21.5867 26.9398 21.6134 27.3131 22.0134C27.6865 22.4134 27.6598 23.0534 27.2598 23.4268L24.4198 26.0534C24.2198 26.2267 23.9798 26.3201 23.7398 26.3201Z" fill="#00AF46"/>
</svg>
