<svg width="24" height="24" viewBox="0 0 24 24" fill="none" xmlns="http://www.w3.org/2000/svg">
<path d="M19.5999 4.39999C17.7698 2.5809 15.3459 1.48152 12.7717 1.30298C10.1975 1.12443 7.64509 1.87865 5.58136 3.42766C3.51763 4.97667 2.08058 7.21691 1.53311 9.73856C0.985633 12.2602 1.36433 14.8947 2.59993 17.16C2.62281 17.2247 2.62281 17.2953 2.59993 17.36L1.80993 20C1.72256 20.303 1.71727 20.6238 1.79458 20.9295C1.87189 21.2352 2.02903 21.5149 2.24993 21.74C2.47415 21.9654 2.75553 22.1254 3.06385 22.2029C3.37217 22.2805 3.69578 22.2725 3.99993 22.18L6.64993 21.39C6.68162 21.3768 6.7156 21.37 6.74993 21.37C6.78426 21.37 6.81824 21.3768 6.84993 21.39C8.42319 22.2735 10.1956 22.7415 11.9999 22.75C12.7761 22.7484 13.55 22.6679 14.3099 22.51C16.195 22.0965 17.9339 21.1833 19.3443 19.866C20.7547 18.5488 21.7845 16.8762 22.3256 15.0238C22.8667 13.1713 22.8991 11.2074 22.4195 9.33813C21.9399 7.46883 20.966 5.76311 19.5999 4.39999Z" fill="#0DB561"/>
<path d="M12 9.79999C13.1046 9.79999 14 8.90456 14 7.79999C14 6.69542 13.1046 5.79999 12 5.79999C10.8954 5.79999 10 6.69542 10 7.79999C10 8.90456 10.8954 9.79999 12 9.79999Z" fill="white"/>
<path d="M12 10.83C11.4696 10.83 10.9609 11.0407 10.5858 11.4158C10.2107 11.7909 10 12.2996 10 12.83V16.39C10 16.9205 10.2107 17.4292 10.5858 17.8042C10.9609 18.1793 11.4696 18.39 12 18.39C12.5304 18.39 13.0391 18.1793 13.4142 17.8042C13.7893 17.4292 14 16.9205 14 16.39V12.83C14 12.2996 13.7893 11.7909 13.4142 11.4158C13.0391 11.0407 12.5304 10.83 12 10.83Z" fill="white"/>
</svg>
