<svg width="21" height="20" viewBox="0 0 21 20" fill="none" xmlns="http://www.w3.org/2000/svg">
<path d="M12.525 15.6833C12.3667 15.6833 12.2083 15.625 12.0833 15.5C11.8417 15.2583 11.8417 14.8583 12.0833 14.6167L16.7 10L12.0833 5.38334C11.8417 5.14167 11.8417 4.74167 12.0833 4.50001C12.325 4.25834 12.725 4.25834 12.9667 4.50001L18.025 9.55834C18.2667 9.80001 18.2667 10.2 18.025 10.4417L12.9667 15.5C12.8417 15.625 12.6834 15.6833 12.525 15.6833Z" fill="#7210FF"/>
<path d="M17.4417 10.625H3.41669C3.07502 10.625 2.79169 10.3417 2.79169 10C2.79169 9.65833 3.07502 9.375 3.41669 9.375H17.4417C17.7834 9.375 18.0667 9.65833 18.0667 10C18.0667 10.3417 17.7834 10.625 17.4417 10.625Z" fill="#7210FF"/>
</svg>
