<svg width="20" height="20" viewBox="0 0 20 20" fill="none" xmlns="http://www.w3.org/2000/svg">
<path d="M14.0875 18.0625C13.24 18.0625 12.3475 17.86 11.425 17.47C10.525 17.0875 9.6175 16.5625 8.7325 15.925C7.855 15.28 7.0075 14.56 6.205 13.7725C5.41 12.97 4.69 12.1225 4.0525 11.2525C3.4075 10.3525 2.89 9.4525 2.5225 8.5825C2.1325 7.6525 1.9375 6.7525 1.9375 5.905C1.9375 5.32 2.0425 4.765 2.245 4.2475C2.455 3.715 2.7925 3.22 3.25 2.7925C3.8275 2.2225 4.4875 1.9375 5.1925 1.9375C5.485 1.9375 5.785 2.005 6.04 2.125C6.3325 2.26 6.58 2.4625 6.76 2.7325L8.5 5.185C8.6575 5.4025 8.7775 5.6125 8.86 5.8225C8.9575 6.0475 9.01 6.2725 9.01 6.49C9.01 6.775 8.9275 7.0525 8.77 7.315C8.6575 7.5175 8.485 7.735 8.2675 7.9525L7.7575 8.485C7.765 8.5075 7.7725 8.5225 7.78 8.5375C7.87 8.695 8.05 8.965 8.395 9.37C8.7625 9.79 9.1075 10.1725 9.4525 10.525C9.895 10.96 10.2625 11.305 10.6075 11.59C11.035 11.95 11.3125 12.13 11.4775 12.2125L11.4625 12.25L12.01 11.71C12.2425 11.4775 12.4675 11.305 12.685 11.1925C13.0975 10.9375 13.6225 10.8925 14.1475 11.11C14.3425 11.1925 14.5525 11.305 14.7775 11.4625L17.2675 13.2325C17.545 13.42 17.7475 13.66 17.8675 13.945C17.98 14.23 18.0325 14.4925 18.0325 14.755C18.0325 15.115 17.95 15.475 17.7925 15.8125C17.635 16.15 17.44 16.4425 17.1925 16.7125C16.765 17.185 16.3 17.5225 15.76 17.74C15.2425 17.95 14.68 18.0625 14.0875 18.0625ZM5.1925 3.0625C4.78 3.0625 4.3975 3.2425 4.03 3.6025C3.685 3.925 3.445 4.2775 3.295 4.66C3.1375 5.05 3.0625 5.4625 3.0625 5.905C3.0625 6.6025 3.2275 7.36 3.5575 8.14C3.895 8.935 4.3675 9.76 4.9675 10.585C5.5675 11.41 6.25 12.2125 7 12.97C7.75 13.7125 8.56 14.4025 9.3925 15.01C10.2025 15.6025 11.035 16.0825 11.86 16.4275C13.1425 16.975 14.3425 17.1025 15.3325 16.69C15.715 16.5325 16.0525 16.2925 16.36 15.9475C16.5325 15.76 16.6675 15.5575 16.78 15.3175C16.87 15.13 16.915 14.935 16.915 14.74C16.915 14.62 16.8925 14.5 16.8325 14.365C16.81 14.32 16.765 14.2375 16.6225 14.14L14.1325 12.37C13.9825 12.265 13.8475 12.19 13.72 12.1375C13.555 12.07 13.4875 12.0025 13.2325 12.16C13.0825 12.235 12.9475 12.3475 12.7975 12.4975L12.2275 13.06C11.935 13.345 11.485 13.4125 11.14 13.285L10.9375 13.195C10.63 13.03 10.27 12.775 9.8725 12.4375C9.5125 12.13 9.1225 11.77 8.65 11.305C8.2825 10.93 7.915 10.5325 7.5325 10.09C7.18 9.6775 6.925 9.325 6.7675 9.0325L6.6775 8.8075C6.6325 8.635 6.6175 8.5375 6.6175 8.4325C6.6175 8.1625 6.715 7.9225 6.9025 7.735L7.465 7.15C7.615 7 7.7275 6.8575 7.8025 6.73C7.8625 6.6325 7.885 6.55 7.885 6.475C7.885 6.415 7.8625 6.325 7.825 6.235C7.7725 6.115 7.69 5.98 7.585 5.8375L5.845 3.3775C5.77 3.2725 5.68 3.1975 5.5675 3.145C5.4475 3.0925 5.32 3.0625 5.1925 3.0625ZM11.4625 12.2575L11.3425 12.7675L11.545 12.2425C11.5075 12.235 11.4775 12.2425 11.4625 12.2575Z" fill="#989898"/>
<path d="M14.875 8.3125C14.5675 8.3125 14.3125 8.0575 14.3125 7.75C14.3125 7.48 14.0425 6.9175 13.5925 6.4375C13.15 5.965 12.6625 5.6875 12.25 5.6875C11.9425 5.6875 11.6875 5.4325 11.6875 5.125C11.6875 4.8175 11.9425 4.5625 12.25 4.5625C12.9775 4.5625 13.7425 4.9525 14.41 5.665C15.0325 6.3325 15.4375 7.15 15.4375 7.75C15.4375 8.0575 15.1825 8.3125 14.875 8.3125Z" fill="#989898"/>
<path d="M17.5 8.3125C17.1925 8.3125 16.9375 8.0575 16.9375 7.75C16.9375 5.1625 14.8375 3.0625 12.25 3.0625C11.9425 3.0625 11.6875 2.8075 11.6875 2.5C11.6875 2.1925 11.9425 1.9375 12.25 1.9375C15.4525 1.9375 18.0625 4.5475 18.0625 7.75C18.0625 8.0575 17.8075 8.3125 17.5 8.3125Z" fill="#989898"/>
</svg>
