<svg width="24" height="24" viewBox="0 0 24 24" fill="none" xmlns="http://www.w3.org/2000/svg">
<g clip-path="url(#clip0_221_2689)">
<path d="M12.0001 23.6364C18.4267 23.6364 23.6365 18.4266 23.6365 12C23.6365 5.57342 18.4267 0.363647 12.0001 0.363647C5.57355 0.363647 0.36377 5.57342 0.36377 12C0.36377 18.4266 5.57355 23.6364 12.0001 23.6364Z" fill="#FA4968"/>
<path d="M16.2182 5.85454V17.3818H9.6V18.5455C9.6 19.2 9.05455 19.7455 8.4 19.7455C7.74545 19.7455 7.2 19.2 7.2 18.5455V5.85454C7.2 5.2 6.65455 4.65454 6 4.65454H15.0182C15.6727 4.65454 16.2182 5.16363 16.2182 5.85454Z" fill="#F4F4F4"/>
<path d="M8.40018 19.9273C7.63654 19.9273 7.01836 19.3091 7.01836 18.5454V5.85454C7.01836 5.30908 6.54563 4.83635 6.00018 4.83635C5.89109 4.83635 5.81836 4.76363 5.81836 4.65454C5.81836 4.54544 5.89109 4.47272 6.00018 4.47272H15.0184C15.782 4.47272 16.4002 5.0909 16.4002 5.85454V17.3818C16.4002 17.4909 16.3274 17.5636 16.2184 17.5636H9.782V18.5454C9.782 19.3091 9.16381 19.9273 8.40018 19.9273ZM6.90927 4.83635C7.20018 5.0909 7.382 5.45454 7.382 5.85454V18.5454C7.382 19.0909 7.85472 19.5636 8.40018 19.5636C8.94563 19.5636 9.41836 19.0909 9.41836 18.5454V17.3818C9.41836 17.2727 9.49109 17.2 9.60018 17.2H16.0365V5.85454C16.0365 5.27272 15.6002 4.83635 15.0184 4.83635H6.90927Z" fill="#682F2A"/>
<path d="M7.16367 7.67272V5.85454C7.16367 5.2 6.61822 4.65454 5.96367 4.65454C5.30913 4.65454 4.76367 5.2 4.76367 5.85454V7.67272H7.16367Z" fill="#CCCACA"/>
<path d="M7.16385 7.85454H4.76385C4.65476 7.85454 4.58203 7.78181 4.58203 7.67272V5.85454C4.58203 5.0909 5.20021 4.47272 5.96385 4.47272C6.72749 4.47272 7.34567 5.0909 7.34567 5.85454V7.67272C7.34567 7.78181 7.27294 7.85454 7.16385 7.85454ZM4.94567 7.4909H6.98203V5.85454C6.98203 5.30908 6.5093 4.83635 5.96385 4.83635C5.41839 4.83635 4.94567 5.30908 4.94567 5.85454V7.4909Z" fill="#682F2A"/>
<path d="M18.6544 17.3455V18.5091C18.6544 19.1636 18.109 19.7091 17.4544 19.7091H8.3999C9.05445 19.7091 9.5999 19.1636 9.5999 18.5091V17.3455H18.6544Z" fill="#E5E5E5"/>
<path d="M17.4546 19.8909H8.40008C8.29099 19.8909 8.21826 19.8182 8.21826 19.7091C8.21826 19.6 8.29099 19.5273 8.40008 19.5273C8.94553 19.5273 9.41826 19.0545 9.41826 18.5091V17.3455C9.41826 17.2364 9.49099 17.1636 9.60008 17.1636H18.6546C18.7637 17.1636 18.8364 17.2364 18.8364 17.3455V18.5091C18.8364 19.2727 18.2183 19.8909 17.4546 19.8909ZM9.30917 19.5273H17.4546C18.0001 19.5273 18.4728 19.0545 18.4728 18.5091V17.5273H9.7819V18.5091C9.7819 18.9091 9.60008 19.2727 9.30917 19.5273Z" fill="#682F2A"/>
<path d="M9.49092 10.2909C9.93275 10.2909 10.2909 9.93275 10.2909 9.49092C10.2909 9.04909 9.93275 8.69092 9.49092 8.69092C9.04909 8.69092 8.69092 9.04909 8.69092 9.49092C8.69092 9.93275 9.04909 10.2909 9.49092 10.2909Z" fill="#ABB734"/>
<path d="M9.4911 10.4727C8.94564 10.4727 8.50928 10.0364 8.50928 9.49091C8.50928 8.94546 8.94564 8.50909 9.4911 8.50909C10.0366 8.50909 10.4729 8.94546 10.4729 9.49091C10.4729 10.0364 10.0366 10.4727 9.4911 10.4727ZM9.4911 8.87273C9.16382 8.87273 8.87291 9.16364 8.87291 9.49091C8.87291 9.81819 9.16382 10.1091 9.4911 10.1091C9.81837 10.1091 10.1093 9.81819 10.1093 9.49091C10.1093 9.16364 9.81837 8.87273 9.4911 8.87273Z" fill="#682F2A"/>
<path d="M14.6909 9.2H11.4909C11.3818 9.2 11.3091 9.12727 11.3091 9.01818C11.3091 8.90909 11.3818 8.83636 11.4909 8.83636H14.6909C14.8 8.83636 14.8727 8.90909 14.8727 9.01818C14.8727 9.12727 14.8 9.2 14.6909 9.2ZM13.7454 10.1455H11.4909C11.3818 10.1455 11.3091 10.0727 11.3091 9.96364C11.3091 9.85455 11.3818 9.78182 11.4909 9.78182H13.7454C13.8545 9.78182 13.9273 9.85455 13.9273 9.96364C13.9273 10.0727 13.8545 10.1455 13.7454 10.1455Z" fill="#CCCACA"/>
<path d="M9.49092 13.1637C9.93275 13.1637 10.2909 12.8055 10.2909 12.3637C10.2909 11.9218 9.93275 11.5637 9.49092 11.5637C9.04909 11.5637 8.69092 11.9218 8.69092 12.3637C8.69092 12.8055 9.04909 13.1637 9.49092 13.1637Z" fill="#6CD8D5"/>
<path d="M9.4911 13.3455C8.94564 13.3455 8.50928 12.9091 8.50928 12.3637C8.50928 11.8182 8.94564 11.3818 9.4911 11.3818C10.0366 11.3818 10.4729 11.8182 10.4729 12.3637C10.4729 12.9091 10.0366 13.3455 9.4911 13.3455ZM9.4911 11.7455C9.16382 11.7455 8.87291 12.0364 8.87291 12.3637C8.87291 12.6909 9.16382 12.9818 9.4911 12.9818C9.81837 12.9818 10.1093 12.6909 10.1093 12.3637C10.1093 12.0364 9.81837 11.7455 9.4911 11.7455Z" fill="#682F2A"/>
<path d="M13.3454 12.0727H11.4909C11.3818 12.0727 11.3091 12 11.3091 11.8909C11.3091 11.7818 11.3818 11.7091 11.4909 11.7091H13.3454C13.4545 11.7091 13.5273 11.7818 13.5273 11.8909C13.5273 12 13.4545 12.0727 13.3454 12.0727ZM13.4182 13.0182H11.4909C11.3818 13.0182 11.3091 12.9455 11.3091 12.8364C11.3091 12.7273 11.3818 12.6546 11.4909 12.6546H13.4182C13.5273 12.6546 13.6 12.7273 13.6 12.8364C13.6 12.9455 13.5273 13.0182 13.4182 13.0182Z" fill="#CCCACA"/>
<path d="M9.49092 16.0364C9.93275 16.0364 10.2909 15.6782 10.2909 15.2364C10.2909 14.7946 9.93275 14.4364 9.49092 14.4364C9.04909 14.4364 8.69092 14.7946 8.69092 15.2364C8.69092 15.6782 9.04909 16.0364 9.49092 16.0364Z" fill="#559AFF"/>
<path d="M9.4911 16.2182C8.94564 16.2182 8.50928 15.7819 8.50928 15.2364C8.50928 14.6909 8.94564 14.2546 9.4911 14.2546C10.0366 14.2546 10.4729 14.6909 10.4729 15.2364C10.4729 15.7819 10.0366 16.2182 9.4911 16.2182ZM9.4911 14.6182C9.16382 14.6182 8.87291 14.9091 8.87291 15.2364C8.87291 15.5637 9.16382 15.8546 9.4911 15.8546C9.81837 15.8546 10.1093 15.5637 10.1093 15.2364C10.1093 14.9091 9.81837 14.6182 9.4911 14.6182Z" fill="#682F2A"/>
<path d="M14.3636 14.9091H11.4909C11.3818 14.9091 11.309 14.8364 11.309 14.7273C11.309 14.6182 11.3818 14.5454 11.4909 14.5454H14.3636C14.4727 14.5454 14.5454 14.6182 14.5454 14.7273C14.5454 14.8364 14.4727 14.9091 14.3636 14.9091ZM13.4181 15.8909H11.4909C11.3818 15.8909 11.309 15.8182 11.309 15.7091C11.309 15.6 11.3818 15.5273 11.4909 15.5273H13.4181C13.5272 15.5273 13.6 15.6 13.6 15.7091C13.6 15.8182 13.5272 15.8909 13.4181 15.8909ZM14.6909 6.32726H8.72723C8.61814 6.32726 8.54541 6.25453 8.54541 6.14544C8.54541 6.03635 8.61814 5.96362 8.72723 5.96362H14.6909C14.8 5.96362 14.8727 6.03635 14.8727 6.14544C14.8727 6.25453 14.8 6.32726 14.6909 6.32726ZM14.6909 7.41817H8.72723C8.61814 7.41817 8.54541 7.34544 8.54541 7.23635C8.54541 7.12726 8.61814 7.05453 8.72723 7.05453H14.6909C14.8 7.05453 14.8727 7.12726 14.8727 7.23635C14.8727 7.34544 14.8 7.41817 14.6909 7.41817Z" fill="#CCCACA"/>
<path d="M19.9639 10.4V12.6182C19.9639 14.0727 17.3093 15.7091 17.3093 15.7091C17.3093 15.7091 14.6548 14.0727 14.6548 12.6182V10.4C14.8002 10.4364 14.9093 10.4364 15.0548 10.4364C15.9275 10.4364 16.7275 10.0727 17.3093 9.49091C17.8911 10.0727 18.6911 10.4364 19.5639 10.4364C19.7093 10.4 19.8548 10.4 19.9639 10.4Z" fill="#FECD04"/>
<path d="M17.309 15.8909C17.2727 15.8909 17.2363 15.8909 17.1999 15.8545C17.0908 15.7818 14.4727 14.1454 14.4727 12.6182V10.4C14.4727 10.3273 14.509 10.2909 14.5454 10.2545C14.5817 10.2182 14.6545 10.2182 14.6908 10.2182C14.7999 10.2545 14.909 10.2545 15.0545 10.2545C15.8545 10.2545 16.6181 9.92726 17.1636 9.34544C17.2363 9.27271 17.3454 9.27271 17.4181 9.34544C17.9999 9.92726 18.7272 10.2182 19.5272 10.2545C19.6727 10.2182 19.8545 10.2182 19.9636 10.2182C20.0727 10.2182 20.1454 10.2909 20.1454 10.4V12.6182C20.1454 14.1454 17.5272 15.7818 17.4181 15.8545C17.3817 15.8909 17.3454 15.8909 17.309 15.8909ZM14.8363 10.6182V12.6182C14.8363 13.8182 16.8363 15.2 17.309 15.4909C17.7817 15.2 19.7817 13.8182 19.7817 12.6182V10.5818C19.709 10.5818 19.6727 10.5818 19.5999 10.6182H19.5636C18.7272 10.6182 17.9272 10.2909 17.309 9.74544C16.6908 10.3273 15.8908 10.6182 15.0545 10.6182H14.8363Z" fill="#682F2A"/>
<g opacity="0.4">
<path d="M17.0907 10.6909C17.1635 10.6546 17.2362 10.5818 17.3089 10.5455L17.0907 10.6909ZM15.4907 11.2C15.818 11.1637 16.1089 11.0909 16.3998 10.9818L15.4907 11.2Z" fill="#FECD04"/>
<path d="M15.4909 11.3818C15.3818 11.3818 15.3091 11.3091 15.3091 11.2364C15.3091 11.1273 15.3818 11.0545 15.4545 11.0182C15.7454 10.9818 16.0364 10.9091 16.3273 10.8C16.4364 10.7636 16.5091 10.8 16.5454 10.9091C16.5818 11.0182 16.5454 11.0909 16.4364 11.1273C16.1454 11.2727 15.8545 11.3454 15.4909 11.3818ZM17.0909 10.8727C17.0182 10.8727 16.9454 10.8364 16.9454 10.7636C16.9091 10.6909 16.9454 10.5818 17.0182 10.5091C17.0545 10.5091 17.0545 10.4727 17.0909 10.4364C17.1273 10.4 17.2 10.3636 17.2364 10.3636C17.3091 10.3273 17.4182 10.3636 17.4909 10.4364C17.5273 10.5091 17.4909 10.6182 17.4182 10.6909C17.3818 10.6909 17.3818 10.7273 17.3454 10.7636C17.3091 10.8 17.2364 10.8364 17.2 10.8364C17.1636 10.8727 17.1273 10.8727 17.0909 10.8727Z" fill="white"/>
</g>
<path d="M16.8363 13.3091C16.8 13.3091 16.7636 13.3091 16.7272 13.2727L16.2909 12.8727C16.2181 12.8 16.2181 12.6909 16.2909 12.6182C16.3636 12.5455 16.4727 12.5455 16.5454 12.6182L16.8363 12.9091L18.1454 11.6C18.2181 11.5273 18.3272 11.5273 18.4 11.6C18.4727 11.6727 18.4727 11.7818 18.4 11.8546L16.9818 13.2727C16.9454 13.3091 16.8727 13.3091 16.8363 13.3091Z" fill="#682F2A"/>
<path d="M16.0363 18.4364H13.8908C13.7817 18.4364 13.709 18.3637 13.709 18.2546C13.709 18.1455 13.7817 18.0728 13.8908 18.0728H16.0363C16.1453 18.0728 16.2181 18.1455 16.2181 18.2546C16.2181 18.3637 16.1453 18.4364 16.0363 18.4364ZM17.3453 18.4364H16.9453C16.8363 18.4364 16.7635 18.3637 16.7635 18.2546C16.7635 18.1455 16.8363 18.0728 16.9453 18.0728H17.3453C17.4544 18.0728 17.5272 18.1455 17.5272 18.2546C17.5272 18.3637 17.4544 18.4364 17.3453 18.4364Z" fill="#F4F4F4"/>
</g>
<defs>
<clipPath id="clip0_221_2689">
<rect width="24" height="24" fill="white"/>
</clipPath>
</defs>
</svg>
