<svg width="24" height="24" viewBox="0 0 24 24" fill="none" xmlns="http://www.w3.org/2000/svg">
<g clip-path="url(#clip0_334_7206)">
<path d="M12 2C6.47 2 2 6.47 2 12C2 17.53 6.47 22 12 22C17.53 22 22 17.53 22 12C22 6.47 17.53 2 12 2ZM12 20C7.59 20 4 16.41 4 12C4 7.59 7.59 4 12 4C16.41 4 20 7.59 20 12C20 16.41 16.41 20 12 20ZM15.9436 7.35355C15.7483 7.15829 15.4317 7.15829 15.2364 7.35355L12.3536 10.2364C12.1583 10.4317 11.8417 10.4317 11.6464 10.2364L8.76355 7.35355C8.56829 7.15829 8.25171 7.15829 8.05645 7.35355L7.35355 8.05645C7.15829 8.25171 7.15829 8.56829 7.35355 8.76355L10.2364 11.6464C10.4317 11.8417 10.4317 12.1583 10.2364 12.3536L7.35355 15.2364C7.15829 15.4317 7.15829 15.7483 7.35355 15.9436L8.05645 16.6464C8.25171 16.8417 8.56829 16.8417 8.76355 16.6464L11.6464 13.7636C11.8417 13.5683 12.1583 13.5683 12.3536 13.7636L15.2364 16.6464C15.4317 16.8417 15.7483 16.8417 15.9436 16.6464L16.6464 15.9436C16.8417 15.7483 16.8417 15.4317 16.6464 15.2364L13.7636 12.3536C13.5683 12.1583 13.5683 11.8417 13.7636 11.6464L16.6464 8.76355C16.8417 8.56829 16.8417 8.25171 16.6464 8.05645L15.9436 7.35355Z" fill="#989898"/>
</g>
<defs>
<clipPath id="clip0_334_7206">
<rect width="24" height="24" fill="white"/>
</clipPath>
</defs>
</svg>
