<svg width="24" height="24" viewBox="0 0 24 24" fill="none" xmlns="http://www.w3.org/2000/svg">
<g clip-path="url(#clip0_221_2678)">
<path d="M14.25 3H2.75C1.23 3 0 4.23 0 5.75V18.25C0 19.77 1.23 21 2.75 21H10.13L10.35 19.77C10.451 19.21 10.71 18.71 11.111 18.3L12.411 17H3.75C3.34 17 3 16.66 3 16.25C3 15.84 3.34 15.5 3.75 15.5H13.25C13.43 15.5 13.6 15.57 13.73 15.68L17 12.42V5.75C17 4.23 15.77 3 14.25 3ZM13.25 13.75H3.75C3.34 13.75 3 13.41 3 13C3 12.59 3.34 12.25 3.75 12.25H13.25C13.66 12.25 14 12.59 14 13C14 13.41 13.66 13.75 13.25 13.75ZM13.25 10.5H3.75C3.34 10.5 3 10.16 3 9.75C3 9.34 3.34 9 3.75 9H13.25C13.66 9 14 9.34 14 9.75C14 10.16 13.66 10.5 13.25 10.5Z" fill="#2196F3"/>
<path d="M12.25 2H11.15C10.82 0.85 9.76 0 8.5 0C7.24 0 6.18 0.85 5.85 2H4.75C4.34 2 4 2.34 4 2.75V4.75C4 5.71 4.79 6.5 5.75 6.5H11.25C12.21 6.5 13 5.71 13 4.75V2.75C13 2.34 12.66 2 12.25 2Z" fill="#1976D2"/>
<path d="M14 9.75C14 10.16 13.66 10.5 13.25 10.5H3.75C3.34 10.5 3 10.16 3 9.75C3 9.34 3.34 9 3.75 9H13.25C13.66 9 14 9.34 14 9.75ZM14 13C14 13.41 13.66 13.75 13.25 13.75H3.75C3.34 13.75 3 13.41 3 13C3 12.59 3.34 12.25 3.75 12.25H13.25C13.66 12.25 14 12.59 14 13ZM13.73 15.68L12.41 17H3.75C3.34 17 3 16.66 3 16.25C3 15.84 3.34 15.5 3.75 15.5H13.25C13.43 15.5 13.6 15.57 13.73 15.68Z" fill="white"/>
<path d="M4 3H2.75C1.23 3 0 4.23 0 5.75V18.25C0 19.77 1.23 21 2.75 21H8.5V17H3.75C3.34 17 3 16.66 3 16.25C3 15.84 3.34 15.5 3.75 15.5H8.5V13.75H3.75C3.34 13.75 3 13.41 3 13C3 12.59 3.34 12.25 3.75 12.25H8.5V10.5H3.75C3.34 10.5 3 10.16 3 9.75C3 9.34 3.34 9 3.75 9H8.5V6.5H5.75C4.79 6.5 4 5.71 4 4.75V3Z" fill="#1D83D4"/>
<path d="M8.5 0C7.24 0 6.18 0.85 5.85 2H4.75C4.34 2 4 2.34 4 2.75V4.75C4 5.71 4.79 6.5 5.75 6.5H8.5V0Z" fill="#1667B7"/>
<path d="M8.5 9H3.75C3.34 9 3 9.34 3 9.75C3 10.16 3.34 10.5 3.75 10.5H8.5V9ZM8.5 12.25H3.75C3.34 12.25 3 12.59 3 13C3 13.41 3.34 13.75 3.75 13.75H8.5V12.25ZM8.5 15.5H3.75C3.34 15.5 3 15.84 3 16.25C3 16.66 3.34 17 3.75 17H8.5V15.5Z" fill="#DEDEDE"/>
<path d="M12.5268 24C12.4171 24.0003 12.3087 23.9764 12.2093 23.9302C12.1099 23.8839 12.0219 23.8164 11.9515 23.7323C11.881 23.6483 11.83 23.5498 11.8019 23.4438C11.7737 23.3378 11.7693 23.2269 11.7888 23.119L12.3188 20.114C12.3454 19.9628 12.418 19.8234 12.5268 19.715L19.9518 12.29C20.8638 11.377 21.7598 11.623 22.2498 12.113L23.4868 13.35C23.6493 13.5125 23.7782 13.7054 23.8662 13.9178C23.9541 14.1301 23.9994 14.3577 23.9994 14.5875C23.9994 14.8173 23.9541 15.0449 23.8662 15.2572C23.7782 15.4696 23.6493 15.6625 23.4868 15.825L16.0618 23.25C15.9532 23.3592 15.8135 23.4322 15.6618 23.459L12.6568 23.988L12.5268 24Z" fill="#FFC107"/>
<path d="M21.23 11.675C20.838 11.675 20.397 11.845 19.952 12.29L12.527 19.715C12.4182 19.8234 12.3456 19.9628 12.319 20.114L11.789 23.119C11.7678 23.2378 11.7756 23.3599 11.8118 23.475C11.8481 23.5901 11.9116 23.6948 11.997 23.78L12.02 23.802L22.979 12.842L22.249 12.112C21.9806 11.8372 21.6141 11.68 21.23 11.675Z" fill="#DEA806"/>
</g>
<defs>
<clipPath id="clip0_221_2678">
<rect width="24" height="24" fill="white"/>
</clipPath>
</defs>
</svg>
