<svg width="24" height="24" viewBox="0 0 24 24" fill="none" xmlns="http://www.w3.org/2000/svg">
<g clip-path="url(#clip0_221_2953)">
<path d="M18.375 0.75H16.875C16.4608 0.75 16.125 1.08579 16.125 1.5V4.5C16.125 4.91421 16.4608 5.25 16.875 5.25H18.375C18.7892 5.25 19.125 4.91421 19.125 4.5V1.5C19.125 1.08579 18.7892 0.75 18.375 0.75Z" fill="#FBE1CA"/>
<path d="M19.125 2.625L17.625 3L16.125 2.625V1.5C16.125 1.30109 16.204 1.11032 16.3447 0.96967C16.4853 0.829018 16.6761 0.75 16.875 0.75H18.375C18.5739 0.75 18.7647 0.829018 18.9053 0.96967C19.046 1.11032 19.125 1.30109 19.125 1.5V2.625Z" fill="#C18E59"/>
<path d="M15.75 12.3754H19.5V18.75H15.75V12.3754Z" fill="#C8CDED"/>
<path d="M15 12.375H20.25C20.4489 12.375 20.6397 12.296 20.7803 12.1553C20.921 12.0147 21 11.8239 21 11.625V7.5C21 7.20163 20.8815 6.91548 20.6705 6.7045C20.4595 6.49353 20.1734 6.375 19.875 6.375H19.125L17.625 7.125L16.125 6.375H15.375C15.0766 6.375 14.7905 6.49353 14.5795 6.7045C14.3685 6.91548 14.25 7.20163 14.25 7.5V11.625C14.25 11.8239 14.329 12.0147 14.4697 12.1553C14.6103 12.296 14.8011 12.375 15 12.375Z" fill="#3B5892"/>
<path d="M17.9584 6.9585L17.625 7.125L17.2916 6.9585L16.875 8.625L17.625 10.5L18.375 8.625L17.9584 6.9585Z" fill="#78A0D4"/>
<path d="M10.125 9.75V12L7.125 9.75H2.625C2.42609 9.75 2.23532 9.67098 2.09467 9.53033C1.95402 9.38968 1.875 9.19891 1.875 9V1.5C1.875 1.30109 1.95402 1.11032 2.09467 0.96967C2.23532 0.829018 2.42609 0.75 2.625 0.75H11.625C11.8239 0.75 12.0147 0.829018 12.1553 0.96967C12.296 1.11032 12.375 1.30109 12.375 1.5V9C12.375 9.19891 12.296 9.38968 12.1553 9.53033C12.0147 9.67098 11.8239 9.75 11.625 9.75H10.125Z" fill="#4D8C28"/>
<path d="M11.196 7.5V0.75H2.625C2.42609 0.75 2.23532 0.829018 2.09467 0.96967C1.95402 1.11032 1.875 1.30109 1.875 1.5V8.25H10.446C10.6449 8.25 10.8357 8.17098 10.9763 8.03033C11.117 7.88968 11.196 7.69891 11.196 7.5Z" fill="#559B2D"/>
<path d="M12.75 18.75H21.75C22.1478 18.75 22.5294 18.908 22.8107 19.1893C23.092 19.4706 23.25 19.8522 23.25 20.25V20.625L11.25 23.25L9 21.75H6V15.75H10.5L12.5696 18.1642C12.6861 18.3002 12.7501 18.4734 12.75 18.6525V18.75Z" fill="#FBE1CA"/>
<path d="M0.75 15H3.75V23.25H0.75V15Z" fill="#F0AE42"/>
<path d="M3.75 15H6V22.5H3.75V15Z" fill="#F9D266"/>
<path d="M3.75 15H5.25V21.375H3.75V15Z" fill="#FCE797"/>
<path d="M11.625 20.25H11.1855C11.0377 20.2504 10.8913 20.2215 10.7548 20.1649C10.6182 20.1083 10.4943 20.0252 10.3901 19.9204L8.73486 18.2651L9.26511 17.7349L10.9204 19.3901C10.9907 19.4604 11.086 19.5 11.1855 19.5H11.625C11.7244 19.5 11.8198 19.4605 11.8902 19.3902C11.9605 19.3198 12 19.2244 12 19.125V18.75H12.75V19.125C12.75 19.4234 12.6315 19.7095 12.4205 19.9205C12.2095 20.1315 11.9234 20.25 11.625 20.25Z" fill="#F2B9A1"/>
<path d="M17.25 14.25H18V18.75H17.25V14.25Z" fill="#9DA1BF"/>
<path d="M3.375 6.375L5.25 8.25L10.5 3L9.75 2.25L5.25 6.75L4.125 5.625L3.375 6.375Z" fill="#E2E7F6"/>
</g>
<defs>
<clipPath id="clip0_221_2953">
<rect width="24" height="24" fill="white"/>
</clipPath>
</defs>
</svg>
