<svg width="33" height="32" viewBox="0 0 33 32" fill="none" xmlns="http://www.w3.org/2000/svg">
<path d="M16.5 17C12.2733 17 8.83333 13.56 8.83333 9.33334C8.83333 5.10667 12.2733 1.66667 16.5 1.66667C20.7267 1.66667 24.1667 5.10667 24.1667 9.33334C24.1667 13.56 20.7267 17 16.5 17ZM16.5 3.66667C13.38 3.66667 10.8333 6.21334 10.8333 9.33334C10.8333 12.4533 13.38 15 16.5 15C19.62 15 22.1667 12.4533 22.1667 9.33334C22.1667 6.21334 19.62 3.66667 16.5 3.66667Z" fill="#989898"/>
<path d="M5.04688 30.3333C4.50021 30.3333 4.04688 29.88 4.04688 29.3333C4.04688 23.64 9.63354 19 16.5002 19C17.8469 19 19.1669 19.1734 20.4469 19.5334C20.9802 19.68 21.2869 20.2267 21.1402 20.76C20.9936 21.2933 20.4469 21.6 19.9135 21.4534C18.8202 21.1467 17.6735 21 16.5002 21C10.7402 21 6.04688 24.7333 6.04688 29.3333C6.04688 29.88 5.59354 30.3333 5.04688 30.3333Z" fill="#989898"/>
<path d="M24.5 30.3333C22.9267 30.3333 21.4333 29.7467 20.2733 28.6934C19.8066 28.2934 19.3933 27.8 19.0733 27.2533C18.4867 26.2933 18.1667 25.16 18.1667 24C18.1667 22.3333 18.8067 20.7733 19.9533 19.5867C21.1533 18.3467 22.7667 17.6667 24.5 17.6667C26.3133 17.6667 28.0333 18.44 29.2067 19.7734C30.2467 20.9334 30.8333 22.4267 30.8333 24C30.8333 24.5067 30.7667 25.0133 30.6333 25.4933C30.5 26.0933 30.2466 26.72 29.9 27.2667C28.7933 29.16 26.7133 30.3333 24.5 30.3333ZM24.5 19.6667C23.3133 19.6667 22.22 20.1333 21.3933 20.9733C20.6067 21.7866 20.1667 22.8533 20.1667 24C20.1667 24.7867 20.38 25.56 20.7933 26.2267C21.0067 26.6 21.2866 26.9333 21.6066 27.2133C22.4066 27.9466 23.4333 28.3467 24.5 28.3467C26.0067 28.3467 27.4333 27.5467 28.2067 26.2533C28.4333 25.88 28.6067 25.4534 28.7 25.04C28.7933 24.6934 28.8333 24.36 28.8333 24.0134C28.8333 22.9467 28.4333 21.92 27.7133 21.12C26.9133 20.1867 25.74 19.6667 24.5 19.6667Z" fill="#989898"/>
<path d="M23.0598 26.3999C22.8065 26.3999 22.5531 26.3066 22.3531 26.1066C21.9665 25.7199 21.9665 25.0799 22.3531 24.6932L25.1665 21.8798C25.5531 21.4932 26.1931 21.4932 26.5798 21.8798C26.9665 22.2665 26.9665 22.9065 26.5798 23.2932L23.7665 26.1066C23.5665 26.3066 23.3131 26.3999 23.0598 26.3999Z" fill="#989898"/>
<path d="M25.9135 26.4265C25.6602 26.4265 25.4068 26.3332 25.2068 26.1332L22.3935 23.3199C22.0068 22.9332 22.0068 22.2932 22.3935 21.9065C22.7802 21.5199 23.4202 21.5199 23.8068 21.9065L26.6202 24.7198C27.0068 25.1065 27.0068 25.7465 26.6202 26.1332C26.4202 26.3332 26.1668 26.4265 25.9135 26.4265Z" fill="#989898"/>
</svg>
