<svg width="24" height="24" viewBox="0 0 24 24" fill="none" xmlns="http://www.w3.org/2000/svg">
<g clip-path="url(#clip0_221_2785)">
<path d="M7.47643 17.3097C6.84452 17.5853 6.10887 17.2964 5.83328 16.6646L5.62163 16.1792C5.12909 15.0499 5.39967 13.7296 6.29493 12.8937C6.96832 12.2649 7.13797 11.2538 6.7074 10.4349C6.23596 9.53822 5.16148 9.12106 4.20819 9.46462C3.19958 9.82745 2.63489 10.9164 2.92183 11.9426C2.94777 12.0352 2.98008 12.1258 3.01854 12.2139C3.29413 12.8458 3.00527 13.5815 2.37341 13.8571C1.74155 14.1327 1.00586 13.8438 0.730268 13.2119C0.645726 13.018 0.574678 12.8185 0.517633 12.6148C-0.11957 10.3357 1.12962 7.92006 3.36187 7.11602C5.48086 6.35244 7.86912 7.27981 8.91715 9.27322C9.86965 11.085 9.49201 13.3242 7.99873 14.7185C7.87521 14.8338 7.83959 15.0198 7.90999 15.1813L8.12165 15.6666C8.39714 16.2984 8.10833 17.0341 7.47643 17.3097ZM8.96122 20.714C8.32931 20.9896 7.59367 20.7008 7.31808 20.0689L7.31395 20.0595C7.03836 19.4275 7.32722 18.6919 7.95907 18.4163C8.59098 18.1407 9.32663 18.4296 9.60222 19.0614L9.60634 19.0709C9.88194 19.7028 9.59308 20.4385 8.96122 20.714Z" fill="#FFD15B"/>
<path d="M1.52878 12.1738C1.58574 12.3774 1.65683 12.5769 1.74151 12.7707C1.93792 13.2211 2.36793 13.4974 2.82751 13.5187C2.70416 13.665 2.54863 13.7808 2.37309 13.857C1.7416 14.1324 1.00563 13.8439 0.72999 13.2119C0.645497 13.018 0.574603 12.8184 0.517823 12.6147C-0.119896 10.3353 1.12976 7.9198 3.36173 7.11571C3.44132 7.08708 3.52175 7.06085 3.60291 7.03705C1.86428 8.06469 0.969205 10.1718 1.52878 12.1738ZM7.30608 12.4524C6.41095 13.2883 6.1401 14.609 6.63264 15.7383L6.84424 16.2235C7.04066 16.6738 7.47123 16.9499 7.93081 16.9712C7.80746 17.1175 7.65192 17.2333 7.47638 17.3095C6.84434 17.5852 6.10892 17.2964 5.83329 16.6644L5.62168 16.1792C5.12919 15.0499 5.39944 13.7295 6.29512 12.8933C6.96833 12.2644 7.13774 11.2539 6.70713 10.435C6.30243 9.66466 5.45288 9.2482 4.61724 9.36437C4.79711 9.21727 5.00078 9.10198 5.21947 9.02347C6.17286 8.67977 7.24715 9.09684 7.7186 9.99379C8.14926 10.8127 7.97928 11.8235 7.30608 12.4524ZM9.41555 20.3756C9.2922 20.5219 9.13667 20.6377 8.96113 20.7139C8.32908 20.9896 7.59367 20.7008 7.31803 20.0687L7.31381 20.059C7.03841 19.4276 7.32689 18.6916 7.95894 18.4159C8.13421 18.3391 8.32488 18.3039 8.51603 18.3131C8.2192 18.665 8.12858 19.1684 8.32477 19.6182L8.32899 19.6279C8.5254 20.0781 8.95597 20.3542 9.41555 20.3756Z" fill="#FFC344"/>
<path d="M17.4327 17.1881C16.7668 17.0096 16.3716 16.3252 16.5501 15.6593L16.6871 15.1479C17.006 13.9578 18.0406 13.0941 19.2617 12.9986C20.1802 12.9267 20.9432 12.2419 21.117 11.3332C21.3074 10.3381 20.7273 9.34216 19.7678 9.01645C18.7529 8.67139 17.6325 9.17087 17.2172 10.1521C17.1798 10.2407 17.1485 10.3317 17.1236 10.4246C16.9452 11.0904 16.2608 11.4856 15.5949 11.3072C14.929 11.1287 14.5339 10.4443 14.7123 9.7784C14.767 9.57407 14.8359 9.37377 14.9183 9.17893C15.8408 6.99965 18.3235 5.88955 20.5701 6.65243C22.7029 7.37636 23.9922 9.59028 23.569 11.8023C23.1844 13.8127 21.4932 15.3281 19.4564 15.4874C19.2879 15.5006 19.1441 15.6238 19.0985 15.794L18.9615 16.3055C18.783 16.9713 18.0985 17.3665 17.4327 17.1881ZM16.4713 20.7756C15.8055 20.5972 15.4103 19.9127 15.5887 19.2468L15.5914 19.2368C15.7698 18.5709 16.4543 18.1758 17.1202 18.3542C17.7861 18.5326 18.1812 19.2171 18.0028 19.883L18.0001 19.893C17.8217 20.5589 17.1372 20.954 16.4713 20.7756Z" fill="#6FD7A3"/>
<path d="M15.984 9.46473C15.9016 9.65949 15.8328 9.85977 15.7783 10.0641C15.6511 10.5386 15.8151 11.0228 16.1611 11.3259C15.9734 11.3635 15.7796 11.357 15.5949 11.3072C14.9294 11.1289 14.5338 10.4446 14.7123 9.77848C14.767 9.57419 14.836 9.37398 14.9187 9.17929C15.841 6.99945 18.3239 5.88977 20.5704 6.65242C20.6505 6.67964 20.7297 6.70926 20.808 6.74125C18.8079 6.46092 16.7945 7.55054 15.984 9.46473ZM20.3276 13.2841C19.1066 13.3797 18.0715 14.2435 17.7527 15.4335L17.6157 15.9448C17.4885 16.4193 17.6531 16.9037 17.9991 17.2068C17.8114 17.2444 17.6176 17.2379 17.4329 17.1881C16.7668 17.0096 16.3718 16.3254 16.5503 15.6594L16.6873 15.1481C17.0062 13.9581 18.0406 13.0941 19.2623 12.9987C20.1807 12.9266 20.9431 12.242 21.1169 11.3333C21.2807 10.4787 20.8761 9.62345 20.1503 9.1934C20.3776 9.1904 20.6083 9.22575 20.8337 9.3023C21.7934 9.62786 22.3734 10.6237 22.1829 11.619C22.0091 12.5276 21.2461 13.212 20.3276 13.2841ZM17.0379 20.7943C16.8502 20.8318 16.6564 20.8254 16.4717 20.7755C15.8056 20.5971 15.4106 19.9129 15.5891 19.2468L15.5918 19.2366C15.7701 18.5711 16.4545 18.1755 17.1205 18.354C17.3055 18.4032 17.4765 18.4945 17.6202 18.6208C17.1688 18.7109 16.7841 19.0481 16.6572 19.522L16.6544 19.5322C16.5273 20.0068 16.6918 20.4912 17.0379 20.7943Z" fill="#3EC3A4"/>
<path d="M12.5601 15.5294C11.7861 15.5294 11.1586 14.902 11.1586 14.128V13.5336C11.1586 12.1502 12.0297 10.9129 13.3262 10.4545C14.3014 10.1097 14.9298 9.14528 14.8542 8.10924C14.7716 6.97481 13.853 6.06323 12.7177 5.98889C11.5169 5.90957 10.447 6.7768 10.2817 7.96167C10.2669 8.06858 10.2594 8.17639 10.2594 8.28433C10.2594 9.05832 9.63198 9.68577 8.85799 9.68577C8.084 9.68577 7.45654 9.05832 7.45654 8.28433C7.45654 8.04708 7.47309 7.80819 7.50572 7.57437C7.87291 4.94291 10.2427 3.01757 12.9008 3.192C15.4243 3.35724 17.4658 5.38361 17.6497 7.90546C17.8168 10.1975 16.423 12.3324 14.2605 13.0971C14.0816 13.1603 13.9614 13.3357 13.9614 13.5336V14.128C13.9615 14.902 13.3341 15.5294 12.5601 15.5294ZM12.5601 19.6994C11.7861 19.6994 11.1586 19.072 11.1586 18.298V18.2863C11.1586 17.5124 11.7861 16.8849 12.5601 16.8849C13.3341 16.8849 13.9615 17.5124 13.9615 18.2863V18.298C13.9615 19.072 13.3341 19.6994 12.5601 19.6994Z" fill="#0573CE"/>
<path d="M8.74499 7.57462C8.71218 7.8098 8.69581 8.04698 8.696 8.28444C8.696 8.83604 9.01448 9.31344 9.47791 9.54164C9.2853 9.63684 9.07328 9.68619 8.85843 9.68583C8.08491 9.68583 7.45703 9.05862 7.45703 8.28444C7.45708 8.04697 7.47368 7.80978 7.50672 7.57462C7.87354 4.9426 10.2437 3.01763 12.9016 3.19192C12.9968 3.19821 13.0914 3.2073 13.1852 3.21921C10.9346 3.49644 9.06769 5.2632 8.74499 7.57462ZM14.5655 10.4544C13.2691 10.9129 12.3976 12.1505 12.3976 13.5338V14.1281C12.3976 14.6797 12.7168 15.1571 13.1802 15.3853C12.9876 15.4805 12.7756 15.5298 12.5608 15.5295C11.7866 15.5295 11.1594 14.9022 11.1594 14.1281V13.5338C11.1594 12.1505 12.0301 10.9129 13.3272 10.4544C14.3023 10.1093 14.9303 9.14543 14.8546 8.10945C14.784 7.13505 14.0965 6.32515 13.1845 6.06963C13.4356 5.99896 13.697 5.97174 13.9573 5.98914C15.0927 6.06335 16.0111 6.97473 16.0937 8.10945C16.1692 9.14543 15.5406 10.1093 14.5655 10.4544ZM13.1802 19.5551C12.9876 19.6503 12.7756 19.6997 12.5607 19.6993C11.7865 19.6993 11.1593 19.0721 11.1593 18.2979V18.286C11.1593 17.5126 11.7865 16.8846 12.5607 16.8846C12.7833 16.8846 12.9933 16.9364 13.1802 17.0288C12.7168 17.2577 12.3976 17.7351 12.3976 18.286V18.2979C12.3976 18.8495 12.7168 19.3269 13.1802 19.5551Z" fill="#0067C5"/>
<path d="M9.92446 18.9209C9.75359 18.5292 9.4405 18.2275 9.0427 18.0713C8.64494 17.9151 8.21011 17.9232 7.8185 18.094C7.42684 18.2648 7.12509 18.578 6.96889 18.9757C6.81274 19.3735 6.82081 19.8083 6.99144 20.1996L6.99571 20.2094C7.16657 20.6011 7.47967 20.9028 7.87751 21.059C8.06383 21.1325 8.2623 21.1704 8.46259 21.1706C8.67977 21.1706 8.89667 21.1257 9.10172 21.0363C9.49337 20.8655 9.79512 20.5523 9.95127 20.1546C10.1075 19.7568 10.0994 19.322 9.92872 18.9307L9.92446 18.9209ZM9.29677 19.8976C9.25403 20.0073 9.18993 20.1075 9.10821 20.1923C9.02648 20.2772 8.92874 20.3449 8.82064 20.3917C8.71278 20.4391 8.5966 20.4646 8.47882 20.4668C8.36103 20.469 8.24399 20.4478 8.13445 20.4044C8.02474 20.3617 7.92458 20.2977 7.83978 20.216C7.75498 20.1343 7.68722 20.0367 7.64041 19.9286L7.63614 19.9188C7.58874 19.811 7.5632 19.6948 7.56102 19.577C7.55884 19.4592 7.58006 19.3422 7.62344 19.2326C7.66618 19.1229 7.73028 19.0227 7.812 18.9379C7.89373 18.853 7.99147 18.7853 8.09957 18.7385C8.21252 18.689 8.33449 18.6634 8.45781 18.6632C8.56858 18.6632 8.67949 18.684 8.78572 18.7258C8.89543 18.7685 8.99558 18.8325 9.08038 18.9142C9.16518 18.9959 9.23295 19.0935 9.27975 19.2016L9.28402 19.2114C9.33141 19.3193 9.35694 19.4354 9.35913 19.5532C9.36132 19.671 9.34012 19.788 9.29677 19.8976ZM23.0556 8.0692C23.0007 7.99383 22.9181 7.94336 22.826 7.9289C22.7338 7.91443 22.6397 7.93715 22.5644 7.99206C22.489 8.04697 22.4385 8.12957 22.4241 8.22169C22.4096 8.31381 22.4323 8.4079 22.4872 8.48326C23.1714 9.42222 23.4399 10.6079 23.224 11.7362C22.8688 13.5918 21.3082 14.9902 19.4289 15.1368C19.113 15.1615 18.8439 15.3887 18.759 15.703L18.6221 16.2143C18.5919 16.3282 18.5394 16.435 18.4677 16.5285C18.396 16.622 18.3064 16.7004 18.2042 16.759C18.1024 16.8182 17.9898 16.8566 17.873 16.8719C17.7562 16.8873 17.6375 16.8793 17.5238 16.8484C17.41 16.8183 17.3032 16.7659 17.2097 16.6942C17.1163 16.6225 17.038 16.533 16.9794 16.4308C16.9202 16.3289 16.8818 16.2163 16.8665 16.0995C16.8511 15.9827 16.8591 15.864 16.89 15.7503L17.0268 15.2385C17.3072 14.1924 18.2164 13.4332 19.2891 13.3492C20.3651 13.2652 21.2588 12.4635 21.4625 11.3996C21.6855 10.2329 21.0054 9.06525 19.8807 8.68357C19.2469 8.46808 18.5592 8.53675 17.9855 8.83606C18.018 8.52217 18.0242 8.20261 18.0007 7.87995C17.978 7.56949 17.9284 7.26157 17.8526 6.95966C18.702 6.69283 19.6155 6.69958 20.4576 6.98535C20.7876 7.09743 21.1022 7.25072 21.3939 7.4416C21.4325 7.46692 21.4757 7.48438 21.5211 7.49298C21.5665 7.50158 21.6131 7.50115 21.6583 7.49171C21.7035 7.48228 21.7464 7.46403 21.7846 7.438C21.8227 7.41197 21.8553 7.37867 21.8806 7.34002C21.9059 7.30139 21.9233 7.25816 21.9319 7.21279C21.9405 7.16742 21.94 7.12081 21.9306 7.07561C21.9212 7.03041 21.9029 6.98752 21.8769 6.94937C21.8509 6.91123 21.8176 6.87858 21.779 6.85329C21.4378 6.62996 21.0697 6.45061 20.6836 6.3195C19.6985 5.98513 18.6301 5.97763 17.6376 6.29039C16.8805 4.37428 15.0646 2.98142 12.9241 2.84125C10.2304 2.66443 7.81315 4.50615 7.23581 7.0964C6.01297 6.43262 4.55659 6.31167 3.24271 6.78481C0.837952 7.65119 -0.507708 10.2536 0.179044 12.7087C0.240206 12.9284 0.31671 13.1435 0.407993 13.3525C0.578861 13.7443 0.891954 14.046 1.28971 14.2021C1.68742 14.3583 2.12211 14.3501 2.51386 14.1793C2.90552 14.0084 3.20722 13.6952 3.36337 13.2974C3.51952 12.8995 3.51141 12.4648 3.34064 12.0735C3.30882 12.0004 3.28201 11.9252 3.26038 11.8484C3.02267 10.9978 3.49121 10.0961 4.32731 9.79536C5.11654 9.51086 6.00599 9.85616 6.39633 10.5985C6.75312 11.2775 6.61262 12.1156 6.05464 12.6367C5.05058 13.5745 4.74714 15.0547 5.29964 16.3197L5.51115 16.805C5.77329 17.406 6.36267 17.7653 6.98028 17.7652C7.19325 17.7652 7.40963 17.7225 7.61702 17.6322C8.00863 17.4613 8.31038 17.1482 8.46653 16.7503C8.62268 16.3525 8.61457 15.9178 8.44384 15.5266L8.23233 15.0407C8.2208 15.0143 8.22628 14.987 8.23875 14.9754C8.38487 14.8388 8.52245 14.6933 8.65071 14.5397C8.68028 14.5043 8.70258 14.4633 8.71634 14.4193C8.73009 14.3752 8.73503 14.3288 8.73087 14.2828C8.72671 14.2369 8.71354 14.1922 8.6921 14.1513C8.67066 14.1104 8.64137 14.0741 8.60592 14.0445C8.57046 14.015 8.52953 13.9927 8.48545 13.9789C8.44138 13.9651 8.39503 13.9602 8.34905 13.9644C8.30306 13.9685 8.25835 13.9817 8.21746 14.0031C8.17657 14.0246 8.1403 14.0539 8.11073 14.0893C8.00125 14.2204 7.88379 14.3447 7.75901 14.4613C7.52659 14.6779 7.45778 15.0236 7.58772 15.3216L7.79928 15.8076C7.84668 15.9153 7.87222 16.0315 7.87441 16.1492C7.8766 16.2669 7.85539 16.3839 7.81203 16.4934C7.76931 16.6031 7.70525 16.7033 7.62357 16.7881C7.54188 16.873 7.44418 16.9408 7.33613 16.9876C6.88292 17.185 6.35335 16.977 6.15571 16.524L5.94415 16.0386C5.51068 15.0459 5.74797 13.8853 6.53467 13.1506C7.32347 12.4139 7.52256 11.23 7.01882 10.2713C6.46604 9.21994 5.20635 8.73092 4.08917 9.13373C2.90838 9.55844 2.2469 10.834 2.58347 12.0384C2.61385 12.1462 2.6515 12.2519 2.69617 12.3546C2.74357 12.4624 2.76911 12.5785 2.7713 12.6962C2.77348 12.814 2.75228 12.931 2.70892 13.0404C2.66619 13.1502 2.6021 13.2504 2.52037 13.3353C2.43864 13.4201 2.34089 13.4879 2.23279 13.5347C2.01326 13.6305 1.76964 13.635 1.54674 13.5475C1.32383 13.46 1.14833 13.2909 1.05265 13.0715C0.974456 12.8925 0.908917 12.7082 0.856515 12.52C0.268299 10.4171 1.4212 8.18845 3.48108 7.44634C4.68653 7.01226 6.03294 7.16292 7.12363 7.84447C7.11191 7.99087 7.10531 8.13792 7.10531 8.28441C7.10531 9.25102 7.89172 10.0374 8.85833 10.0374L8.86325 10.0373C9.16341 10.92 9.16266 11.8809 8.85509 12.7708C8.82464 12.8589 8.83044 12.9556 8.87123 13.0394C8.91202 13.1233 8.98445 13.1875 9.07258 13.2179C9.16072 13.2484 9.25734 13.2426 9.34119 13.2018C9.42505 13.161 9.48927 13.0886 9.51972 13.0005C9.86905 11.9897 9.87894 10.9 9.55577 9.89226C10.1762 9.62205 10.6113 9.00318 10.6113 8.28436C10.6113 8.1922 10.6177 8.10004 10.6301 8.01032C10.7703 7.0063 11.6775 6.27258 12.695 6.33975C13.6563 6.40271 14.4339 7.1744 14.5039 8.13483C14.5679 9.01326 14.0356 9.83085 13.2093 10.123C11.7726 10.6309 10.8073 12.0015 10.8073 13.5335V14.128C10.8073 15.0946 11.5937 15.881 12.5603 15.881C13.5269 15.881 14.3133 15.0946 14.3133 14.128V13.5335C14.3133 13.4852 14.3399 13.442 14.378 13.4285C16.0271 12.8454 17.2573 11.5168 17.7625 9.91387C18.2027 9.34956 18.9724 9.11733 19.6547 9.34928C20.4491 9.61887 20.9294 10.4435 20.772 11.2674C20.6277 12.0209 19.9955 12.5886 19.2344 12.648C17.8651 12.7552 16.7051 13.7231 16.3477 15.0565L16.2108 15.5682C16.1002 15.9809 16.1568 16.4121 16.3705 16.7822C16.5843 17.1525 16.9294 17.4172 17.342 17.5275C17.478 17.5641 17.6182 17.5827 17.759 17.5829C18.036 17.5829 18.3095 17.5101 18.556 17.3679C18.926 17.1542 19.1907 16.8092 19.3015 16.3962L19.4381 15.8855C19.446 15.8562 19.4675 15.839 19.4837 15.8377C21.678 15.6666 23.5001 14.0343 23.9147 11.8683C24.167 10.5496 23.854 9.16481 23.0556 8.0692ZM14.1436 12.7656C13.8245 12.8784 13.6101 13.1871 13.6101 13.5336V14.128C13.6101 14.7069 13.1392 15.1779 12.5603 15.1779C11.9814 15.1779 11.5105 14.7069 11.5105 14.128V13.5336C11.5105 12.299 12.2873 11.1948 13.4436 10.786C14.5678 10.3885 15.2922 9.27727 15.2051 8.08373C15.1098 6.77524 14.0504 5.72388 12.7412 5.63814C12.6828 5.63427 12.6242 5.63233 12.5657 5.63233C11.2548 5.63233 10.1164 6.60419 9.93379 7.91314C9.91669 8.03616 9.90812 8.16021 9.90814 8.28441C9.90814 8.8633 9.43717 9.33428 8.85828 9.33428C8.27935 9.33428 7.80842 8.8633 7.80842 8.28441C7.80842 8.06348 7.82384 7.84095 7.85426 7.62302C8.19623 5.17265 10.4027 3.38072 12.8782 3.54291C15.2275 3.69677 17.1282 5.5833 17.2994 7.9311C17.4549 10.0656 16.1572 12.0536 14.1436 12.7656ZM17.2114 18.0146C16.7986 17.904 16.3676 17.9607 15.9975 18.1744C15.6274 18.3881 15.3626 18.733 15.2523 19.1449L15.2494 19.1558C15.0211 20.0079 15.5285 20.8868 16.3806 21.1151C16.5155 21.1514 16.6546 21.1698 16.7942 21.1698C17.5005 21.1698 18.1487 20.6977 18.3402 19.9832L18.3426 19.9739C18.4533 19.5612 18.3965 19.13 18.1829 18.7599C17.9691 18.3899 17.6241 18.1252 17.2114 18.0146ZM17.6632 19.7927L17.6608 19.802C17.5328 20.2796 17.0401 20.5639 16.5626 20.436C16.085 20.308 15.8006 19.8154 15.9283 19.3387L15.9312 19.3279C15.9614 19.214 16.0139 19.1072 16.0856 19.0138C16.1573 18.9203 16.2468 18.842 16.349 18.7834C16.4508 18.7242 16.5634 18.6859 16.6802 18.6705C16.797 18.6551 16.9157 18.663 17.0294 18.6938C17.1432 18.724 17.25 18.7765 17.3434 18.8482C17.4369 18.9199 17.5152 19.0094 17.5738 19.1116C17.6936 19.319 17.7254 19.5606 17.6632 19.7927Z" fill="black"/>
<path d="M12.5601 16.5334C11.5935 16.5334 10.8071 17.3198 10.8071 18.2864V18.298C10.8071 19.2646 11.5935 20.0511 12.5601 20.0511C13.5267 20.0511 14.3131 19.2646 14.3131 18.298V18.2864C14.3131 17.3198 13.5267 16.5334 12.5601 16.5334ZM13.61 18.298C13.61 18.8769 13.139 19.3479 12.5601 19.3479C11.9812 19.3479 11.5103 18.8769 11.5103 18.298V18.2864C11.5103 17.7075 11.9813 17.2365 12.5601 17.2365C13.139 17.2365 13.61 17.7075 13.61 18.2864V18.298Z" fill="black"/>
</g>
<defs>
<clipPath id="clip0_221_2785">
<rect width="24" height="24" fill="white"/>
</clipPath>
</defs>
</svg>
