<svg width="24" height="24" viewBox="0 0 24 24" fill="none" xmlns="http://www.w3.org/2000/svg">
<path fill-rule="evenodd" clip-rule="evenodd" d="M10.7368 13.4488L9.5905 11.6488L11.849 9.1366L15.9856 13.4537H10.7368V13.4488ZM10.3466 13.4488L7.64416 9.19513L4.76123 13.4488H10.3466Z" fill="#0065A3"/>
<path fill-rule="evenodd" clip-rule="evenodd" d="M4.28302 13.6098V4.62928C4.28302 4.47318 4.40984 4.34635 4.56594 4.34635H16.2196C16.3757 4.34635 16.5025 4.47318 16.5025 4.62928V13.6098C16.5025 13.5805 16.4976 13.5561 16.4928 13.5317C16.4758 13.4738 16.4405 13.4229 16.3921 13.3868C16.3437 13.3508 16.2848 13.3314 16.2245 13.3317H4.56106C4.50069 13.3314 4.44186 13.3508 4.39346 13.3868C4.34506 13.4229 4.30972 13.4738 4.29277 13.5317C4.28789 13.5561 4.28302 13.5805 4.28302 13.6098ZM15.9318 16.4829H4.84399V13.8927H15.9367V16.4829H15.9318ZM3.59033 17.7854H17.1855V3.60489H3.59033V17.7854Z" fill="#DEDEFF"/>
<path fill-rule="evenodd" clip-rule="evenodd" d="M16.2149 13.8927H4.56125C4.40515 13.8927 4.27832 13.7659 4.27832 13.6098V4.62927C4.27832 4.47317 4.40515 4.34634 4.56125 4.34634H16.2149C16.371 4.34634 16.4978 4.47317 16.4978 4.62927V13.6098C16.493 13.7659 16.371 13.8927 16.2149 13.8927ZM4.84417 13.3317H15.9369V4.9122H4.84417V13.3317Z" fill="#333333"/>
<path fill-rule="evenodd" clip-rule="evenodd" d="M10.6487 13.8927C10.556 13.8927 10.4633 13.8488 10.4096 13.761L7.63891 9.40489L4.79501 13.6049C4.7072 13.7317 4.53159 13.7659 4.40476 13.6781C4.27793 13.5903 4.24379 13.4146 4.33159 13.2878L7.41452 8.73172C7.46818 8.65367 7.55598 8.60977 7.64867 8.60977C7.74135 8.60977 7.82915 8.65855 7.88281 8.74148L10.8828 13.4586C10.9657 13.5903 10.9267 13.761 10.795 13.8439C10.7511 13.8781 10.6974 13.8927 10.6487 13.8927Z" fill="#333333"/>
<path fill-rule="evenodd" clip-rule="evenodd" d="M16.2148 13.7268C16.1416 13.7268 16.0684 13.6976 16.0099 13.639L11.8538 9.30244L9.59525 11.8146C9.49281 11.9317 9.31232 11.9415 9.20013 11.8342C9.08305 11.7317 9.0733 11.5512 9.18061 11.439L11.6392 8.70244C11.6928 8.64391 11.766 8.60976 11.844 8.60976C11.9221 8.60976 11.9952 8.63903 12.0489 8.69757L16.4148 13.2537C16.5221 13.3659 16.5172 13.5463 16.405 13.6488C16.3562 13.7024 16.2831 13.7268 16.2148 13.7268ZM9.86842 8.48293C9.18549 8.48293 8.62939 7.92683 8.62939 7.24391C8.62939 6.56098 9.18549 6.00488 9.86842 6.00488C10.5513 6.00488 11.1074 6.56098 11.1074 7.24391C11.1074 7.92683 10.5513 8.48293 9.86842 8.48293ZM9.86842 6.56586C9.49281 6.56586 9.19037 6.8683 9.19037 7.24391C9.19037 7.61952 9.49281 7.92196 9.86842 7.92196C10.244 7.92196 10.5465 7.61952 10.5465 7.24391C10.5465 6.8683 10.2392 6.56586 9.86842 6.56586Z" fill="#333333"/>
<path fill-rule="evenodd" clip-rule="evenodd" d="M16.2149 17.0439H4.56125C4.40515 17.0439 4.27832 16.9171 4.27832 16.761V13.6098C4.27832 13.4537 4.40515 13.3268 4.56125 13.3268H16.2149C16.371 13.3268 16.4978 13.4537 16.4978 13.6098V16.761C16.493 16.9171 16.371 17.0439 16.2149 17.0439ZM4.84417 16.4829H15.9369V13.8927H4.84417V16.4829Z" fill="#333333"/>
<path fill-rule="evenodd" clip-rule="evenodd" d="M17.4683 18.3464H3.31222C3.15613 18.3464 3.0293 18.2195 3.0293 18.0634V3.32684C3.0293 3.17074 3.15613 3.04391 3.31222 3.04391H17.4683C17.6244 3.04391 17.7512 3.17074 17.7512 3.32684V18.0683C17.7464 18.2244 17.6195 18.3464 17.4683 18.3464ZM3.59027 17.7854H17.1854V3.60489H3.59027V17.7854Z" fill="#333333"/>
<path fill-rule="evenodd" clip-rule="evenodd" d="M19.6197 17.1366C19.4636 17.1366 19.3368 17.0098 19.3368 16.8537V9.29757H17.4636C17.3075 9.29757 17.1807 9.17074 17.1807 9.01465C17.1807 8.85855 17.3075 8.73172 17.4636 8.73172H19.6197C19.7758 8.73172 19.9026 8.85855 19.9026 9.01465V16.8537C19.9026 17.0098 19.7758 17.1366 19.6197 17.1366Z" fill="#333333"/>
<path fill-rule="evenodd" clip-rule="evenodd" d="M19.6197 19.8878H9.44894C9.29285 19.8878 9.16602 19.761 9.16602 19.6049V18.0634C9.16602 17.9073 9.29285 17.7805 9.44894 17.7805C9.60504 17.7805 9.73187 17.9073 9.73187 18.0634V19.322H19.3416V17.1317H17.4685C17.3124 17.1317 17.1855 17.0049 17.1855 16.8488C17.1855 16.6927 17.3124 16.5659 17.4685 16.5659H19.6246C19.7806 16.5659 19.9075 16.6927 19.9075 16.8488V19.6098C19.9026 19.7659 19.7758 19.8878 19.6197 19.8878Z" fill="#333333"/>
<path fill-rule="evenodd" clip-rule="evenodd" d="M20.7123 21.0293H8.35617C8.20007 21.0293 8.07324 20.9024 8.07324 20.7463V18.0683C8.07324 17.9122 8.20007 17.7854 8.35617 17.7854C8.51227 17.7854 8.6391 17.9122 8.6391 18.0683V20.4683H20.4342V8.16098H17.4684C17.3123 8.16098 17.1854 8.03415 17.1854 7.87805C17.1854 7.72195 17.3123 7.59512 17.4684 7.59512H20.7171C20.8732 7.59512 21.0001 7.72195 21.0001 7.87805V20.7463C20.9952 20.9024 20.8684 21.0293 20.7123 21.0293Z" fill="#333333"/>
<path fill-rule="evenodd" clip-rule="evenodd" d="M7.88277 8.74147L9.42424 11.1659L11.6389 8.70244C11.6925 8.64391 11.7657 8.60976 11.8437 8.60976C11.9218 8.60976 11.995 8.63903 12.0486 8.69757L15.9316 12.7463V4.9122H4.84375V12.5366L7.41448 8.73659C7.46814 8.65854 7.55594 8.61464 7.64863 8.61464C7.74131 8.61464 7.83399 8.66342 7.88277 8.74147ZM9.86814 8.48293C9.18521 8.48293 8.62912 7.92684 8.62912 7.24391C8.62912 6.56098 9.18521 6.00488 9.86814 6.00488C10.5511 6.00488 11.1072 6.56098 11.1072 7.24391C11.1072 7.92684 10.5511 8.48293 9.86814 8.48293Z" fill="#33DDFE"/>
<path d="M9.86799 7.92195C10.2425 7.92195 10.546 7.61838 10.546 7.24391C10.546 6.86943 10.2425 6.56586 9.86799 6.56586C9.49351 6.56586 9.18994 6.86943 9.18994 7.24391C9.18994 7.61838 9.49351 7.92195 9.86799 7.92195Z" fill="#FEF274"/>
<path fill-rule="evenodd" clip-rule="evenodd" d="M15.9316 13.8927H4.84375V16.4829H15.9316V13.8927ZM17.4681 18.3464H9.73155V19.3268H19.3413V17.1366H17.7511V18.0634C17.7462 18.2244 17.6194 18.3464 17.4681 18.3464Z" fill="#91E200"/>
<path fill-rule="evenodd" clip-rule="evenodd" d="M19.6192 19.8878H9.44842C9.29233 19.8878 9.1655 19.761 9.1655 19.6049V18.3463H8.63379V20.4634H20.4289V8.16098H17.7411V8.73659H19.6143C19.7704 8.73659 19.8972 8.86342 19.8972 9.01952V19.6098C19.9021 19.7659 19.7753 19.8878 19.6192 19.8878Z" fill="#DEDEFF"/>
<path fill-rule="evenodd" clip-rule="evenodd" d="M17.7461 9.29758H19.3363V16.5756H17.7461V9.29758Z" fill="#33DDFE"/>
</svg>
