<svg width="20" height="20" viewBox="0 0 20 20" fill="none" xmlns="http://www.w3.org/2000/svg">
<path d="M11.666 6.66691H15.8327M12.4993 10.0002H15.8327M14.166 13.3336H15.8327M14.166 17.5002H5.83268C2.49935 17.5002 1.66602 16.6669 1.66602 13.3336V6.66691C1.66602 3.33358 2.49935 2.50024 5.83268 2.50024H14.166C17.4993 2.50024 18.3327 3.33358 18.3327 6.66691V13.3336C18.3327 16.6669 17.4993 17.5002 14.166 17.5002Z" stroke="#989898" stroke-linecap="round" stroke-linejoin="round"/>
<path d="M9.99935 13.6085C9.94326 13.0236 9.68424 12.4767 9.26719 12.0627C8.85015 11.6487 8.30137 11.3936 7.71602 11.3418C7.29482 11.3002 6.87054 11.3002 6.44935 11.3418C5.86457 11.3952 5.31667 11.6507 4.89993 12.0644C4.48319 12.4781 4.22366 13.0241 4.16602 13.6085M7.08268 9.40851C7.48272 9.40851 7.86637 9.2496 8.14924 8.96673C8.4321 8.68386 8.59102 8.30021 8.59102 7.90018C8.59102 7.50014 8.4321 7.11649 8.14924 6.83363C7.86637 6.55076 7.48272 6.39185 7.08268 6.39185C6.68265 6.39185 6.299 6.55076 6.01613 6.83363C5.73326 7.11649 5.57435 7.50014 5.57435 7.90018C5.57435 8.30021 5.73326 8.68386 6.01613 8.96673C6.299 9.2496 6.68265 9.40851 7.08268 9.40851Z" stroke="#989898" stroke-linecap="round" stroke-linejoin="round"/>
</svg>
