<svg width="20" height="20" viewBox="0 0 20 20" fill="none" xmlns="http://www.w3.org/2000/svg">
<path d="M9.99991 11.6276C8.40241 11.6276 7.09741 10.3301 7.09741 8.72508C7.09741 7.12008 8.40241 5.83008 9.99991 5.83008C11.5974 5.83008 12.9024 7.12758 12.9024 8.73258C12.9024 10.3376 11.5974 11.6276 9.99991 11.6276ZM9.99991 6.95508C9.02491 6.95508 8.22241 7.75008 8.22241 8.73258C8.22241 9.71508 9.01741 10.5101 9.99991 10.5101C10.9824 10.5101 11.7774 9.71508 11.7774 8.73258C11.7774 7.75008 10.9749 6.95508 9.99991 6.95508Z" fill="#989898"/>
<path d="M10 18.07C8.89001 18.07 7.77251 17.65 6.90251 16.8175C4.69001 14.6875 2.24501 11.29 3.16751 7.2475C4.00001 3.58 7.20251 1.9375 10 1.9375C10 1.9375 10 1.9375 10.0075 1.9375C12.805 1.9375 16.0075 3.58 16.84 7.255C17.755 11.2975 15.31 14.6875 13.0975 16.8175C12.2275 17.65 11.11 18.07 10 18.07ZM10 3.0625C7.81751 3.0625 5.01251 4.225 4.27001 7.495C3.46001 11.0275 5.68001 14.0725 7.69001 16C8.98751 17.2525 11.02 17.2525 12.3175 16C14.32 14.0725 16.54 11.0275 15.745 7.495C14.995 4.225 12.1825 3.0625 10 3.0625Z" fill="#989898"/>
</svg>
