<svg width="24" height="24" viewBox="0 0 24 24" fill="none" xmlns="http://www.w3.org/2000/svg">
<path d="M20 9.6C20 5.6 18.4 4 14.4 4H9.6C5.6 4 4 5.6 4 9.6V14.4C4 18.4 5.6 20 9.6 20" stroke="#989898" stroke-width="1.5" stroke-linecap="round" stroke-linejoin="round"/>
<path d="M16.35 8C15.8 7.3 14.88 7 13.5 7H10.5C8 7 7 8 7 10.5V13.5C7 14.88 7.3 15.8 7.99 16.35M8.01 4V2M12 4V2M16 4V2M20 8H22M8.01 20V22M2 8H4M2 12H4M2 16H4" stroke="#989898" stroke-width="1.5" stroke-linecap="round" stroke-linejoin="round"/>
<path d="M16.7101 18.59C16.9189 18.59 17.1257 18.5489 17.3186 18.469C17.5115 18.3891 17.6868 18.2719 17.8344 18.1243C17.9821 17.9767 18.0992 17.8014 18.1791 17.6085C18.259 17.4156 18.3001 17.2088 18.3001 17C18.3001 16.7912 18.259 16.5844 18.1791 16.3915C18.0992 16.1986 17.9821 16.0233 17.8344 15.8757C17.6868 15.7281 17.5115 15.6109 17.3186 15.531C17.1257 15.4511 16.9189 15.41 16.7101 15.41C16.2884 15.41 15.884 15.5775 15.5858 15.8757C15.2876 16.1739 15.1201 16.5783 15.1201 17C15.1201 17.4217 15.2876 17.8261 15.5858 18.1243C15.884 18.4225 16.2884 18.59 16.7101 18.59Z" stroke="#989898" stroke-width="1.5" stroke-miterlimit="10" stroke-linecap="round" stroke-linejoin="round"/>
<path d="M11.4102 17.462V16.532C11.4102 15.982 11.8602 15.532 12.4102 15.532C13.3702 15.532 13.7602 14.852 13.2802 14.022C13.2141 13.9079 13.1712 13.7818 13.154 13.651C13.1368 13.5202 13.1457 13.3873 13.1801 13.26C13.2145 13.1327 13.2737 13.0134 13.3544 12.909C13.4351 12.8047 13.5356 12.7173 13.6502 12.652L14.5602 12.122C14.9802 11.872 15.5202 12.022 15.7702 12.442L15.8302 12.542C16.3102 13.372 17.0902 13.372 17.5702 12.542L17.6302 12.442C17.8802 12.022 18.4202 11.882 18.8402 12.122L19.7502 12.652C20.2302 12.932 20.4002 13.542 20.1202 14.022C19.6402 14.852 20.0302 15.532 20.9902 15.532C21.5402 15.532 21.9902 15.982 21.9902 16.532V17.462C21.9902 18.012 21.5402 18.462 20.9902 18.462C20.0302 18.462 19.6402 19.142 20.1202 19.972C20.1863 20.0861 20.2292 20.2122 20.2464 20.343C20.2636 20.4738 20.2547 20.6067 20.2203 20.734C20.1859 20.8613 20.1267 20.9806 20.046 21.085C19.9653 21.1893 19.8648 21.2767 19.7502 21.342L18.8402 21.872C18.4202 22.122 17.8802 21.972 17.6302 21.552L17.5702 21.452C17.0902 20.622 16.3102 20.622 15.8302 21.452L15.7702 21.552C15.5202 21.972 14.9802 22.112 14.5602 21.872L13.6502 21.342C13.1702 21.062 13.0002 20.452 13.2802 19.972C13.7602 19.142 13.3702 18.462 12.4102 18.462C12.2785 18.4633 12.1479 18.4384 12.0259 18.3886C11.904 18.3388 11.7932 18.2652 11.7001 18.1721C11.607 18.079 11.5334 17.9682 11.4836 17.8463C11.4338 17.7243 11.4089 17.5937 11.4102 17.462Z" stroke="#989898" stroke-width="1.5" stroke-miterlimit="10" stroke-linecap="round" stroke-linejoin="round"/>
</svg>
