<svg width="20" height="20" viewBox="0 0 20 20" fill="none" xmlns="http://www.w3.org/2000/svg">
<path d="M10.1197 9.715C10.0972 9.715 10.0822 9.715 10.0597 9.715C10.0222 9.7075 9.96968 9.7075 9.92468 9.715C7.74968 9.6475 6.10718 7.9375 6.10718 5.83C6.10718 3.685 7.85468 1.9375 9.99968 1.9375C12.1447 1.9375 13.8922 3.685 13.8922 5.83C13.8847 7.9375 12.2347 9.6475 10.1422 9.715C10.1347 9.715 10.1272 9.715 10.1197 9.715ZM9.99968 3.0625C8.47718 3.0625 7.23218 4.3075 7.23218 5.83C7.23218 7.33 8.40218 8.5375 9.89468 8.59C9.93218 8.5825 10.0372 8.5825 10.1347 8.59C11.6047 8.5225 12.7597 7.315 12.7672 5.83C12.7672 4.3075 11.5222 3.0625 9.99968 3.0625Z" fill="#989898"/>
<path d="M10.1272 17.9125C8.65721 17.9125 7.17971 17.5375 6.06221 16.7875C5.01971 16.0975 4.44971 15.1525 4.44971 14.125C4.44971 13.0975 5.01971 12.145 6.06221 11.4475C8.31221 9.955 11.9572 9.955 14.1922 11.4475C15.2272 12.1375 15.8047 13.0825 15.8047 14.11C15.8047 15.1375 15.2347 16.09 14.1922 16.7875C13.0672 17.5375 11.5972 17.9125 10.1272 17.9125ZM6.68471 12.3925C5.96471 12.8725 5.57471 13.4875 5.57471 14.1325C5.57471 14.77 5.97221 15.385 6.68471 15.8575C8.55221 17.11 11.7022 17.11 13.5697 15.8575C14.2897 15.3775 14.6797 14.7625 14.6797 14.1175C14.6797 13.48 14.2822 12.865 13.5697 12.3925C11.7022 11.1475 8.55221 11.1475 6.68471 12.3925Z" fill="#989898"/>
</svg>
