<svg width="24" height="24" viewBox="0 0 24 24" fill="none" xmlns="http://www.w3.org/2000/svg">
<g clip-path="url(#clip0_221_2888)">
<path d="M12.0001 23.6473C18.1328 23.6473 23.1042 18.6758 23.1042 12.5432C23.1042 6.41054 18.1328 1.43906 12.0001 1.43906C5.86748 1.43906 0.895996 6.41054 0.895996 12.5432C0.895996 18.6758 5.86748 23.6473 12.0001 23.6473Z" fill="#F8D250"/>
<path d="M1.98856 12.5432C1.98856 6.59376 6.66753 1.73742 12.5464 1.45256C12.3644 1.44365 12.1823 1.43915 12.0001 1.43906C5.86747 1.43906 0.895996 6.41057 0.895996 12.5432C0.895996 18.6758 5.86747 23.6473 12.0001 23.6473C12.1833 23.6473 12.3654 23.6426 12.5464 23.6338C6.66757 23.349 1.98856 18.4927 1.98856 12.5432Z" fill="#F8AE46"/>
<path d="M15.7572 13.4715L13.5331 13.2079H10.3361L8.23462 13.4649C7.09936 13.6038 6.24609 14.5678 6.24609 15.7116V22.042C7.92417 23.0607 9.89363 23.6473 12.0001 23.6473C14.1066 23.6473 16.0761 23.0607 17.7541 22.042V15.7192C17.7541 14.5722 16.8962 13.6065 15.7572 13.4715Z" fill="#68C0E0"/>
<path d="M10.3361 13.2079L8.23462 13.4649C7.09936 13.6038 6.24609 14.5678 6.24609 15.7116V22.042C6.59938 22.2564 6.96441 22.4509 7.33945 22.6244L7.3387 22.624V15.7116C7.3387 14.5679 8.19197 13.6038 9.32723 13.4649L11.4287 13.2079H10.3361Z" fill="#3282A1"/>
<path d="M15.2411 18.3969V23.1663C16.1223 22.8978 16.9666 22.5201 17.7541 22.0421V18.3969H15.2411ZM6.24609 18.3969V22.0421C7.03359 22.5202 7.87782 22.8978 8.75911 23.1663V18.3969H6.24609Z" fill="#FFCEBF"/>
<path d="M16.2786 3.10851V2.74387C16.2786 1.42326 15.208 0.352678 13.8874 0.352678H10.5359V0.352631H6.64844C6.6475 1.06701 6.86513 1.76459 7.27211 2.35171C7.12102 2.72806 7.0435 3.12989 7.04374 3.53544V7.0168H16.9569V4.61624C16.9569 4.01629 16.6945 3.47783 16.2786 3.10851Z" fill="#494A47"/>
<path d="M10.1191 12.7542V12.8466C10.1191 13.8495 10.9322 14.6624 11.9351 14.6623C12.9377 14.6621 13.7505 13.8493 13.7505 12.8466V12.7542H10.1191Z" fill="#FFB09E"/>
<path d="M14.5716 3.22763C11.9859 4.40133 9.00122 3.87085 9.00122 3.87085C8.98603 5.46572 7.82812 6.52294 7.82812 6.52294V9.02176C7.82812 11.2897 9.66661 13.1282 11.9345 13.1282C14.2024 13.1282 16.0409 11.2897 16.0409 9.02176V6.52294C14.6286 5.81138 14.5716 3.22763 14.5716 3.22763Z" fill="#FFCEBF"/>
<path d="M8.92073 9.02176V6.52294C8.92073 6.52294 10.0265 5.51237 10.0904 3.97716C9.42459 3.94604 9.00122 3.87085 9.00122 3.87085C8.98603 5.46572 7.82812 6.52294 7.82812 6.52294V9.02176C7.82812 11.2897 9.66661 13.1282 11.9345 13.1282C12.1198 13.1282 12.3021 13.1157 12.4808 13.092C10.4712 12.8247 8.92073 11.1044 8.92073 9.02176ZM16.4269 7.01686H16.041V8.6049H16.4269C16.8654 8.6049 17.2209 8.2494 17.2209 7.81088C17.2209 7.37232 16.8654 7.01686 16.4269 7.01686Z" fill="#FFB09E"/>
<path d="M7.4423 7.01688C7.00378 7.01688 6.64828 7.37233 6.64828 7.81089C6.64828 8.24941 7.00378 8.60491 7.4423 8.60491H7.82822V7.01688H7.4423ZM6.24609 18.3969V22.0421C6.59916 22.2562 6.96391 22.4503 7.33866 22.6237V18.3969H6.24609Z" fill="#FFB09E"/>
<path d="M12.6976 9.00656C12.6325 8.89317 12.4424 8.16623 12.3035 7.5577C12.2897 7.49709 12.2524 7.44446 12.1997 7.41139C12.1471 7.37831 12.0835 7.3675 12.0229 7.38133C11.9623 7.39516 11.9096 7.4325 11.8765 7.48514C11.8435 7.53777 11.8327 7.60139 11.8465 7.662C11.9108 7.94362 12.1123 8.805 12.2481 9.14606C12.1552 9.21318 11.9495 9.31209 11.7578 9.37837C11.6998 9.3992 11.6523 9.44205 11.6256 9.49766C11.5989 9.55326 11.5952 9.61714 11.6153 9.67544C11.6354 9.73374 11.6777 9.78177 11.733 9.80913C11.7882 9.83648 11.8521 9.84095 11.9106 9.82157C12.4943 9.62034 12.6747 9.41897 12.7233 9.28547C12.7578 9.19059 12.7486 9.09145 12.6976 9.00656ZM13.5385 10.2346C13.5236 10.2076 13.5036 10.1839 13.4795 10.1647C13.4554 10.1455 13.4278 10.1313 13.3982 10.1227C13.3687 10.1142 13.3377 10.1116 13.3071 10.115C13.2765 10.1185 13.2469 10.1279 13.22 10.1428C11.8269 10.9127 10.7074 10.233 10.6604 10.2037C10.6343 10.1872 10.6053 10.1761 10.575 10.1708C10.5447 10.1656 10.5136 10.1664 10.4836 10.1732C10.4536 10.1799 10.4252 10.1925 10.4 10.2103C10.3749 10.228 10.3535 10.2506 10.337 10.2766C10.3206 10.3026 10.3094 10.3316 10.3042 10.3619C10.299 10.3923 10.2998 10.4233 10.3065 10.4534C10.3133 10.4834 10.3259 10.5118 10.3437 10.5369C10.3614 10.5621 10.3839 10.5835 10.41 10.5999C10.4463 10.623 11.0203 10.9777 11.867 10.9777C12.3272 10.9777 12.868 10.8729 13.4468 10.5531C13.5011 10.523 13.5414 10.4725 13.5586 10.4128C13.5758 10.3531 13.5686 10.289 13.5385 10.2346Z" fill="black"/>
<path d="M10.1199 7.66534C10.345 7.66534 10.5275 7.48288 10.5275 7.25781C10.5275 7.03274 10.345 6.85028 10.1199 6.85028C9.89486 6.85028 9.7124 7.03274 9.7124 7.25781C9.7124 7.48288 9.89486 7.66534 10.1199 7.66534Z" fill="black"/>
<path d="M11.0444 6.18465C10.3565 5.59871 9.51147 5.9206 9.1607 6.17275C9.11054 6.20914 9.07684 6.26392 9.06696 6.3251C9.05708 6.38628 9.07184 6.44888 9.108 6.49921C9.14416 6.54954 9.19879 6.5835 9.25992 6.59365C9.32106 6.60381 9.38372 6.58935 9.43422 6.55342C9.43605 6.55215 9.62148 6.42217 9.87859 6.35715C10.2089 6.27367 10.4988 6.33573 10.7403 6.54151C10.7638 6.56147 10.7909 6.57662 10.8202 6.5861C10.8495 6.59557 10.8803 6.59919 10.911 6.59673C10.9417 6.59428 10.9716 6.5858 10.999 6.57179C11.0264 6.55778 11.0508 6.53851 11.0708 6.51507C11.0907 6.49165 11.1059 6.46452 11.1154 6.43523C11.1249 6.40595 11.1285 6.37508 11.126 6.3444C11.1236 6.31371 11.1151 6.28381 11.1011 6.2564C11.0871 6.22899 11.0678 6.20461 11.0444 6.18465Z" fill="black"/>
<path d="M13.7493 7.66534C13.9744 7.66534 14.1569 7.48288 14.1569 7.25781C14.1569 7.03274 13.9744 6.85028 13.7493 6.85028C13.5243 6.85028 13.3418 7.03274 13.3418 7.25781C13.3418 7.48288 13.5243 7.66534 13.7493 7.66534Z" fill="black"/>
<path d="M14.7086 6.17278C14.3579 5.92073 13.5128 5.59875 12.8249 6.18468C12.8013 6.20459 12.7819 6.22897 12.7678 6.25641C12.7536 6.28385 12.745 6.31381 12.7425 6.34458C12.74 6.37535 12.7435 6.40631 12.753 6.4357C12.7625 6.46508 12.7776 6.4923 12.7977 6.5158C12.8177 6.5393 12.8422 6.55861 12.8697 6.57263C12.8972 6.58665 12.9272 6.59509 12.9579 6.59748C12.9887 6.59987 13.0197 6.59615 13.049 6.58654C13.0784 6.57694 13.1055 6.56163 13.1289 6.5415C13.7065 6.0494 14.4048 6.53203 14.4356 6.55382C14.4769 6.58326 14.5245 6.59747 14.5716 6.59747C14.6089 6.59752 14.6456 6.58869 14.6787 6.57171C14.7118 6.55472 14.7404 6.53008 14.7621 6.49982C14.7801 6.47484 14.793 6.44656 14.8 6.4166C14.807 6.38663 14.8081 6.35558 14.8031 6.32521C14.7981 6.29484 14.7872 6.26575 14.771 6.23959C14.7548 6.21344 14.7336 6.19073 14.7086 6.17278Z" fill="black"/>
<path d="M21.3744 6.1628C20.1429 4.35689 18.4363 2.95613 16.4338 2.10488C16.1476 0.96502 15.1146 0.118364 13.8873 0.118364L10.5357 0.118317H6.64831C6.58615 0.118317 6.52653 0.14301 6.48258 0.186963C6.43863 0.230917 6.41393 0.290532 6.41393 0.352692C6.41393 0.985598 6.57101 1.59891 6.87106 2.14772C6.87199 2.14955 6.87242 2.15147 6.8734 2.15325C6.91294 2.22517 6.95481 2.29579 6.99893 2.36499C5.14503 3.27746 3.57556 4.67747 2.45506 6.42085C1.28178 8.2463 0.661621 10.3634 0.661621 12.5432C0.661621 15.5719 1.84104 18.4192 3.98262 20.5608C6.1242 22.7024 8.97153 23.8818 12.0002 23.8818C15.0288 23.8818 17.8761 22.7024 20.0177 20.5608C22.1593 18.4192 23.3387 15.5719 23.3387 12.5432C23.3387 10.2535 22.6594 8.04718 21.3744 6.1628ZM6.89093 0.58702L13.8873 0.587067C15.0765 0.587067 16.0441 1.55461 16.0441 2.74388V3.10852C16.0441 3.1755 16.0727 3.2393 16.1229 3.28379C16.3112 3.45098 16.462 3.65617 16.5653 3.88584C16.6687 4.11551 16.7222 4.36446 16.7224 4.6163V6.78249H16.2755V6.52294C16.2755 6.47954 16.2635 6.43699 16.2407 6.40003C16.2179 6.36307 16.1854 6.33317 16.1466 6.31364C14.8793 5.67521 14.8069 3.25421 14.8061 3.22247C14.8052 3.18371 14.7948 3.14577 14.7757 3.11205C14.7565 3.07833 14.7293 3.04987 14.6965 3.02923C14.6637 3.0086 14.6263 2.99642 14.5876 2.9938C14.5489 2.99118 14.5102 2.99819 14.4749 3.01421C11.9886 4.14277 9.07137 3.64524 9.04231 3.64008C8.97439 3.62794 8.90464 3.64646 8.85162 3.69047C8.7986 3.73449 8.76762 3.79969 8.76692 3.8686C8.75295 5.33733 7.68073 6.34013 7.67023 6.34983C7.64617 6.37179 7.62696 6.39852 7.61381 6.42832C7.60066 6.45811 7.59387 6.49032 7.59387 6.52289V6.78244H7.27798V3.5355C7.27798 3.3008 7.30559 3.06943 7.36011 2.84391C7.65055 3.17128 7.99597 3.44538 8.38076 3.65386C8.40782 3.66854 8.4375 3.67775 8.46812 3.68095C8.49873 3.68415 8.52968 3.68128 8.55919 3.67252C8.5887 3.66375 8.61619 3.64925 8.64009 3.62985C8.66399 3.61045 8.68383 3.58653 8.69848 3.55946C8.7281 3.50481 8.73479 3.44064 8.7171 3.38106C8.6994 3.32147 8.65876 3.27136 8.60412 3.24174C8.15305 2.99764 7.76537 2.65136 7.47209 2.2306C7.46965 2.22652 7.46745 2.2223 7.46473 2.21836C7.12854 1.7326 6.93232 1.17282 6.89093 0.58702ZM16.9866 7.81088C16.9866 8.11946 16.7356 8.37052 16.427 8.37052H16.2755V7.25124H16.427C16.7355 7.25124 16.9866 7.5023 16.9866 7.81088ZM11.9347 12.8938C9.79962 12.8938 8.06262 11.1568 8.06262 9.02175V6.62129C8.3171 6.36085 9.11323 5.44932 9.2232 4.14033C9.98323 4.2376 12.2406 4.42299 14.3592 3.57314C14.427 4.30257 14.7019 5.99213 15.8067 6.66085V9.02175C15.8067 11.1568 14.0697 12.8938 11.9347 12.8938ZM13.5 13.0703C13.391 13.8366 12.7308 14.4278 11.9349 14.4278H11.9346C11.5123 14.4278 11.1153 14.2634 10.8166 13.9648C10.5712 13.7196 10.4167 13.4078 10.3692 13.0703C10.8684 13.2639 11.3992 13.363 11.9346 13.3625C12.47 13.363 13.0009 13.2639 13.5 13.0703ZM7.44237 7.25124H7.59387V8.37052H7.44237C7.13379 8.37052 6.88273 8.11946 6.88273 7.81088C6.88268 7.5023 7.13379 7.25124 7.44237 7.25124ZM6.01175 21.6182C5.40089 21.2131 4.83216 20.7478 4.31407 20.2293C2.261 18.1763 1.13037 15.4466 1.13037 12.5432C1.13037 10.4534 1.72479 8.42396 2.84937 6.67425C3.85273 5.11313 5.23151 3.83916 6.85718 2.96499C6.82527 3.15348 6.80923 3.34433 6.80923 3.5355V7.00135C6.56885 7.18979 6.41393 7.48247 6.41393 7.81088C6.41393 8.37797 6.87528 8.83927 7.44232 8.83927H7.59382V9.02175C7.59382 10.6742 8.52214 12.1139 9.88456 12.847C9.88456 12.9071 9.8876 12.9668 9.89271 13.026L8.20615 13.2323C6.95515 13.3853 6.01175 14.4512 6.01175 15.7116V21.6182ZM8.52476 22.8477C7.81245 22.6081 7.12727 22.2944 6.4805 21.9117V18.6312H8.52476V22.8477ZM17.5198 21.9118C16.8731 22.2945 16.1879 22.6082 15.4756 22.8477V18.6312H17.5198V21.9118ZM17.5198 18.1625H15.4756V16.6926C15.4756 16.6304 15.4509 16.5708 15.4069 16.5268C15.363 16.4829 15.3034 16.4582 15.2412 16.4582C15.179 16.4582 15.1194 16.4829 15.0755 16.5268C15.0315 16.5708 15.0068 16.6304 15.0068 16.6926V22.9933C14.0415 23.2696 13.0319 23.413 12.0002 23.413C10.9684 23.413 9.95886 23.2695 8.99351 22.9933V16.6925C8.99351 16.6304 8.96882 16.5707 8.92486 16.5268C8.88091 16.4828 8.8213 16.4581 8.75914 16.4581C8.69698 16.4581 8.63736 16.4828 8.59341 16.5268C8.54945 16.5707 8.52476 16.6304 8.52476 16.6925V18.1624H6.4805V15.7116C6.4805 14.6877 7.24686 13.8219 8.26311 13.6976L9.98665 13.4867C10.0867 13.7921 10.2575 14.0695 10.4851 14.2963C10.8724 14.6835 11.387 14.8966 11.9346 14.8966H11.935C12.8422 14.8965 13.6132 14.3037 13.8823 13.4853L15.7296 13.7043C16.7502 13.8253 17.5198 14.6915 17.5198 15.7192L17.5198 18.1625ZM19.6863 20.2293C19.1682 20.7478 18.5994 21.2131 17.9886 21.6182V15.7192C17.9886 14.4541 17.0412 13.3877 15.7849 13.2388L13.9765 13.0244C13.9816 12.9659 13.9847 12.9068 13.9847 12.847C15.3471 12.1139 16.2754 10.6743 16.2754 9.0218V8.83932H16.4269C16.994 8.83932 17.4553 8.37797 17.4553 7.81093C17.4553 7.5375 17.3479 7.28893 17.1732 7.10452C17.1844 7.07738 17.1911 7.04804 17.1911 7.01691V4.6163C17.1909 4.31634 17.1308 4.01945 17.0143 3.74303C16.8978 3.46662 16.7273 3.21625 16.5127 3.00661V2.74388C16.5127 2.71252 16.5115 2.68144 16.5103 2.65032C18.318 3.4748 19.8599 4.77404 20.9871 6.42685C22.2188 8.23313 22.8699 10.3481 22.8699 12.5432C22.87 15.4466 21.7393 18.1763 19.6863 20.2293Z" fill="black"/>
</g>
<defs>
<clipPath id="clip0_221_2888">
<rect width="24" height="24" fill="white"/>
</clipPath>
</defs>
</svg>
