<svg width="24" height="24" viewBox="0 0 24 24" fill="none" xmlns="http://www.w3.org/2000/svg">
<g clip-path="url(#clip0_221_2845)">
<path d="M22.0416 13.207L15.0661 1.39142C14.8475 1.02097 14.4616 0.800842 14.0322 0.800842L14.0206 0.800889C13.5874 0.804874 13.2012 1.03198 12.9873 1.40858L11.3506 4.38589C11.7092 4.45998 12.0626 4.55717 12.4086 4.67684C12.8181 4.79642 13.2717 4.99972 13.7948 5.29803C14.5425 5.71559 15.2216 6.2412 15.8194 6.86614C16.5698 7.6505 17.1579 8.55528 17.5676 9.5554C17.9917 10.591 18.2068 11.6883 18.2068 12.8166C18.2068 13.5657 18.1102 14.3052 17.9219 15.019H21.0073C21.444 15.019 21.834 14.7926 22.0505 14.4132C22.2669 14.0341 22.2636 13.5831 22.0416 13.207Z" fill="#FFDA8C"/>
<path d="M22.7313 12.7999L15.7558 0.984275C15.5697 0.669041 15.3047 0.412119 14.9895 0.241307C14.6926 0.080338 14.3554 -0.00309948 14.0133 8.80235e-05C13.6716 0.00322865 13.3356 0.0928537 13.0417 0.25926C12.7296 0.435885 12.4694 0.697635 12.2892 1.01624L12.2868 1.02056L10.5085 4.25549C10.3756 4.24157 10.2421 4.23065 10.108 4.22287C10.0492 4.20615 9.98735 4.20307 9.9272 4.21387C9.81737 4.20951 9.70745 4.20738 9.59753 4.20749C8.4355 4.20749 7.30802 4.43521 6.24634 4.88423C5.73434 5.10101 5.24453 5.36687 4.7838 5.6781C4.32798 5.98603 3.89941 6.33965 3.50992 6.72913C3.12044 7.11862 2.76681 7.5472 2.45889 8.00301C2.14767 8.46375 1.8818 8.95356 1.66502 9.46556C1.21595 10.5272 0.988281 11.6547 0.988281 12.8167C0.988281 13.9788 1.21595 15.1063 1.66502 16.1679C1.88179 16.6799 2.14766 17.1697 2.45889 17.6305C2.76681 18.0862 3.12044 18.5149 3.50992 18.9044C3.89941 19.2938 4.32798 19.6475 4.7838 19.9554C5.24454 20.2666 5.73434 20.5325 6.24634 20.7493C7.30797 21.1983 8.4355 21.426 9.59753 21.426C10.3128 21.426 11.024 21.338 11.7113 21.1645C12.2832 21.0199 12.8386 20.8167 13.3688 20.558L16.1074 23.2972C16.3342 23.5246 16.6045 23.704 16.9022 23.8244C17.1901 23.941 17.4942 24.0001 17.8061 24.0001C18.118 24.0001 18.4222 23.941 18.71 23.8244C19.0078 23.704 19.2781 23.5246 19.5048 23.2972L19.677 23.125C20.6137 22.1884 20.6137 20.6643 19.6771 19.7277L17.0609 17.111C17.2988 16.6983 17.5019 16.2665 17.668 15.82H21.0073C21.3755 15.82 21.7332 15.7214 22.0417 15.5349C22.3322 15.3593 22.5757 15.1088 22.746 14.8105C22.9163 14.5122 23.0082 14.1751 23.0117 13.8357C23.0155 13.4751 22.9185 13.117 22.7313 12.7999ZM21.0072 15.0191H17.9218C18.1113 14.3003 18.207 13.56 18.2067 12.8167C18.2067 11.6883 17.9917 10.5911 17.5675 9.55551C17.1579 8.55538 16.5697 7.6506 15.8193 6.86624C15.2215 6.24131 14.5424 5.7157 13.7948 5.29813C13.2717 4.99978 12.818 4.79653 12.4085 4.67695C12.0625 4.55727 11.7091 4.46008 11.3505 4.38599L12.9872 1.40868C13.2012 1.03209 13.5873 0.804979 14.0206 0.800994L14.0321 0.800947C14.4615 0.800947 14.8474 1.02107 15.0661 1.39153L22.0415 13.2071C22.2636 13.5832 22.2668 14.0342 22.0503 14.4134C21.8339 14.7926 21.4439 15.0191 21.0072 15.0191ZM19.1106 22.5586L18.9385 22.7308C18.6364 23.0328 18.2343 23.1991 17.8061 23.1991C17.3779 23.1991 16.9757 23.0328 16.6737 22.7308L14.0995 20.1562C15.0884 19.5477 15.9448 18.7466 16.6178 17.8004L19.1106 20.2938C19.735 20.9182 19.735 21.9342 19.1106 22.5586ZM16.3023 16.821H5.55086C5.52372 16.821 5.49681 16.8201 5.47005 16.8184C5.06898 16.7924 4.71442 16.5735 4.51052 16.2218C4.48368 16.1755 4.45986 16.1276 4.43922 16.0782C4.29648 15.7364 4.31903 15.3526 4.50733 15.0238L10.2145 5.03268C10.6272 5.0646 11.0366 5.12912 11.439 5.22562C11.2821 5.45683 11.1986 5.72995 11.1992 6.00937V10.8145C11.1992 11.1871 11.3441 11.5388 11.6073 11.8049L11.6104 11.808C11.8765 12.0711 12.2282 12.216 12.6007 12.216C13.3735 12.216 14.0022 11.5873 14.0022 10.8145V6.36206C16.0639 7.76929 17.4059 10.1384 17.4059 12.8167C17.4059 14.2341 17.025 15.6138 16.3023 16.821ZM13.2014 5.88449V10.8145C13.2014 11.1457 12.9319 11.4152 12.6007 11.4152C12.4411 11.4152 12.2901 11.353 12.1751 11.2402C12.0622 11.1252 12.0001 10.9741 12.0001 10.8145V6.00937C11.9999 5.90237 12.0284 5.79728 12.0826 5.70497C12.1367 5.61267 12.2145 5.53651 12.3079 5.48437C12.5747 5.5732 12.8695 5.70524 13.2014 5.88449ZM9.30306 5.01374L3.81217 14.6261C3.6385 14.9294 3.54939 15.261 3.54489 15.5932C3.54433 15.6361 3.54513 15.679 3.54738 15.7218C3.56355 16.0324 3.65369 16.3405 3.8177 16.6234C3.98894 16.9188 4.23245 17.1667 4.522 17.3402C4.57957 17.3747 4.63888 17.4062 4.6997 17.4346C4.96305 17.5575 5.25367 17.6218 5.55086 17.6218H15.7521L15.7509 17.6234L15.7417 17.6351C15.7209 17.6616 15.6999 17.6879 15.6787 17.7142L15.6543 17.7442C15.6378 17.7644 15.6213 17.7846 15.6046 17.8047C15.5956 17.8155 15.5865 17.8264 15.5774 17.8372C15.5607 17.8571 15.5439 17.8768 15.527 17.8965C15.5185 17.9064 15.51 17.9164 15.5014 17.9263C15.48 17.951 15.4585 17.9756 15.4367 18L15.425 18.0134C15.3994 18.0419 15.3737 18.0704 15.3477 18.0986C15.3398 18.1072 15.3317 18.1158 15.3237 18.1245C15.3053 18.1443 15.2869 18.164 15.2683 18.1836C15.2587 18.1938 15.2489 18.204 15.2392 18.2142C15.2216 18.2325 15.204 18.2508 15.1862 18.269L15.1571 18.2987C15.1373 18.3188 15.1172 18.3389 15.0972 18.3588C15.0898 18.3661 15.0825 18.3735 15.0751 18.3808C15.0479 18.4076 15.0204 18.4342 14.9928 18.4606L14.9722 18.4801C14.951 18.5002 14.9298 18.5202 14.9084 18.5401C14.8983 18.5494 14.8882 18.5587 14.8781 18.5679C14.8295 18.6127 14.7803 18.6568 14.7305 18.7002C14.7212 18.7083 14.712 18.7165 14.7026 18.7246C14.6736 18.7496 14.6445 18.7745 14.6152 18.7992L14.6068 18.8062C14.5801 18.8286 14.5532 18.8508 14.5261 18.8729C14.5161 18.881 14.506 18.889 14.496 18.8971C14.4758 18.9135 14.4555 18.9298 14.435 18.9459C14.4239 18.9547 14.4127 18.9635 14.4015 18.9722C14.3813 18.988 14.361 19.0038 14.3406 19.0194C14.33 19.0275 14.3194 19.0357 14.3088 19.0437C14.2838 19.0626 14.2588 19.0813 14.2336 19.0999L14.216 19.113C14.1851 19.1357 14.1541 19.1582 14.1228 19.1804C14.1136 19.187 14.1044 19.1934 14.0951 19.1999C14.0726 19.2158 14.0501 19.2316 14.0275 19.2472C14.016 19.2552 14.0045 19.263 13.993 19.2709C13.9719 19.2853 13.9507 19.2996 13.9295 19.3138C13.918 19.3214 13.9065 19.3291 13.8949 19.3368C13.8715 19.3522 13.848 19.3675 13.8244 19.3828L13.7974 19.4003C13.765 19.421 13.7325 19.4415 13.6998 19.4617L13.6787 19.4746C13.6527 19.4906 13.6267 19.5064 13.6005 19.5221C13.589 19.529 13.5774 19.5358 13.5658 19.5427C13.5315 19.563 13.497 19.5831 13.4623 19.6028C13.4393 19.616 13.4162 19.6289 13.393 19.6419C13.382 19.648 13.3711 19.6542 13.3601 19.6602C13.333 19.6752 13.3058 19.6899 13.2784 19.7045C13.2647 19.7108 13.2513 19.718 13.2384 19.7258C12.1246 20.3141 10.8662 20.625 9.59758 20.625C5.29202 20.625 1.78919 17.1222 1.78919 12.8167C1.78914 8.60967 5.1333 5.16904 9.30306 5.01374Z" fill="#360535"/>
<path d="M9.59745 20.6251C10.8661 20.6251 12.1244 20.3141 13.2383 19.7259C13.2513 19.718 13.2647 19.7108 13.2783 19.7046C13.3056 19.6899 13.3329 19.6752 13.36 19.6603C13.371 19.6542 13.382 19.648 13.3929 19.6419C13.4284 19.6222 13.4637 19.6021 13.4989 19.5817C13.5212 19.5689 13.5434 19.5558 13.5657 19.5427L13.6004 19.5221C13.6265 19.5065 13.6526 19.4906 13.6785 19.4747C13.6856 19.4704 13.6926 19.4662 13.6996 19.4618C13.7323 19.4416 13.7649 19.4211 13.7973 19.4003C13.8063 19.3946 13.8153 19.3887 13.8243 19.3828C13.8479 19.3676 13.8714 19.3523 13.8948 19.3368C13.9063 19.3292 13.9178 19.3215 13.9294 19.3138C13.9622 19.2919 13.9948 19.2697 14.0273 19.2473C14.05 19.2316 14.0725 19.2158 14.095 19.2C14.1042 19.1935 14.1135 19.1871 14.1227 19.1805C14.1539 19.1582 14.185 19.1358 14.2159 19.113C14.2218 19.1087 14.2276 19.1043 14.2335 19.1C14.2587 19.0814 14.2837 19.0626 14.3087 19.0437C14.3193 19.0357 14.3299 19.0275 14.3405 19.0194C14.3722 18.9952 14.4036 18.9707 14.4349 18.9459C14.4553 18.9298 14.4756 18.9135 14.4959 18.8972C14.5059 18.8891 14.516 18.8811 14.526 18.8729C14.553 18.8509 14.5799 18.8286 14.6067 18.8062L14.6151 18.7992C14.6444 18.7746 14.6735 18.7497 14.7025 18.7246C14.7118 18.7166 14.7211 18.7084 14.7304 18.7002C14.7503 18.6828 14.7702 18.6653 14.7899 18.6478C14.8005 18.6383 14.8111 18.6288 14.8216 18.6193C14.8405 18.6023 14.8593 18.5852 14.878 18.568C14.8881 18.5587 14.8982 18.5495 14.9083 18.5401C14.9296 18.5203 14.9509 18.5002 14.9721 18.4801C14.9789 18.4736 14.9859 18.4672 14.9927 18.4607C15.0203 18.4343 15.0477 18.4076 15.075 18.3808C15.0824 18.3735 15.0897 18.3661 15.0971 18.3588C15.1451 18.3113 15.1924 18.2631 15.239 18.2142L15.2682 18.1837C15.2868 18.1641 15.3052 18.1443 15.3236 18.1245C15.3316 18.1159 15.3396 18.1073 15.3476 18.0986C15.3735 18.0704 15.3993 18.042 15.4249 18.0134L15.4366 18C15.4583 17.9756 15.4799 17.9511 15.5013 17.9264C15.5099 17.9165 15.5184 17.9065 15.5269 17.8965C15.553 17.8661 15.5788 17.8355 15.6045 17.8047C15.6212 17.7847 15.6377 17.7645 15.6542 17.7442L15.6786 17.7142C15.6997 17.688 15.7207 17.6617 15.7415 17.6351C15.7446 17.6312 15.7477 17.6274 15.7507 17.6235L15.752 17.6219H5.55078C5.25359 17.6219 4.96297 17.5576 4.69963 17.4346C4.66923 17.4204 4.63921 17.4055 4.60958 17.3898C4.57994 17.374 4.55071 17.3575 4.52192 17.3403C4.23238 17.1667 3.98881 16.9189 3.81763 16.6235C3.65356 16.3405 3.56347 16.0324 3.5473 15.7219C3.54506 15.6791 3.54423 15.6362 3.54481 15.5933C3.54936 15.261 3.63842 14.9295 3.81209 14.6262L9.30298 5.01379C5.13327 5.16909 1.78906 8.60972 1.78906 12.8167C1.78906 17.1223 5.29189 20.6251 9.59745 20.6251Z" fill="#92CDF7"/>
<path d="M14.0021 6.36203V10.8145C14.0021 11.5873 13.3733 12.216 12.6006 12.216C12.228 12.216 11.8762 12.0711 11.6102 11.808L11.6071 11.8048C11.344 11.5388 11.199 11.1871 11.199 10.8145V6.00934C11.1984 5.72993 11.282 5.4568 11.4389 5.22559C11.0364 5.12907 10.627 5.06455 10.2144 5.03265L4.50722 15.0237C4.31892 15.3526 4.29633 15.7365 4.43911 16.0782C4.45973 16.1275 4.48355 16.1755 4.51041 16.2218C4.71431 16.5735 5.06887 16.7924 5.46994 16.8183C5.49666 16.8201 5.52361 16.821 5.55075 16.821H16.3021C17.0248 15.6137 17.4058 14.2341 17.4058 12.8167C17.4058 10.1384 16.0637 7.76926 14.0021 6.36203ZM12.6006 16.0201C11.7174 16.0201 10.9989 15.3016 10.9989 14.4184C10.9989 13.5352 11.7174 12.8167 12.6006 12.8167C13.4838 12.8167 14.2023 13.5352 14.2023 14.4184C14.2023 15.3016 13.4838 16.0201 12.6006 16.0201Z" fill="#FFDA8C"/>
<path d="M16.6178 17.8005C15.9449 18.7466 15.0885 19.5478 14.0996 20.1562L16.6738 22.7308C16.9758 23.0329 17.378 23.1992 17.8062 23.1992C18.2344 23.1992 18.6365 23.0329 18.9385 22.7308L19.1107 22.5586C19.7351 21.9342 19.7351 20.9183 19.1107 20.2939L16.6178 17.8005Z" fill="#FFA5A5"/>
<path d="M13.1637 14.9845C13.4765 14.6718 13.4765 14.1647 13.1637 13.8519C12.851 13.5392 12.3439 13.5392 12.0311 13.8519C11.7184 14.1647 11.7184 14.6718 12.0311 14.9845C12.3439 15.2973 12.851 15.2973 13.1637 14.9845Z" fill="white"/>
<path d="M12.6007 12.8167C11.7175 12.8167 10.999 13.5352 10.999 14.4184C10.999 15.3016 11.7175 16.0201 12.6007 16.0201C13.4839 16.0201 14.2025 15.3016 14.2025 14.4184C14.2025 13.5352 13.4839 12.8167 12.6007 12.8167ZM12.6007 15.2193C12.1591 15.2193 11.7999 14.86 11.7999 14.4184C11.7999 13.9768 12.1591 13.6176 12.6007 13.6176C13.0424 13.6176 13.4016 13.9768 13.4016 14.4184C13.4016 14.86 13.0423 15.2193 12.6007 15.2193Z" fill="#360535"/>
<path d="M12 6.00937V10.8145C12 10.9741 12.0622 11.1252 12.175 11.2402C12.29 11.353 12.441 11.4152 12.6007 11.4152C12.9318 11.4152 13.2013 11.1458 13.2013 10.8145V5.8845C12.8694 5.70525 12.5746 5.57325 12.3079 5.48438C12.2145 5.53651 12.1367 5.61267 12.0825 5.70497C12.0284 5.79727 11.9999 5.90237 12 6.00937Z" fill="white"/>
</g>
<defs>
<clipPath id="clip0_221_2845">
<rect width="24" height="24" fill="white"/>
</clipPath>
</defs>
</svg>
