<svg width="40" height="40" viewBox="0 0 40 40" fill="none" xmlns="http://www.w3.org/2000/svg">
<path d="M25.4 37.9168H14.6C11.45 37.9168 9.15003 36.6002 8.2667 34.3335C7.35003 31.9668 8.20003 29.0335 10.4 27.0502L18.1334 20.0002L10.4 12.9502C8.20003 10.9668 7.35003 8.0335 8.2667 5.66683C9.15003 3.3835 11.45 2.0835 14.6 2.0835H25.4C28.55 2.0835 30.85 3.40016 31.7334 5.66683C32.65 8.0335 31.8 10.9668 29.6 12.9502L21.8667 20.0002L29.6167 27.0502C31.8 29.0335 32.6667 31.9668 31.75 34.3335C30.85 36.6002 28.55 37.9168 25.4 37.9168ZM20 21.6835L12.0834 28.8835C10.6834 30.1668 10.0667 32.0335 10.6 33.4168C11.1 34.7002 12.5167 35.4168 14.6 35.4168H25.4C27.4834 35.4168 28.9 34.7168 29.4 33.4168C29.9334 32.0335 29.3334 30.1668 27.9167 28.8835L20 21.6835ZM14.6 4.5835C12.5167 4.5835 11.1 5.2835 10.6 6.5835C10.0667 7.96683 10.6667 9.8335 12.0834 11.1168L20 18.3168L27.9167 11.1168C29.3167 9.8335 29.9334 7.96683 29.4 6.5835C28.9 5.30016 27.4834 4.5835 25.4 4.5835H14.6Z" fill="#7210FF"/>
</svg>
