<svg width="24" height="24" viewBox="0 0 24 24" fill="none" xmlns="http://www.w3.org/2000/svg">
<g clip-path="url(#clip0_221_2798)">
<path d="M10.7533 14.3744C10.7677 14.3988 10.7837 14.4224 10.7977 14.4472C10.7837 14.4224 10.7677 14.4 10.7533 14.3744ZM10.9601 14.7852C10.9708 14.812 10.9796 14.84 10.9901 14.8652C10.9796 14.84 10.9709 14.812 10.9601 14.7852ZM9.92529 13.4476C9.9505 13.4668 9.97689 13.4852 10.0017 13.5048C9.97685 13.4848 9.95046 13.4668 9.92529 13.4476ZM9.59327 13.2272C9.62566 13.2456 9.65725 13.2672 9.68927 13.2852C9.65725 13.2656 9.62566 13.246 9.59327 13.2272ZM9.80608 18.64C10.0424 18.4913 10.2642 18.3207 10.4685 18.1304C10.525 18.077 10.5744 18.0165 10.6153 17.9504C10.8345 17.5968 10.9965 17.2109 11.0953 16.8068C10.9006 17.5533 10.4428 18.2043 9.80608 18.64ZM8.39646 12.8272C8.43447 12.8316 8.47164 12.8384 8.50886 12.8444C8.47164 12.84 8.43447 12.8316 8.39646 12.8272ZM7.98527 19.2C7.89447 19.2 7.80607 19.1908 7.71729 19.1828C7.80607 19.19 7.89447 19.2 7.98527 19.2ZM8.41366 19.1704C8.39524 19.1728 8.37808 19.1764 8.35966 19.1784C8.37766 19.1764 8.39566 19.1728 8.41366 19.1704ZM9.75405 18.6752C9.69696 18.7122 9.6388 18.7476 9.57963 18.7812C9.64005 18.7492 9.69607 18.7112 9.75405 18.6752ZM11.1977 16.0476C11.1977 16.0824 11.1941 16.1164 11.1925 16.1508C11.1941 16.1164 11.1973 16.08 11.1977 16.0476ZM11.1641 16.4556C11.1573 16.5028 11.1513 16.5504 11.1424 16.5968C11.1509 16.5496 11.1577 16.5028 11.1641 16.4556Z" fill="#78B9EB"/>
<path d="M1.19992 17.6H1.63993C1.80183 17.6 1.95987 17.6495 2.09294 17.7417C2.22602 17.8339 2.32781 17.9644 2.38473 18.116C2.43034 18.236 2.47951 18.354 2.53234 18.47C2.59998 18.6176 2.6209 18.7824 2.59231 18.9423C2.56371 19.1021 2.48697 19.2494 2.37236 19.3644L2.05993 19.68C1.74836 19.9925 1.74836 20.4981 2.05993 20.8104L3.19032 21.9408C3.50275 22.2524 4.00834 22.2524 4.32071 21.9408L4.63473 21.628C4.74976 21.5134 4.89706 21.4367 5.05691 21.4081C5.21676 21.3795 5.38152 21.4004 5.52915 21.468C5.6454 21.5214 5.76347 21.5706 5.88315 21.6157C6.03478 21.6725 6.16548 21.7741 6.25781 21.9072C6.35015 22.0402 6.39973 22.1982 6.39995 22.3601V22.8001C6.39995 23.2421 6.75793 23.6001 7.19996 23.6001H8.79995C9.24193 23.6001 9.59996 23.2421 9.59996 22.8001V22.3601C9.6 22.1982 9.64941 22.0401 9.74161 21.9071C9.83381 21.774 9.9644 21.6722 10.116 21.6153C10.236 21.5697 10.3539 21.5205 10.47 21.4677C10.6176 21.4 10.7824 21.3791 10.9422 21.4077C11.1021 21.4363 11.2494 21.513 11.3644 21.6277L11.6784 21.9404C11.9908 22.252 12.4964 22.252 12.8088 21.9404L13.9392 20.8101C14.2508 20.4976 14.2508 19.992 13.9392 19.6797L13.6264 19.3657C13.5118 19.2506 13.435 19.1033 13.4064 18.9435C13.3778 18.7836 13.3988 18.6189 13.4664 18.4712C13.5197 18.355 13.5689 18.2369 13.614 18.1172C13.6708 17.9653 13.7728 17.8343 13.9061 17.7419C14.0394 17.6494 14.1978 17.5999 14.36 17.6H14.8C15.242 17.6 15.6001 17.242 15.6001 16.8V15.2C15.6001 14.758 15.2421 14.4 14.8 14.4H14.36C14.1981 14.4 14.0401 14.3506 13.907 14.2584C13.7739 14.1662 13.6721 14.0356 13.6152 13.884C13.5698 13.7644 13.5206 13.6464 13.4676 13.53C13.3999 13.3824 13.3789 13.2176 13.4075 13.0577C13.4361 12.8979 13.5129 12.7506 13.6276 12.6356L13.9404 12.3216C14.252 12.0091 14.252 11.5035 13.9404 11.1912L12.8099 10.0608C12.4975 9.7492 11.9919 9.7492 11.6795 10.0608L11.3655 10.3736C11.2505 10.4882 11.1032 10.5649 10.9433 10.5935C10.7835 10.6221 10.6187 10.6012 10.4711 10.5336C10.3548 10.4802 10.2368 10.431 10.1171 10.3859C9.96513 10.3291 9.83416 10.2272 9.74173 10.0939C9.64929 9.96056 9.59979 9.80217 9.59987 9.63993V9.19992C9.59987 8.75793 9.24189 8.3999 8.79986 8.3999H7.19992C6.75793 8.3999 6.3999 8.75789 6.3999 9.19992V9.63993C6.39987 9.80183 6.35046 9.95987 6.25826 10.0929C6.16606 10.226 6.03546 10.3278 5.8839 10.3847C5.7639 10.4303 5.64592 10.4795 5.5299 10.5323C5.38227 10.6 5.21751 10.6209 5.05766 10.5923C4.89781 10.5637 4.75051 10.487 4.63548 10.3724L4.31987 10.0599C4.00745 9.74836 3.50186 9.74836 3.18948 10.0599L2.06068 11.1911C1.74911 11.5035 1.74911 12.0091 2.06068 12.3215L2.37348 12.6355C2.48818 12.7505 2.56498 12.8978 2.59357 13.0577C2.62217 13.2175 2.60119 13.3823 2.53346 13.5299C2.48015 13.6462 2.43092 13.7643 2.38586 13.8839C2.32886 14.0357 2.22688 14.1664 2.09356 14.2586C1.96024 14.3509 1.80194 14.4002 1.63984 14.3999H1.19992C0.757934 14.3999 0.399902 14.7579 0.399902 15.2V16.8C0.399902 17.242 0.757934 17.6 1.19992 17.6ZM7.19992 12.9C7.46148 12.834 7.73017 12.8004 7.99993 12.8C8.13236 12.8008 8.26473 12.81 8.39635 12.8272C8.43437 12.8316 8.47154 12.8384 8.50876 12.8444C8.60598 12.8596 8.70118 12.8796 8.79517 12.9036C8.82957 12.9124 8.86436 12.92 8.89839 12.93C9.01989 12.9647 9.13917 13.0068 9.25557 13.056C9.26959 13.062 9.28239 13.0696 9.29556 13.0756C9.3972 13.1209 9.49639 13.1715 9.59275 13.2272C9.62514 13.246 9.65673 13.2672 9.68875 13.2852C9.76953 13.3362 9.84826 13.3904 9.92476 13.4476C9.94998 13.4668 9.97637 13.4848 10.0012 13.5048C10.0977 13.5823 10.1898 13.6651 10.2772 13.7528C10.2936 13.7696 10.308 13.7876 10.3239 13.8048C10.4205 13.9063 10.5101 14.0143 10.592 14.128C10.6492 14.208 10.7032 14.288 10.752 14.3744C10.7664 14.3988 10.7824 14.4224 10.7964 14.4472C10.857 14.5566 10.9113 14.6695 10.9588 14.7852C10.9696 14.812 10.9784 14.8396 10.9888 14.8652C11.0242 14.9586 11.0552 15.0537 11.0816 15.15C11.092 15.1876 11.1016 15.2252 11.1108 15.2632C11.1352 15.3676 11.1544 15.4732 11.1684 15.5797C11.1716 15.6032 11.1764 15.6261 11.1792 15.6496C11.1924 15.766 11.1996 15.8828 11.2 16C11.2 16.016 11.2 16.0316 11.1976 16.0476C11.1976 16.0816 11.194 16.1164 11.1924 16.1508C11.1878 16.2528 11.1783 16.3545 11.164 16.4556C11.1578 16.5028 11.1506 16.5499 11.1424 16.5968C11.1288 16.6684 11.1112 16.738 11.0932 16.808C10.9943 17.2121 10.8323 17.598 10.6132 17.9516C10.5723 18.0177 10.5229 18.0783 10.4664 18.1316C10.2626 18.3214 10.0415 18.4916 9.80593 18.64L9.75395 18.674C9.69596 18.71 9.63793 18.748 9.57953 18.78C9.33755 18.917 9.07868 19.0218 8.80951 19.0916L8.76151 19.104C8.6468 19.1321 8.53062 19.1539 8.41351 19.1692C8.39551 19.1716 8.37751 19.1752 8.35951 19.1772C8.24018 19.1916 8.12013 19.1992 7.99993 19.2H7.98512C7.89432 19.2 7.80592 19.1908 7.71714 19.1828C7.67354 19.1788 7.62836 19.1792 7.58514 19.1736C7.45546 19.1563 7.32685 19.1317 7.19992 19.1C5.4879 18.6572 4.45871 16.9104 4.9015 15.1984C5.04464 14.6451 5.33328 14.1401 5.73744 13.7359C6.1416 13.3318 6.64656 13.0431 7.19992 12.9Z" fill="#FFAF46"/>
<path d="M11.2002 16C11.1999 15.8835 11.1933 15.767 11.1806 15.6512C11.1946 15.7828 11.2002 15.9152 11.1978 16.0476C11.2002 16.0316 11.2002 16.016 11.2002 16ZM8.50903 12.8444C8.60625 12.8596 8.70145 12.8796 8.79543 12.9036C8.70092 12.8795 8.60535 12.8598 8.50903 12.8444ZM9.29625 13.0756C9.39797 13.1208 9.49717 13.1714 9.59343 13.2272C9.49708 13.1715 9.39788 13.1209 9.29625 13.0756ZM10.5922 14.128C10.6494 14.208 10.7034 14.288 10.7522 14.3744C10.7032 14.2896 10.6498 14.2073 10.5922 14.128ZM10.3246 13.8048C10.3949 13.8791 10.4616 13.9567 10.5247 14.0372C10.4619 13.9565 10.3951 13.8789 10.3246 13.8048ZM9.68943 13.2852C9.77022 13.3362 9.84895 13.3904 9.92545 13.4477C9.84909 13.3902 9.77035 13.336 9.68943 13.2852ZM10.0002 13.5048C10.097 13.582 10.1891 13.6648 10.2762 13.7528C10.1888 13.6651 10.0967 13.5823 10.0002 13.5048ZM9.57984 18.7812C9.33675 18.9159 9.07818 19.0205 8.80982 19.0928C9.079 19.023 9.33787 18.9183 9.57984 18.7812ZM8.00025 19.2C8.12056 19.1996 8.24075 19.1924 8.36025 19.1784C8.23597 19.1927 8.11095 19.1997 7.98586 19.1992L8.00025 19.2ZM11.1926 16.1508C11.1878 16.2528 11.1784 16.3545 11.1642 16.4556C11.1787 16.3552 11.1878 16.2536 11.1926 16.1508ZM9.80625 18.64C9.78904 18.6512 9.77184 18.6632 9.75426 18.674L9.80625 18.64ZM11.1427 16.5968C11.1299 16.6668 11.1106 16.7376 11.0934 16.808C11.1114 16.738 11.129 16.6684 11.1427 16.5968Z" fill="#78B9EB"/>
<path d="M14.8 14H14.36C14.2792 14.0002 14.2002 13.9755 14.1339 13.9293C14.0677 13.8831 14.0173 13.8175 13.9896 13.7416C13.941 13.6142 13.8884 13.4884 13.832 13.3644C13.7978 13.2908 13.7872 13.2084 13.8015 13.1285C13.8158 13.0487 13.8544 12.9751 13.912 12.918L14.2256 12.604C14.6912 12.1344 14.6904 11.3768 14.2236 10.9084L13.0932 9.77797C12.624 9.31156 11.8664 9.31156 11.3972 9.77797L11.0836 10.0912C11.0263 10.1486 10.9528 10.1871 10.873 10.2014C10.7932 10.2157 10.7109 10.2052 10.6372 10.1712C10.5126 10.1149 10.3867 10.0615 10.2596 10.0112C10.1834 9.98365 10.1175 9.93319 10.071 9.86674C10.0245 9.80029 9.99975 9.7211 10 9.64002V9.2C10 8.53719 9.46284 8 8.80003 8H7.2C6.53719 8 6 8.53719 6 9.2V9.64002C6.00023 9.72083 5.97554 9.79976 5.9293 9.86604C5.88305 9.93232 5.8175 9.98273 5.74158 10.0104C5.61422 10.059 5.48843 10.1115 5.36438 10.168C5.29073 10.202 5.20843 10.2125 5.12859 10.1982C5.04876 10.1839 4.97525 10.1454 4.91798 10.088L4.60397 9.77441C4.13475 9.30842 3.37758 9.30842 2.90836 9.77441L1.77797 10.9084C1.31156 11.3776 1.31156 12.1352 1.77797 12.6044L2.09119 12.918C2.14878 12.9752 2.18736 13.0487 2.20168 13.1285C2.216 13.2084 2.20535 13.2908 2.1712 13.3644C2.11471 13.4886 2.06201 13.6145 2.01319 13.742C1.98525 13.8182 1.93436 13.884 1.86753 13.9302C1.8007 13.9764 1.72121 14.0008 1.63997 14H1.2C0.537188 14 0 14.5371 0 15.2V16.8C0 17.4628 0.537188 18 1.2 18H1.64002C1.72083 17.9998 1.79976 18.0244 1.86604 18.0707C1.93232 18.1169 1.98273 18.1825 2.01042 18.2584C2.05899 18.3858 2.11155 18.5116 2.16802 18.6356C2.20218 18.7092 2.21283 18.7916 2.19851 18.8714C2.18419 18.9513 2.1456 19.0248 2.088 19.082L1.77441 19.396C1.30842 19.8652 1.30842 20.6224 1.77441 21.0916L2.9048 22.222C3.37402 22.6884 4.13161 22.6884 4.60078 22.222L4.91437 21.9088C4.97164 21.8514 5.04516 21.8129 5.12499 21.7986C5.20482 21.7843 5.28712 21.7948 5.36077 21.8288C5.48534 21.8851 5.61123 21.9384 5.73834 21.9888C5.81504 22.0159 5.8814 22.0662 5.92827 22.1327C5.97514 22.1992 6.00018 22.2786 5.99995 22.36V22.8C5.99995 23.4628 6.53714 24 7.19995 24H8.79994C9.46275 24 9.99994 23.4628 9.99994 22.8V22.36C9.99971 22.2792 10.0244 22.2002 10.0706 22.1339C10.1169 22.0677 10.1824 22.0172 10.2584 21.9896C10.3857 21.941 10.5115 21.8884 10.6356 21.832C10.7092 21.798 10.7915 21.7875 10.8713 21.8018C10.9512 21.8161 11.0247 21.8546 11.082 21.912L11.396 22.2256C11.8656 22.6908 12.6228 22.69 13.0916 22.2236L14.222 21.0932C14.6884 20.624 14.6884 19.8664 14.222 19.3972L13.9088 19.0836C13.8512 19.0264 13.8126 18.9529 13.7983 18.873C13.7839 18.7932 13.7946 18.7108 13.8287 18.6372C13.8851 18.5126 13.9384 18.3867 13.9887 18.2596C14.0163 18.1834 14.0667 18.1175 14.1332 18.071C14.1996 18.0245 14.2788 17.9998 14.3599 18H14.7999C15.4627 18 15.9999 17.4628 15.9999 16.8V15.2C16 14.5372 15.4628 14 14.8 14ZM15.2 16.8C15.2 16.9061 15.1578 17.0078 15.0828 17.0828C15.0078 17.1578 14.9061 17.1999 14.8 17.2H14.36C13.8628 17.202 13.4176 17.5092 13.24 17.9735C13.1977 18.0852 13.1518 18.1956 13.1025 18.3043C13.002 18.5261 12.9711 18.7731 13.014 19.0128C13.0568 19.2525 13.1714 19.4735 13.3425 19.6468L13.6553 19.96C13.8117 20.116 13.8117 20.3692 13.6557 20.5256L13.6553 20.526L12.5249 21.6564C12.3689 21.8124 12.1156 21.8124 11.9593 21.6564L11.6457 21.3432C11.4725 21.172 11.2515 21.0574 11.0118 21.0145C10.7721 20.9716 10.525 21.0026 10.3033 21.1032C10.1947 21.1524 10.0847 21.1983 9.97327 21.2407C9.74656 21.3276 9.55141 21.4809 9.41342 21.6806C9.27543 21.8804 9.20106 22.1172 9.20006 22.3599V22.7999C9.20003 22.906 9.15787 23.0077 9.08287 23.0827C9.00786 23.1577 8.90615 23.1999 8.80008 23.1999H7.2C7.09393 23.1999 6.99221 23.1577 6.91721 23.0827C6.84221 23.0077 6.80005 22.906 6.80002 22.7999V22.3599C6.798 21.8627 6.49083 21.4175 6.02644 21.2399C5.91474 21.1976 5.80442 21.1517 5.69564 21.1024C5.47385 21.002 5.22684 20.9712 4.98719 21.014C4.74754 21.0569 4.5265 21.1713 4.35323 21.3424L4.04002 21.6552C3.88402 21.8116 3.6308 21.8116 3.47442 21.6556L3.474 21.6552L2.34361 20.5259C2.18761 20.3699 2.18761 20.1163 2.34361 19.9603L2.65683 19.6468C2.82792 19.4735 2.94245 19.2525 2.9853 19.0128C3.02815 18.7731 2.9973 18.5261 2.89683 18.3043C2.84757 18.1958 2.80169 18.0857 2.75925 17.9743C2.67265 17.7474 2.5194 17.552 2.31964 17.4137C2.11988 17.2755 1.88298 17.201 1.64006 17.1999H1.2C1.09393 17.1999 0.992213 17.1577 0.91721 17.0827C0.842206 17.0077 0.800053 16.906 0.800016 16.7999V15.2C0.800053 15.0939 0.842206 14.9922 0.91721 14.9172C0.992213 14.8422 1.09393 14.8 1.2 14.8H1.64002C2.13722 14.798 2.58244 14.4908 2.76 14.0264C2.80233 13.9147 2.84821 13.8044 2.89758 13.6956C2.99805 13.4738 3.0289 13.2268 2.98605 12.9871C2.9432 12.7474 2.82867 12.5264 2.65758 12.3532L2.34319 12.04C2.18677 11.884 2.18677 11.6307 2.34277 11.4744L2.34319 11.474L3.47358 10.3436C3.54863 10.2687 3.65034 10.2266 3.75638 10.2266C3.86241 10.2266 3.96412 10.2687 4.03917 10.3436L4.35277 10.6568C4.52592 10.828 4.74697 10.9426 4.98666 10.9854C5.22636 11.0283 5.47342 10.9974 5.69517 10.8968C5.80373 10.8475 5.91378 10.8016 6.02517 10.7592C6.25217 10.6726 6.44767 10.5194 6.58596 10.3196C6.72424 10.1199 6.79885 9.88296 6.79997 9.64002V9.2C6.80001 9.09393 6.84216 8.99221 6.91716 8.91721C6.99217 8.84221 7.09388 8.80005 7.19995 8.80001H8.79994C8.90601 8.80005 9.00772 8.84221 9.08273 8.91721C9.15773 8.99221 9.19988 9.09393 9.19992 9.2V9.64002C9.20194 10.1372 9.50911 10.5824 9.9735 10.76C10.0855 10.8024 10.1959 10.8484 10.3043 10.8976C10.526 10.9982 10.7731 11.0291 11.0128 10.9862C11.2525 10.9434 11.4735 10.8288 11.6467 10.6576L11.9599 10.3448C12.0352 10.2702 12.1369 10.2284 12.2429 10.2284C12.3489 10.2284 12.4506 10.2702 12.5259 10.3448L13.6563 11.4752C13.8123 11.6312 13.8123 11.8848 13.6563 12.0408L13.3431 12.3544C13.172 12.5276 13.0575 12.7486 13.0146 12.9883C12.9718 13.228 13.0026 13.475 13.1031 13.6968C13.1524 13.8053 13.1982 13.9154 13.2407 14.0268C13.3275 14.2535 13.4809 14.4486 13.6806 14.5866C13.8803 14.7246 14.1171 14.799 14.3599 14.8H14.7999C14.906 14.8 15.0077 14.8422 15.0827 14.9172C15.1577 14.9922 15.1998 15.0939 15.1999 15.2V16.8H15.2Z" fill="#231F20"/>
<path d="M11.5922 15.84C11.5886 15.7441 11.5811 15.6485 11.5698 15.5532C11.557 15.4508 11.5418 15.3492 11.5206 15.2496C11.5066 15.1844 11.4882 15.12 11.4706 15.0552C11.4483 14.9731 11.423 14.8919 11.3949 14.8116C11.3753 14.7562 11.3551 14.701 11.3341 14.646C11.2826 14.5179 11.2237 14.3929 11.1578 14.2716C11.1526 14.2624 11.1494 14.2524 11.1442 14.2432C11.0402 14.0579 10.9197 13.8824 10.7842 13.7188C10.7726 13.7044 10.7594 13.6908 10.7474 13.6768C10.6926 13.6117 10.6353 13.5487 10.5758 13.488C10.5445 13.4556 10.5118 13.4252 10.479 13.394C10.4395 13.3571 10.3995 13.3207 10.359 13.2848C10.3105 13.2428 10.261 13.202 10.2106 13.1624L10.145 13.1136C9.52605 12.65 8.77347 12.3996 8.00016 12.4C7.96018 12.4 7.92014 12.406 7.88016 12.4076C7.7944 12.4098 7.70875 12.4151 7.62338 12.4236C7.57819 12.4284 7.53258 12.4336 7.48739 12.44C7.35698 12.4572 7.22759 12.4813 7.09978 12.5124C5.17378 13.01 4.01579 14.9748 4.51336 16.9012C4.6744 17.5245 4.99951 18.0931 5.45487 18.5481C5.91023 19.003 6.47919 19.3276 7.10255 19.488C7.10897 19.488 7.11577 19.4901 7.12257 19.4917C7.2607 19.5261 7.40065 19.5528 7.54177 19.5717C7.63496 19.5833 7.72819 19.5857 7.82175 19.5901C7.88414 19.5933 7.94175 19.6025 8.00696 19.6025C8.12096 19.6025 8.23936 19.5949 8.36016 19.5829C8.37296 19.5829 8.38575 19.5793 8.40015 19.5777C8.49942 19.5669 8.59818 19.5518 8.69616 19.5325C8.73615 19.5249 8.77336 19.515 8.81175 19.5061C8.88306 19.4899 8.95389 19.4717 9.02414 19.4513C9.08016 19.4346 9.13454 19.4149 9.18933 19.3958C9.24413 19.3765 9.30094 19.3558 9.35775 19.3342C9.41457 19.3125 9.46214 19.2878 9.51375 19.2638C9.58097 19.233 9.64777 19.2025 9.71377 19.1665H9.71616C10.0894 18.9666 10.4342 18.7176 10.7414 18.4261C10.8243 18.3487 10.8964 18.2604 10.9558 18.1637C11.268 17.6633 11.4731 17.1035 11.5582 16.5197C11.5694 16.4425 11.5793 16.3653 11.5853 16.2865C11.5911 16.2145 11.5948 16.1423 11.5966 16.0701C11.5966 16.0473 11.5997 16.0257 11.5997 16.0029C11.6002 15.9464 11.5946 15.8944 11.5922 15.84ZM7.29741 13.288C7.52718 13.23 7.76322 13.2004 8.00021 13.2C8.11463 13.2008 8.22863 13.2084 8.34221 13.2232C8.37263 13.2268 8.40263 13.2324 8.43263 13.2368C8.51902 13.2504 8.60461 13.2676 8.68904 13.2892C8.71664 13.2964 8.74425 13.3028 8.77144 13.3104C8.98417 13.3717 9.18892 13.4579 9.38143 13.5672C9.41222 13.5852 9.44222 13.604 9.47264 13.6228C9.53583 13.6627 9.59705 13.7028 9.65743 13.7483C9.68982 13.7719 9.72263 13.7951 9.75385 13.8203C9.83226 13.8832 9.90742 13.9499 9.97904 14.0204C10.0074 14.0491 10.0335 14.0808 10.061 14.1108C10.1074 14.1609 10.152 14.2126 10.1946 14.266C10.2242 14.3035 10.2528 14.3416 10.2806 14.3804C10.3206 14.438 10.3606 14.498 10.3966 14.5588C10.4167 14.592 10.4366 14.6244 10.4571 14.6584C10.5087 14.7533 10.5547 14.8512 10.5946 14.9516C10.6106 14.9916 10.6242 15.0316 10.6387 15.0716C10.6645 15.145 10.6872 15.2195 10.7067 15.2948C10.7167 15.3348 10.7279 15.3705 10.7363 15.4093C10.7596 15.5174 10.7765 15.6268 10.7871 15.7369C10.7895 15.7661 10.7895 15.7957 10.7915 15.8249C10.7971 15.9169 10.7987 16.0093 10.7951 16.1021C10.7951 16.1353 10.7923 16.1685 10.7903 16.2013C10.7828 16.2987 10.7708 16.3958 10.7543 16.4921C10.6804 16.9027 10.5159 17.2917 10.2728 17.6308C10.0296 17.9698 9.71395 18.2504 9.34871 18.4521C9.30029 18.4776 9.25121 18.5019 9.20152 18.5249L9.16833 18.5408C8.93595 18.6463 8.69061 18.7206 8.43872 18.7616C8.42114 18.7644 8.40314 18.7676 8.38514 18.77C8.33598 18.7772 8.28664 18.7831 8.23716 18.7876C8.17223 18.7932 8.10713 18.7965 8.04197 18.7976H7.95839C7.86375 18.7965 7.76922 18.7906 7.67518 18.78L7.62718 18.7744C7.51716 18.7601 7.40804 18.7396 7.30036 18.7128C5.80238 18.3293 4.89877 16.804 5.28197 15.306C5.40636 14.82 5.65905 14.3763 6.01363 14.0214C6.36821 13.6665 6.81164 13.4133 7.29755 13.2885L7.29741 13.288ZM22.8002 8.4H21.5422C21.4604 8.4008 21.3804 8.3759 21.3136 8.32882C21.2467 8.28174 21.1963 8.21486 21.1694 8.13759C21.0455 7.76597 20.8954 7.40359 20.7202 7.05319C20.684 6.97938 20.6719 6.89605 20.6857 6.815C20.6995 6.73395 20.7384 6.65929 20.797 6.60159L21.689 5.70839C22.157 5.23997 22.157 4.48041 21.689 4.01198L19.9882 2.31398C19.5197 1.84598 18.7602 1.84598 18.2918 2.31398L17.4002 3.20522C17.3426 3.26377 17.268 3.30272 17.187 3.31658C17.1061 3.33043 17.0228 3.31848 16.949 3.28242C16.5985 3.10641 16.236 2.9555 15.8642 2.83083C15.7866 2.8043 15.7193 2.75401 15.672 2.68709C15.6246 2.62017 15.5995 2.54003 15.6002 2.45803V1.2C15.6002 0.537188 15.063 0 14.4002 0H12.0002C11.3374 0 10.8002 0.537188 10.8002 1.2V2.45798C10.801 2.53977 10.7761 2.61975 10.729 2.68664C10.6819 2.75352 10.615 2.80394 10.5378 2.83078C10.1662 2.95557 9.80382 3.10635 9.45338 3.282C9.37959 3.31832 9.29624 3.33044 9.21516 3.31666C9.13409 3.30287 9.05942 3.26388 9.00179 3.20522L8.10858 2.31323C7.63936 1.84645 6.88139 1.84645 6.41218 2.31323L4.7146 4.01081C4.24618 4.47923 4.24618 5.23922 4.7146 5.70759L6.02621 7.02159C6.18502 7.1752 6.43819 7.17117 6.5918 7.01278C6.66398 6.93829 6.70441 6.83868 6.70456 6.73495C6.70471 6.63122 6.66456 6.5315 6.5926 6.4568L5.28019 5.14322C5.20528 5.06817 5.16321 4.96646 5.16321 4.86042C5.16321 4.75438 5.20528 4.65268 5.28019 4.57762L6.97777 2.88005C7.13377 2.72405 7.38736 2.72405 7.54336 2.88005L8.43694 3.77203C8.79853 4.13564 9.35255 4.22681 9.81136 3.99764C10.1282 3.83892 10.4558 3.70272 10.7918 3.59006C11.0282 3.51001 11.2335 3.35763 11.3786 3.15448C11.5236 2.95133 11.6012 2.70771 11.6002 2.45808V1.2C11.6002 1.09393 11.6424 0.992213 11.7174 0.91721C11.7924 0.842206 11.8941 0.800053 12.0001 0.800016H14.4001C14.5062 0.800053 14.6079 0.842206 14.6829 0.91721C14.7579 0.992213 14.8001 1.09393 14.8001 1.2V2.45798C14.7991 2.70757 14.8766 2.95115 15.0217 3.15424C15.1668 3.35733 15.3721 3.50963 15.6085 3.58959C15.9446 3.70241 16.2724 3.83874 16.5893 3.99759C17.0482 4.22559 17.6013 4.13438 17.9633 3.77161L18.8569 2.88C19.0129 2.724 19.2665 2.724 19.4225 2.88L21.1201 4.578C21.195 4.65298 21.2371 4.75462 21.2371 4.86061C21.2371 4.96659 21.195 5.06824 21.1201 5.14322L20.2281 6.0368C19.8649 6.39839 19.7737 6.95241 20.0025 7.41122C20.1612 7.72804 20.2974 8.05564 20.4101 8.39161C20.5741 8.87639 21.0301 9.20241 21.5421 9.20002H22.8002C22.9063 9.20005 23.008 9.24221 23.083 9.31721C23.158 9.39221 23.2001 9.49393 23.2002 9.6V12C23.2001 12.1061 23.158 12.2078 23.083 12.2828C23.008 12.3578 22.9063 12.3999 22.8002 12.4H21.5422C21.2926 12.399 21.049 12.4765 20.846 12.6216C20.6429 12.7667 20.4906 12.972 20.4106 13.2084C20.2978 13.5445 20.1614 13.8722 20.0026 14.1892C19.8913 14.413 19.8532 14.6661 19.8937 14.9127C19.9343 15.1593 20.0515 15.3869 20.2286 15.5632L21.1206 16.4568C21.2766 16.6128 21.2766 16.8664 21.1206 17.0224L19.4221 18.72C19.3472 18.7949 19.2455 18.8369 19.1395 18.8369C19.0336 18.8369 18.9319 18.7949 18.8569 18.72L17.5425 17.4083C17.3889 17.2495 17.1357 17.2455 16.9769 17.3992C16.8181 17.5528 16.8141 17.8059 16.9677 17.9647C16.9709 17.9679 16.9741 17.9712 16.9777 17.9744L18.2917 19.286C18.7601 19.754 19.5197 19.754 19.9881 19.286L21.6857 17.5888C22.1541 17.12 22.1541 16.3608 21.6857 15.892L20.795 15C20.7364 14.9424 20.6975 14.8678 20.6836 14.7868C20.6698 14.7059 20.6817 14.6226 20.7178 14.5488C20.8938 14.1983 21.0447 13.8358 21.1694 13.464C21.1959 13.3864 21.2462 13.3191 21.3131 13.2718C21.38 13.2244 21.4602 13.1993 21.5422 13.2H22.8002C23.463 13.2 24.0002 12.6628 24.0002 12V9.6C24.0002 8.93719 23.463 8.4 22.8002 8.4Z" fill="#231F20"/>
<path d="M16.8766 7.12322C14.8446 5.09564 11.555 5.09564 9.52301 7.12322C9.3694 7.28204 9.37381 7.53521 9.533 7.68882C9.6882 7.83839 9.93378 7.83839 10.0886 7.68882C11.7954 5.95922 14.5814 5.94043 16.311 7.64724C18.0407 9.35405 18.0594 12.14 16.3526 13.8697C16.3386 13.8837 16.325 13.8976 16.311 13.9112C16.1522 14.0648 16.1478 14.318 16.3014 14.4768C16.455 14.6356 16.7082 14.6401 16.867 14.4864L16.8766 14.4768C18.9042 12.4448 18.9042 9.15521 16.8766 7.12322Z" fill="#231F20"/>
</g>
<defs>
<clipPath id="clip0_221_2798">
<rect width="24" height="24" fill="white"/>
</clipPath>
</defs>
</svg>
