<svg width="24" height="24" viewBox="0 0 24 24" fill="none" xmlns="http://www.w3.org/2000/svg">
<g clip-path="url(#clip0_221_2721)">
<path d="M24 12C24 13.775 23.6145 15.46 22.923 16.9759C21.7407 19.5674 19.6633 21.6641 17.0865 22.872C16.6168 23.092 16.1331 23.281 15.6387 23.4377C15.0732 23.6181 14.4949 23.7555 13.9087 23.8486C13.9061 23.8492 13.9035 23.8496 13.9008 23.8497C13.6084 23.8964 13.3144 23.9322 13.0193 23.957C12.9558 23.9623 12.8923 23.9672 12.8287 23.9716C12.7386 23.9776 12.6485 23.9827 12.5583 23.9868C12.3731 23.9956 12.1871 24 12 24C11.8079 24 11.6175 23.9956 11.428 23.9863C11.3423 23.9824 11.2564 23.9775 11.1707 23.9711C11.1069 23.9668 11.043 23.9621 10.9792 23.957C10.6771 23.9316 10.376 23.8946 10.0767 23.8462C9.93497 23.8234 9.7937 23.7981 9.65292 23.7702C9.05128 23.6512 8.45979 23.4856 7.88377 23.2751C7.55435 23.155 7.23043 23.0203 6.91298 22.8715C6.80498 22.8209 6.69784 22.7684 6.59161 22.7142C6.31904 22.5764 6.05193 22.428 5.79089 22.2695C4.48552 21.479 3.34331 20.4465 2.42541 19.2343C1.87097 18.5022 1.40262 17.7087 1.02961 16.8695C0.367875 15.3817 0 13.7339 0 12C0 5.37248 5.37248 0 12 0C18.6275 0 24 5.37248 24 12Z" fill="#FFE152"/>
<path d="M9.65314 15.5726V23.7702C9.05149 23.6512 8.45998 23.4857 7.88394 23.2751C7.55452 23.155 7.23061 23.0203 6.91316 22.8715C6.80516 22.8209 6.69802 22.7684 6.59179 22.7142C6.31922 22.5764 6.05211 22.428 5.79107 22.2695C4.48569 21.479 3.34349 20.4465 2.42558 19.2343C1.87114 18.5022 1.4028 17.7087 1.02979 16.8695V15.5726C1.02979 14.068 2.05152 12.8018 3.43907 12.431C3.48995 12.417 3.54126 12.4046 3.59291 12.3938C3.73237 12.3633 3.87374 12.3423 4.01605 12.331C4.1045 12.324 4.1932 12.3204 4.28193 12.3203H6.40025C6.63683 12.3203 6.86755 12.3453 7.09002 12.3938C7.10268 12.3962 7.11547 12.3992 7.12813 12.4021C7.16544 12.4105 7.20318 12.4197 7.23979 12.4296C7.24091 12.4301 7.2418 12.4301 7.24274 12.4305C7.60398 12.5272 7.94571 12.6858 8.25275 12.8993C9.09904 13.4865 9.65314 14.4646 9.65314 15.5725V15.5726Z" fill="#2BA1CF"/>
<path d="M9.65285 15.5726V23.7702C9.0512 23.6512 8.45969 23.4857 7.88365 23.2751C7.55423 23.155 7.23032 23.0203 6.91287 22.8715C6.80487 22.8209 6.69773 22.7684 6.5915 22.7142C6.31893 22.5764 6.05182 22.428 5.79078 22.2695C4.4854 21.479 3.3432 20.4465 2.42529 19.2343V15.5726C2.42529 14.068 3.44703 12.8018 4.83462 12.431C4.88548 12.4171 4.93676 12.4047 4.98837 12.3938C5.12785 12.3633 5.26924 12.3424 5.41156 12.331C5.50007 12.324 5.58883 12.3204 5.67762 12.3203H6.39996C6.63654 12.3203 6.86726 12.3453 7.08973 12.3938C7.10239 12.3962 7.11518 12.3992 7.12784 12.4021C7.16515 12.4105 7.20289 12.4197 7.2395 12.4296C7.24062 12.4301 7.24151 12.4301 7.24245 12.4305C7.60369 12.5272 7.94542 12.6858 8.25246 12.8993C9.09875 13.4865 9.65285 14.4646 9.65285 15.5725V15.5726Z" fill="#66BAED"/>
<path d="M7.25039 12.3937L7.2427 12.4305L6.26967 16.956C6.17629 17.3908 5.79361 17.7061 5.34904 17.7065H5.33254C4.88775 17.7061 4.50525 17.3908 4.41187 16.956L3.43884 12.4308L3.43115 12.3936L7.25039 12.3937Z" fill="#F2F0EC"/>
<path d="M5.34075 13.6518L3.87646 14.4655L3.43115 12.3936L4.341 11.8578M5.34075 13.6518L6.80507 14.4655L7.25039 12.3936L6.34054 11.8578" fill="#D8D5D0"/>
<path d="M0.969238 11.5364V6.63132C0.969238 6.1329 1.05235 5.64455 1.21641 5.17983C1.83038 3.43304 3.48802 2.25891 5.34122 2.25891C5.57086 2.25891 5.79989 2.27672 6.02255 2.31188C7.04068 2.47097 7.97485 2.99063 8.65214 3.77522C9.33699 4.56918 9.71371 5.58281 9.71363 6.63132V11.5363" fill="#CC7A3B"/>
<path d="M2.76744 6.82292C2.76744 8.55781 3.7835 10.565 4.34141 11.5364H0.96875V6.63143C0.96875 6.13315 1.05209 5.64485 1.21597 5.17995C1.82628 3.44323 3.46873 2.27257 5.30909 2.2594C3.96495 2.29292 2.76744 4.44954 2.76744 6.82296V6.82292Z" fill="#A35418"/>
<path d="M6.50184 11.0674V12.4916C6.50184 13.0129 6.15815 13.4537 5.68467 13.6C5.57348 13.6345 5.45772 13.6519 5.34131 13.6518C4.70043 13.6518 4.18115 13.1325 4.18115 12.4916V11.0674H6.50184Z" fill="#EAB599"/>
<path d="M6.5017 12.4014V12.4916C6.5017 13.0129 6.15802 13.4537 5.68453 13.6C5.25731 13.4687 4.93617 13.0971 4.87687 12.6427C5.17028 12.6603 5.46474 12.6453 5.75484 12.598C6.00963 12.557 6.25978 12.4912 6.5017 12.4014ZM2.15827 8.73354C2.15827 9.27078 1.76588 9.71628 1.25189 9.79887C1.19475 9.80817 1.13695 9.81282 1.07906 9.81279C0.483047 9.81279 0 9.32975 0 8.73354C0 8.13757 0.483047 7.65448 1.07906 7.65448C1.13798 7.65448 1.19588 7.65926 1.25189 7.66845C1.76588 7.751 2.15827 8.19631 2.15827 8.73354Z" fill="#F6CAAE"/>
<path d="M2.15847 8.73355C2.15847 9.27079 1.76607 9.71629 1.25209 9.79888C1.15684 9.45179 1.10868 9.09347 1.10889 8.73355C1.1087 8.37371 1.15686 8.01547 1.25209 7.66846C1.76607 7.751 2.15847 8.19632 2.15847 8.73355Z" fill="#EAB599"/>
<path d="M1.46483 8.73354C1.46485 8.83584 1.42424 8.93397 1.35192 9.00632C1.27959 9.07868 1.18149 9.11934 1.07919 9.11937C0.976884 9.11939 0.878761 9.07878 0.806405 9.00646C0.734048 8.93413 0.693384 8.83603 0.693359 8.73373C0.693335 8.63143 0.73395 8.5333 0.806272 8.46095C0.878594 8.38859 0.976697 8.34793 1.079 8.3479C1.1813 8.34788 1.27943 8.38849 1.35178 8.46081C1.42414 8.53313 1.4648 8.63124 1.46483 8.73354Z" fill="#EAB599"/>
<path d="M8.11238 7.35572V11.0651C7.5391 11.6123 6.80391 11.9914 5.98594 12.1232L5.96616 12.1265C5.75952 12.1591 5.55061 12.1754 5.34141 12.175C3.12422 12.175 1.32666 10.3775 1.32666 8.16028V6.63136C1.32666 6.43561 1.34058 6.243 1.36768 6.05475C2.32294 6.74175 3.69258 6.67383 4.56525 5.84911C4.85419 5.57611 5.05505 5.25108 5.16854 4.90631C5.23172 5.51001 5.50791 6.09759 5.99728 6.5603C6.57994 7.11033 7.34972 7.37569 8.11238 7.35572Z" fill="#EAB599"/>
<path d="M8.11213 7.35572V11.0651C7.53885 11.6123 6.80366 11.9914 5.98569 12.1232L5.96591 12.1265C4.04554 11.8264 2.57666 10.1646 2.57666 8.16028V6.63136C2.57666 6.59072 2.57736 6.55026 2.57886 6.50995C3.28672 6.58247 4.0221 6.36234 4.56496 5.84892C4.85394 5.57611 5.0548 5.25094 5.16833 4.90631C5.23147 5.51001 5.50761 6.09759 5.99708 6.5603C6.57974 7.11033 7.34947 7.37569 8.11208 7.35572H8.11213Z" fill="#F6CAAE"/>
<path d="M7.49753 7.82119C7.49753 7.45275 7.19884 7.1543 6.83064 7.1543C6.46239 7.1543 6.16375 7.45275 6.16375 7.82119M4.51909 7.82119C4.51909 7.45275 4.2205 7.1543 3.85225 7.1543C3.484 7.1543 3.18555 7.45275 3.18555 7.82119" fill="#EAB599"/>
<path d="M4.30789 8.10499C4.30789 8.35657 4.10394 8.56057 3.85236 8.56057C3.60074 8.56057 3.39697 8.35657 3.39697 8.10499C3.39697 7.85341 3.60074 7.6496 3.85236 7.6496C4.10394 7.6496 4.30789 7.85341 4.30789 8.10499ZM7.28614 8.10499C7.28614 8.35657 7.08233 8.56057 6.83075 8.56057C6.57913 8.56057 6.37536 8.35657 6.37536 8.10499C6.37536 7.85341 6.57913 7.6496 6.83075 7.6496C6.89056 7.64959 6.94977 7.66137 7.00502 7.68425C7.06028 7.70713 7.11048 7.74068 7.15276 7.78297C7.19505 7.82526 7.22858 7.87546 7.25146 7.93071C7.27434 7.98597 7.28611 8.04519 7.2861 8.10499H7.28614Z" fill="#3D4159"/>
<path d="M5.797 9.25178H4.88603C4.83445 9.25098 4.78525 9.22993 4.74905 9.19317C4.71286 9.15641 4.69257 9.10689 4.69257 9.0553C4.69257 9.00371 4.71286 8.95419 4.74905 8.91743C4.78525 8.88067 4.83445 8.85962 4.88603 8.85883H5.797C5.84911 8.85883 5.89909 8.87953 5.93593 8.91637C5.97278 8.95322 5.99348 9.00319 5.99348 9.0553C5.99348 9.10741 5.97278 9.15739 5.93593 9.19423C5.89909 9.23108 5.84911 9.25178 5.797 9.25178ZM5.34142 10.4949C5.00524 10.4949 4.66905 10.4107 4.36253 10.242C4.32103 10.2192 4.2903 10.1808 4.2771 10.1353C4.2639 10.0898 4.2693 10.041 4.29213 9.99948C4.31495 9.95798 4.35333 9.92725 4.39881 9.91405C4.44429 9.90085 4.49316 9.90625 4.53466 9.92908C5.03988 10.2069 5.64302 10.2069 6.14819 9.92908C6.18969 9.90625 6.23855 9.90085 6.28404 9.91405C6.32952 9.92725 6.3679 9.95798 6.39072 9.99948C6.41355 10.041 6.41895 10.0898 6.40575 10.1353C6.39254 10.1808 6.36181 10.2192 6.32031 10.242C6.01375 10.4107 5.67761 10.4949 5.34142 10.4949V10.4949Z" fill="#EAB599"/>
<path d="M4.21518 8.02458C4.21516 8.07636 4.19458 8.12601 4.15796 8.16262C4.12134 8.19922 4.07167 8.21978 4.01989 8.21977C3.96811 8.21976 3.91846 8.19917 3.88186 8.16255C3.84525 8.12593 3.82469 8.07627 3.82471 8.02449C3.82472 7.97271 3.8453 7.92305 3.88192 7.88645C3.91855 7.84984 3.96821 7.82929 4.01999 7.8293C4.07177 7.82931 4.12142 7.84989 4.15803 7.88652C4.19463 7.92314 4.21519 7.9728 4.21518 8.02458ZM7.21574 8.02458C7.21574 8.07633 7.19518 8.12596 7.15859 8.16255C7.122 8.19914 7.07237 8.2197 7.02062 8.2197C6.96887 8.2197 6.91924 8.19914 6.88265 8.16255C6.84606 8.12596 6.8255 8.07633 6.8255 8.02458C6.8251 7.9987 6.82985 7.973 6.83948 7.94898C6.8491 7.92496 6.86341 7.90309 6.88157 7.88464C6.89973 7.8662 6.92137 7.85156 6.94525 7.84156C6.96912 7.83156 6.99474 7.82642 7.02062 7.82642C7.0465 7.82642 7.07212 7.83156 7.096 7.84156C7.11987 7.85156 7.14151 7.8662 7.15967 7.88464C7.17783 7.90309 7.19214 7.92496 7.20176 7.94898C7.21139 7.973 7.21614 7.9987 7.21574 8.02458Z" fill="white"/>
<path d="M8.07442 9.21442C8.07442 9.49052 7.8505 9.71449 7.57417 9.71449C7.29807 9.71449 7.07411 9.49056 7.07411 9.21442C7.07411 8.93814 7.29807 8.71417 7.57417 8.71417C7.8505 8.71417 8.07442 8.93814 8.07442 9.21442ZM3.60901 9.21442C3.60901 9.49052 3.38528 9.71449 3.10895 9.71449C2.83286 9.71449 2.60889 9.49056 2.60889 9.21442C2.60889 8.93814 2.83286 8.71417 3.10895 8.71417C3.38528 8.71417 3.60901 8.93814 3.60901 9.21442Z" fill="#EAB599"/>
<path d="M22.923 15.4737V16.9759C21.7407 19.5674 19.6634 21.6642 17.0866 22.8721C16.6168 23.0921 16.1332 23.281 15.6387 23.4377C15.0733 23.6181 14.495 23.7555 13.9088 23.8486C13.9062 23.8493 13.9035 23.8496 13.9009 23.8497V15.4737C13.9009 13.6885 15.2758 12.2238 17.0254 12.0828C17.1179 12.0751 17.2107 12.0714 17.3035 12.0716H19.5195C19.7815 12.0716 20.0365 12.1004 20.2816 12.1568C21.794 12.5025 22.923 13.8569 22.923 15.4737Z" fill="#BFD5DE"/>
<path d="M22.923 15.4737V16.9759C21.7407 19.5674 19.6633 21.6641 17.0865 22.8721C16.6168 23.0921 16.1331 23.281 15.6387 23.4377V15.4737C15.6387 13.5948 17.1625 12.0716 19.0419 12.0716H19.5198C21.3997 12.0716 22.923 13.5948 22.923 15.4737Z" fill="#DDE8ED"/>
<path d="M15.0813 8.31867C15.0813 8.88079 14.6708 9.34678 14.1332 9.43321C14.0734 9.44288 14.0129 9.44773 13.9523 9.4477C13.3286 9.4477 12.8232 8.94234 12.8232 8.31867C12.8232 7.695 13.3286 7.18964 13.9523 7.18964C14.014 7.18964 14.0744 7.19456 14.1332 7.20412C14.6708 7.2907 15.0813 7.75673 15.0813 8.31867Z" fill="#D3A489"/>
<path d="M19.3255 13.2989L18.412 14.7642L17.4985 13.2989" fill="#F74F4F"/>
<path d="M19.6408 18.9031L18.4118 20.454L17.1826 18.9031L18.412 14.3829L19.6408 18.9031Z" fill="#F74F4F"/>
<path d="M15.0813 8.3187C15.0813 8.88082 14.6708 9.34681 14.1332 9.43324C14.0335 9.07012 13.9831 8.69525 13.9834 8.3187C13.9834 7.93305 14.0356 7.55932 14.1332 7.2041C14.6708 7.29073 15.0813 7.75676 15.0813 8.3187Z" fill="#BF8E75"/>
<path d="M14.3558 8.31869C14.3558 8.37169 14.3453 8.42417 14.3251 8.47314C14.3048 8.5221 14.275 8.5666 14.2376 8.60407C14.2001 8.64155 14.1556 8.67128 14.1066 8.69156C14.0577 8.71184 14.0052 8.72228 13.9522 8.72228C13.7294 8.72228 13.5488 8.54153 13.5488 8.31869C13.5488 8.09585 13.7294 7.91528 13.9522 7.91528C14.175 7.91528 14.3558 8.09585 14.3558 8.31869Z" fill="#BF8E75"/>
<path d="M18.4114 13.4643L16.8795 14.3157L16.4136 12.148L17.3653 11.5873M18.4114 13.4643L19.9434 14.3157L20.4094 12.148L19.4575 11.5873" fill="#BFD5DE"/>
<path d="M21.7417 8.31867C21.7417 8.88079 22.1522 9.34678 22.6898 9.43321C22.7486 9.44273 22.809 9.4477 22.8708 9.4477C23.4944 9.4477 23.9998 8.94234 23.9998 8.31867C23.9998 7.695 23.4944 7.18964 22.8707 7.18964C22.809 7.18964 22.7486 7.19456 22.6898 7.20412C22.1522 7.2907 21.7417 7.75673 21.7417 8.31867Z" fill="#D3A489"/>
<path d="M21.7417 8.3187C21.7417 8.88082 22.1522 9.34681 22.6898 9.43324C22.7896 9.07014 22.84 8.69525 22.8396 8.3187C22.8396 7.93305 22.7876 7.55932 22.6898 7.2041C22.1522 7.29073 21.7417 7.75676 21.7417 8.3187Z" fill="#BF8E75"/>
<path d="M23.2744 8.31869C23.2728 8.42465 23.2295 8.52573 23.154 8.60009C23.0785 8.67445 22.9768 8.71613 22.8708 8.71613C22.7649 8.71613 22.6631 8.67445 22.5876 8.60009C22.5121 8.52573 22.4689 8.42465 22.4673 8.31869C22.4673 8.09585 22.648 7.91528 22.8709 7.91528C23.0937 7.91528 23.2744 8.09585 23.2744 8.31869Z" fill="#BF8E75"/>
<path d="M22.6123 7.71865C22.6123 9.80899 21.0853 11.5432 19.0858 11.8651C18.8629 11.9014 18.6374 11.9196 18.4115 11.9193C16.0914 11.9193 14.2109 10.0388 14.2109 7.71865C14.2109 6.62093 14.5922 4.97299 15.2816 4.22463C16.0491 3.39133 17.1891 3.51785 18.4115 3.51785C18.6414 3.51785 18.8664 3.53613 19.0858 3.57223C21.0853 3.89412 22.6123 5.62816 22.6123 7.71865Z" fill="#BF8E75"/>
<path d="M19.6259 10.7606V12.2505C19.6259 12.796 19.2663 13.257 18.7708 13.4101C18.6544 13.4461 18.5333 13.4644 18.4115 13.4643C17.7412 13.4643 17.1978 12.9209 17.1978 12.2505V10.7606H19.6259Z" fill="#BF8E75"/>
<path d="M19.626 12.156V12.2505C19.626 12.796 19.2664 13.257 18.7708 13.4101C18.3239 13.2728 17.9879 12.884 17.9258 12.4085C18.2329 12.4269 18.541 12.4112 18.8447 12.3618C19.1112 12.319 19.3729 12.25 19.626 12.1561V12.156ZM22.6126 7.71865C22.6126 9.80899 21.0855 11.5432 19.086 11.8651C17.0867 11.5432 15.5596 9.80899 15.5596 7.71865C15.5596 6.43146 16.1385 5.27932 17.0506 4.50864C17.6193 4.0278 18.3178 3.69583 19.086 3.57208C20.95 3.87213 22.404 5.40021 22.5919 7.29972C22.6056 7.43758 22.6126 7.57746 22.6126 7.71865Z" fill="#D3A489"/>
<path d="M18.4116 9.7875C18.0597 9.7875 17.7081 9.69947 17.3875 9.52313C17.366 9.51134 17.347 9.49541 17.3316 9.47626C17.3162 9.45712 17.3048 9.43512 17.2979 9.41155C17.2911 9.38797 17.289 9.36328 17.2917 9.33888C17.2944 9.31447 17.3019 9.29085 17.3137 9.26935C17.3255 9.24784 17.3415 9.22887 17.3606 9.21353C17.3798 9.19818 17.4018 9.18677 17.4254 9.17993C17.4489 9.1731 17.4736 9.17098 17.498 9.17369C17.5224 9.17641 17.546 9.1839 17.5675 9.19575C18.096 9.48614 18.7271 9.48614 19.2558 9.19575C19.2772 9.18391 19.3008 9.17642 19.3252 9.17372C19.3496 9.17101 19.3743 9.17313 19.3978 9.17997C19.4214 9.1868 19.4433 9.19821 19.4625 9.21355C19.4816 9.22889 19.4975 9.24785 19.5093 9.26935C19.5212 9.29084 19.5287 9.31445 19.5314 9.33885C19.5341 9.36324 19.532 9.38792 19.5252 9.4115C19.5183 9.43507 19.5069 9.45706 19.4916 9.47621C19.4762 9.49537 19.4573 9.51131 19.4358 9.52313C19.1151 9.69947 18.7632 9.7875 18.4116 9.7875Z" fill="#BF8E75"/>
<path d="M17.5171 7.47423C17.5171 7.73734 17.3037 7.95062 17.0404 7.95062C16.7773 7.95062 16.564 7.73734 16.564 7.47418C16.564 7.21089 16.7773 6.99756 17.0404 6.99756C17.3037 6.99756 17.517 7.21089 17.517 7.47418L17.5171 7.47423ZM20.2593 7.47423C20.2593 7.73734 20.0459 7.95062 19.7828 7.95062C19.5195 7.95062 19.3062 7.73734 19.3062 7.47418C19.3062 7.21089 19.5195 6.99756 19.7828 6.99756C20.0459 6.99756 20.2592 7.21089 20.2592 7.47418L20.2593 7.47423Z" fill="#3D4159"/>
<path d="M17.4197 7.38993C17.4197 7.50276 17.3283 7.59431 17.2156 7.59431C17.1623 7.59291 17.1117 7.57078 17.0746 7.53262C17.0374 7.49447 17.0166 7.44331 17.0166 7.39005C17.0166 7.33679 17.0374 7.28563 17.0746 7.24747C17.1117 7.20932 17.1623 7.18719 17.2156 7.18579C17.2697 7.18582 17.3216 7.20733 17.3599 7.24561C17.3982 7.28389 17.4197 7.3358 17.4197 7.38993ZM20.1853 7.38993C20.1853 7.50276 20.0939 7.59431 19.9812 7.59431C19.9279 7.59291 19.8774 7.57078 19.8402 7.53262C19.803 7.49447 19.7822 7.44331 19.7822 7.39005C19.7822 7.33679 19.803 7.28563 19.8402 7.24747C19.8774 7.20932 19.9279 7.18719 19.9812 7.18579C20.0353 7.18582 20.0872 7.20733 20.1255 7.24561C20.1638 7.28389 20.1853 7.3358 20.1853 7.38993Z" fill="white"/>
<path d="M18.8881 8.67391H17.935C17.8805 8.67391 17.8282 8.65226 17.7897 8.61371C17.7511 8.57516 17.7295 8.52288 17.7295 8.46836C17.7295 8.41385 17.7511 8.36157 17.7897 8.32302C17.8282 8.28447 17.8805 8.26282 17.935 8.26282H18.8881C18.9426 8.26282 18.9949 8.28447 19.0334 8.32302C19.072 8.36157 19.0936 8.41385 19.0936 8.46836C19.0936 8.52288 19.072 8.57516 19.0334 8.61371C18.9949 8.65226 18.9426 8.67391 18.8881 8.67391H18.8881Z" fill="#BF8E75"/>
<path d="M19.7949 15.3622H21.6261V15.9227H19.7949V15.3622Z" fill="#BFD5DE"/>
<path d="M18.166 2.31797C19.4385 2.40877 20.4603 3.43669 20.5249 4.73072L20.537 4.97367H21.269L21.6633 7.59539L22.6182 7.29984L22.49 4.73091C22.4223 3.37153 21.298 2.3062 19.9375 2.31136L18.166 2.31797Z" fill="#2A2F4F"/>
<path d="M22.4089 1.30389C23.4222 2.31724 23.4222 3.96021 22.4089 4.97355C21.3956 5.98685 19.7526 5.98685 18.7393 4.97355L22.4089 1.30389Z" fill="#3D4159"/>
<path d="M18.7394 4.97354H15.5549L15.1605 7.59539L14.2056 7.29985L14.3335 4.73072C14.4013 3.37172 15.5256 2.30602 16.8862 2.31118L21.4856 2.32852L22.0937 3.42296" fill="#3D4159"/>
<path d="M18.6578 2.31797C17.3852 2.40877 16.3635 3.43669 16.2988 4.73072L16.2867 4.97367H15.5549L15.1605 7.59539L14.2056 7.29984L14.3337 4.73091C14.4015 3.37153 15.5258 2.3062 16.8862 2.31136L18.6578 2.31797Z" fill="#2A2F4F"/>
<path d="M17.0866 21.9723V22.872C15.5423 23.5956 13.8187 24 12.0001 24C10.1815 24 8.45738 23.5955 6.91309 22.8715V21.9723C6.91309 20.1967 8.11843 18.7033 9.75577 18.2655C9.81581 18.2493 9.87625 18.2346 9.93704 18.2214C10.1016 18.1858 10.2684 18.1613 10.4362 18.1479C10.5407 18.1394 10.6454 18.1352 10.7502 18.1351H13.2491C13.5286 18.1351 13.8006 18.1646 14.0632 18.2214C14.0784 18.2243 14.0935 18.2278 14.1082 18.2312C14.1523 18.2415 14.1963 18.2523 14.2399 18.264C14.2415 18.2644 14.2419 18.2644 14.2433 18.265C14.6694 18.3789 15.0725 18.566 15.4346 18.8179C16.4333 19.5106 17.0866 20.6649 17.0866 21.9723Z" fill="#3D4159"/>
<path d="M14.2527 18.2214L14.2433 18.265L13.0194 23.957C12.9559 23.9623 12.8924 23.9672 12.8288 23.9716C12.7387 23.9776 12.6486 23.9827 12.5584 23.9868C12.3732 23.9956 12.1872 24 12.0001 24C11.808 24 11.6176 23.9956 11.4281 23.9862C11.3424 23.9824 11.2565 23.9775 11.1708 23.9711C11.107 23.9668 11.0431 23.9621 10.9793 23.957L9.75572 18.2655L9.74658 18.2214H14.2527Z" fill="#66BAED"/>
<path d="M13.0298 19.5198L11.9997 21.1717L10.9697 19.5198" fill="#3D4159"/>
<path d="M12.8289 23.9717C12.7388 23.9777 12.6487 23.9827 12.5584 23.9869C12.3733 23.9956 12.1873 24 12.0002 24C11.8081 24 11.6177 23.9956 11.4281 23.9863C11.3425 23.9824 11.2566 23.9775 11.1709 23.9711L12.0002 20.7419L12.8289 23.9717Z" fill="#3D4159"/>
<path d="M11.9997 19.706L10.2721 20.666L9.74658 18.2217L10.8199 17.5895M11.9997 19.706L13.7271 20.666L14.2526 18.2217L13.1792 17.5895" fill="#2BA1CF"/>
<path d="M14.3176 21.5202H14.8657L13.9086 23.8486C13.4614 23.9203 13.0105 23.9664 12.5581 23.9868L14.2396 18.264L14.2524 18.2214L15.4344 18.6073L14.3176 21.5202ZM11.4278 23.9862C10.9751 23.9654 10.5239 23.9186 10.0765 23.8462L9.12033 21.5202H9.66839L8.55127 18.6073L9.73355 18.2214L9.74639 18.264L11.4278 23.9862Z" fill="#2A2F4F"/>
<path d="M13.3686 16.6572V18.3372C13.3686 18.9523 12.963 19.4722 12.4043 19.6449C12.2731 19.6855 12.1365 19.7062 11.9991 19.706C11.243 19.706 10.6304 19.0932 10.6304 18.3371V16.6571L13.3686 16.6572Z" fill="#EAB599"/>
<path d="M13.3688 18.2307V18.3373C13.3688 18.9523 12.9632 19.4722 12.4045 19.645C11.9004 19.4899 11.5214 19.0518 11.4515 18.5155C11.7977 18.5362 12.1452 18.5186 12.4875 18.4629C12.7881 18.4145 13.0833 18.3367 13.3688 18.2307H13.3688ZM8.24419 13.9036C8.24419 14.5373 7.78111 15.0628 7.17483 15.1604C7.10745 15.1712 7.03931 15.1767 6.97107 15.1767C6.26775 15.1767 5.69775 14.6069 5.69775 13.9036C5.69775 13.2003 6.26757 12.6302 6.97107 12.6302C7.04044 12.6302 7.10855 12.6359 7.17483 12.6467C7.78111 12.7443 8.24419 13.2699 8.24419 13.9036Z" fill="#F6CAAE"/>
<path d="M8.24402 13.9036C8.24402 14.5373 7.78094 15.0628 7.17466 15.1604C7.06232 14.7509 7.00554 14.3282 7.00586 13.9035C7.00586 13.4685 7.06464 13.0471 7.17466 12.6467C7.78094 12.7443 8.24402 13.2699 8.24402 13.9036Z" fill="#EAB599"/>
<path d="M7.42614 13.9036C7.42614 14.1548 7.22233 14.3586 6.97113 14.3586C6.71974 14.3586 6.51611 14.1548 6.51611 13.9036C6.51609 13.8438 6.52785 13.7846 6.55071 13.7294C6.57357 13.6742 6.60709 13.624 6.64934 13.5818C6.6916 13.5395 6.74177 13.506 6.79698 13.4831C6.85219 13.4603 6.91137 13.4485 6.97113 13.4485C7.22238 13.4485 7.42614 13.6522 7.42614 13.9036Z" fill="#EAB599"/>
<path d="M15.7549 13.9036C15.7549 14.5373 16.218 15.0628 16.8242 15.1604C16.8903 15.171 16.9586 15.1767 17.0281 15.1767C17.7314 15.1767 18.3014 14.6069 18.3014 13.9036C18.3014 13.2003 17.7315 12.6302 17.0281 12.6302C16.9587 12.6302 16.8903 12.6359 16.8242 12.6467C16.218 12.7443 15.7549 13.2699 15.7549 13.9036Z" fill="#F6CAAE"/>
<path d="M15.7549 13.9036C15.7549 14.5373 16.218 15.0628 16.8242 15.1604C16.9366 14.7509 16.9934 14.3282 16.9931 13.9035C16.9931 13.4685 16.9343 13.0471 16.8242 12.6467C16.218 12.7443 15.7549 13.2699 15.7549 13.9036Z" fill="#EAB599"/>
<path d="M16.7364 11.4232V13.2269C16.7364 15.5843 15.0143 17.5397 12.7595 17.9026L12.7365 17.9064C12.4966 17.9449 12.2505 17.9638 11.9993 17.9638C9.38327 17.9638 7.2627 15.843 7.2627 13.2272V11.4232C7.2627 10.8724 7.35663 10.3431 7.53021 9.85124C8.17802 8.00774 9.93457 6.6861 11.9993 6.6861H11.9996C12.2505 6.6861 12.497 6.7055 12.7372 6.74338C15.0029 7.09733 16.7364 9.05807 16.7364 11.4232Z" fill="#EAB599"/>
<path d="M17.4833 13.9036C17.4833 14.1548 17.2796 14.3586 17.0283 14.3586C16.777 14.3586 16.5732 14.1548 16.5732 13.9036C16.5732 13.6522 16.777 13.4485 17.0283 13.4485C17.088 13.4485 17.1472 13.4603 17.2024 13.4831C17.2576 13.506 17.3078 13.5395 17.35 13.5818C17.3923 13.624 17.4258 13.6742 17.4487 13.7294C17.4715 13.7846 17.4833 13.8439 17.4833 13.9036Z" fill="#EAB599"/>
<path d="M16.7364 11.4232V13.227C16.7364 15.5841 15.0145 17.5397 12.7597 17.9026L12.7365 17.9065C10.4709 17.5523 8.73779 15.5918 8.73779 13.227V11.4233C8.73779 9.05805 10.4712 7.09736 12.7374 6.74341C15.0031 7.09736 16.7364 9.0581 16.7364 11.4232Z" fill="#F6CAAE"/>
<path d="M10.9907 12.9511C10.9907 13.2479 10.7501 13.4885 10.4534 13.4885C10.1566 13.4885 9.91602 13.2479 9.91602 12.9511C9.91602 12.6544 10.1566 12.4139 10.4534 12.4139C10.7501 12.4139 10.9906 12.6544 10.9906 12.9511L10.9907 12.9511ZM14.0831 12.9511C14.0831 13.2479 13.8425 13.4885 13.5457 13.4885C13.2489 13.4885 13.0083 13.2479 13.0083 12.9511C13.0083 12.6544 13.2489 12.4139 13.5457 12.4139C13.8425 12.4139 14.0831 12.6544 14.0831 12.9511V12.9511Z" fill="#3D4159"/>
<path d="M10.8814 12.8564C10.8814 12.9174 10.8571 12.976 10.8139 13.0192C10.7707 13.0623 10.7121 13.0866 10.6511 13.0865C10.59 13.0865 10.5314 13.0622 10.4883 13.019C10.4451 12.9758 10.4209 12.9173 10.4209 12.8562C10.4209 12.826 10.4269 12.796 10.4385 12.7681C10.45 12.7402 10.467 12.7148 10.4884 12.6934C10.5098 12.672 10.5352 12.6551 10.5631 12.6435C10.5911 12.632 10.621 12.626 10.6512 12.626C10.6815 12.626 10.7114 12.632 10.7393 12.6436C10.7673 12.6552 10.7927 12.6722 10.814 12.6935C10.8354 12.7149 10.8523 12.7403 10.8639 12.7683C10.8755 12.7962 10.8814 12.8261 10.8814 12.8564ZM14 12.8564C14 12.8866 13.9941 12.9166 13.9825 12.9445C13.9709 12.9724 13.9539 12.9978 13.9325 13.0192C13.9111 13.0405 13.8858 13.0575 13.8578 13.069C13.8299 13.0806 13.7999 13.0866 13.7697 13.0865C13.7395 13.0865 13.7095 13.0806 13.6816 13.069C13.6537 13.0574 13.6283 13.0404 13.6069 13.019C13.5855 12.9976 13.5686 12.9723 13.557 12.9443C13.5455 12.9164 13.5395 12.8864 13.5395 12.8562C13.5396 12.7951 13.5638 12.7366 13.607 12.6934C13.6502 12.6502 13.7088 12.626 13.7699 12.626C13.8309 12.6261 13.8895 12.6503 13.9327 12.6935C13.9758 12.7367 14.0001 12.7953 14 12.8564Z" fill="white"/>
<path d="M12.5368 14.0934H11.462C11.4013 14.0922 11.3436 14.0672 11.3011 14.0239C11.2586 13.9806 11.2348 13.9223 11.2348 13.8616C11.2348 13.8009 11.2586 13.7427 11.3011 13.6993C11.3436 13.656 11.4013 13.631 11.462 13.6298H12.5368C12.6648 13.6298 12.7686 13.7334 12.7686 13.8616C12.7686 13.9231 12.7441 13.982 12.7007 14.0254C12.6572 14.0689 12.5983 14.0933 12.5368 14.0934ZM11.9994 15.5599C11.6029 15.5599 11.206 15.4605 10.8446 15.2616C10.8203 15.2483 10.7989 15.2304 10.7816 15.2088C10.7643 15.1872 10.7514 15.1624 10.7437 15.1358C10.736 15.1093 10.7336 15.0815 10.7366 15.054C10.7397 15.0265 10.7481 14.9998 10.7615 14.9756C10.7884 14.9266 10.8337 14.8904 10.8873 14.8747C10.941 14.8591 10.9987 14.8654 11.0477 14.8923C11.6436 15.2201 12.3552 15.2201 12.9512 14.8923C12.9755 14.879 13.0021 14.8706 13.0296 14.8675C13.0572 14.8645 13.085 14.8669 13.1116 14.8746C13.1381 14.8824 13.1629 14.8953 13.1845 14.9126C13.2061 14.9299 13.2241 14.9513 13.2374 14.9756C13.2507 14.9998 13.2592 15.0265 13.2622 15.054C13.2653 15.0815 13.2629 15.1093 13.2551 15.1358C13.2474 15.1624 13.2345 15.1872 13.2172 15.2088C13.1999 15.2304 13.1785 15.2483 13.1543 15.2616C12.7926 15.4605 12.396 15.5599 11.9994 15.5599Z" fill="#EAB599"/>
<path d="M16.7366 9.78624V11.634H15.8549V10.1869L9.4909 9.00441L8.14432 8.7541V11.634H7.2627V9.7861C7.2627 7.67963 8.96993 5.97235 11.076 5.97235H12.9232C12.9733 5.97235 13.0235 5.97329 13.0737 5.97582C15.1097 6.05419 16.7365 7.72998 16.7365 9.78629L16.7366 9.78624Z" fill="#2A2F4F"/>
<path d="M16.7364 9.78625V11.634H15.8547V10.1869L9.49072 9.00442C9.84135 7.3202 11.3025 6.04413 13.0735 5.97583C15.1095 6.05421 16.7363 7.72999 16.7363 9.7863L16.7364 9.78625Z" fill="#3D4159"/>
</g>
<defs>
<clipPath id="clip0_221_2721">
<rect width="24" height="24" fill="white"/>
</clipPath>
</defs>
</svg>
