<svg width="24" height="24" viewBox="0 0 24 24" fill="none" xmlns="http://www.w3.org/2000/svg">
<path d="M20.0419 20.0205L16.4028 23.2847V20.0205H20.0419Z" fill="#FFCFCF"/>
<path d="M20.0419 1.18164V20.0205H16.4029V23.2847H4.42432C4.36307 23.2848 4.3024 23.2727 4.2458 23.2493C4.18919 23.2259 4.13776 23.1916 4.09445 23.1483C4.05114 23.1049 4.01679 23.0535 3.99338 22.9969C3.96997 22.9403 3.95795 22.8796 3.95801 22.8184V1.18164C3.95795 1.12039 3.96997 1.05973 3.99338 1.00312C4.01679 0.946518 4.05114 0.895088 4.09445 0.851774C4.13776 0.808461 4.18919 0.774115 4.2458 0.750703C4.3024 0.72729 4.36307 0.715271 4.42432 0.715332H19.5756C19.6369 0.715283 19.6975 0.727311 19.7541 0.750728C19.8107 0.774145 19.8622 0.808491 19.9055 0.851802C19.9488 0.895113 19.9831 0.946538 20.0065 1.00314C20.03 1.05973 20.042 1.12039 20.0419 1.18164Z" fill="#FFE2E2"/>
<path d="M5.82326 23.2847H4.42432C4.36307 23.2848 4.3024 23.2727 4.2458 23.2493C4.18919 23.2259 4.13776 23.1916 4.09445 23.1483C4.05114 23.1049 4.01679 23.0535 3.99338 22.9969C3.96997 22.9403 3.95795 22.8796 3.95801 22.8184V1.18164C3.95795 1.12039 3.96997 1.05973 3.99338 1.00312C4.01679 0.946518 4.05114 0.895088 4.09445 0.851774C4.13776 0.808461 4.18919 0.774115 4.2458 0.750703C4.3024 0.72729 4.36307 0.715271 4.42432 0.715332H5.82326C5.762 0.715271 5.70134 0.72729 5.64473 0.750703C5.58813 0.774115 5.5367 0.808461 5.49339 0.851774C5.45007 0.895088 5.41573 0.946518 5.39232 1.00312C5.3689 1.05973 5.35688 1.12039 5.35695 1.18164V22.8183C5.35688 22.8796 5.3689 22.9402 5.39231 22.9968C5.41573 23.0534 5.45007 23.1049 5.49338 23.1482C5.53669 23.1915 5.58812 23.2259 5.64473 23.2493C5.70133 23.2727 5.762 23.2848 5.82326 23.2847Z" fill="#FFEFEE"/>
<path d="M20.042 1.18164V20.0205H18.6431V1.18164C18.6431 1.12039 18.6311 1.05973 18.6077 1.00312C18.5843 0.946518 18.5499 0.895088 18.5066 0.851774C18.4633 0.808461 18.4119 0.774115 18.3553 0.750703C18.2987 0.72729 18.238 0.715271 18.1768 0.715332H19.5757C19.6369 0.715283 19.6976 0.727311 19.7542 0.750728C19.8108 0.774145 19.8622 0.808491 19.9055 0.851802C19.9488 0.895113 19.9832 0.946538 20.0066 1.00314C20.03 1.05973 20.0421 1.12039 20.042 1.18164Z" fill="#FFCFCF"/>
<path d="M6.41016 3.00275H8.77978V5.37237H6.41016V3.00275ZM6.41016 7.99831H8.77978V10.3679H6.41016V7.99831ZM6.41016 12.994H8.77978V15.3636H6.41016V12.994ZM6.41016 17.9896H8.77978V20.3592H6.41016V17.9896Z" fill="#5FCDFF"/>
<path d="M20.4169 1.18164C20.4169 0.71777 20.0395 0.340332 19.5755 0.340332H4.42432C3.96045 0.340332 3.58301 0.71777 3.58301 1.18164V22.8183C3.58301 23.2822 3.96035 23.6596 4.42432 23.6596H16.4029C16.4966 23.6596 16.5901 23.6203 16.6532 23.5638L20.2922 20.2996C20.3638 20.2352 20.4168 20.1273 20.4168 20.0204V1.18164H20.4169ZM16.0279 22.9097H4.42432C4.41229 22.9098 4.40036 22.9076 4.38923 22.903C4.37809 22.8985 4.36798 22.8917 4.35947 22.8832C4.35097 22.8747 4.34425 22.8646 4.3397 22.8535C4.33516 22.8424 4.33288 22.8304 4.33301 22.8184V1.18164C4.33301 1.13046 4.37313 1.09033 4.42432 1.09033H19.5755C19.6267 1.09033 19.6669 1.13046 19.6669 1.18164V19.6454H16.4029C16.3034 19.6454 16.208 19.6849 16.1377 19.7553C16.0674 19.8256 16.0279 19.921 16.0279 20.0204V22.9097ZM19.0623 20.3955L16.7779 22.4446V20.3955H19.0623Z" fill="#5F266D"/>
<path d="M10.5712 4.56256H17.5897C17.6891 4.56256 17.7845 4.52305 17.8548 4.45272C17.9251 4.3824 17.9647 4.28702 17.9647 4.18756C17.9647 4.0881 17.9251 3.99272 17.8548 3.92239C17.7845 3.85207 17.6891 3.81256 17.5897 3.81256H10.5712C10.4718 3.81256 10.3764 3.85207 10.3061 3.92239C10.2358 3.99272 10.1962 4.0881 10.1962 4.18756C10.1962 4.28702 10.2358 4.3824 10.3061 4.45272C10.3764 4.52305 10.4718 4.56256 10.5712 4.56256ZM8.77969 2.62775H6.41016C6.3107 2.62775 6.21532 2.66726 6.14499 2.73758C6.07466 2.80791 6.03516 2.90329 6.03516 3.00275V5.37237C6.03516 5.47183 6.07466 5.56721 6.14499 5.63754C6.21532 5.70786 6.3107 5.74737 6.41016 5.74737H8.77969C8.87914 5.74737 8.97453 5.70786 9.04485 5.63754C9.11518 5.56721 9.15469 5.47183 9.15469 5.37237V3.00275C9.15469 2.90329 9.11518 2.80791 9.04485 2.73758C8.97453 2.66726 8.87914 2.62775 8.77969 2.62775ZM8.40469 4.99737H6.78516V3.37775H8.40469V4.99737ZM10.5712 9.55812H17.5897C17.6891 9.55812 17.7845 9.51861 17.8548 9.44829C17.9251 9.37796 17.9647 9.28258 17.9647 9.18312C17.9647 9.08367 17.9251 8.98828 17.8548 8.91796C17.7845 8.84763 17.6891 8.80812 17.5897 8.80812H10.5712C10.4718 8.80812 10.3764 8.84763 10.3061 8.91796C10.2358 8.98828 10.1962 9.08367 10.1962 9.18312C10.1962 9.28258 10.2358 9.37796 10.3061 9.44829C10.3764 9.51861 10.4718 9.55812 10.5712 9.55812ZM8.77969 7.62331H6.41016C6.3107 7.62331 6.21532 7.66282 6.14499 7.73314C6.07466 7.80347 6.03516 7.89885 6.03516 7.99831V10.3679C6.03516 10.4674 6.07466 10.5628 6.14499 10.6331C6.21532 10.7034 6.3107 10.7429 6.41016 10.7429H8.77969C8.87914 10.7429 8.97453 10.7034 9.04485 10.6331C9.11518 10.5628 9.15469 10.4674 9.15469 10.3679V7.99831C9.15469 7.89885 9.11518 7.80347 9.04485 7.73314C8.97453 7.66282 8.87914 7.62331 8.77969 7.62331ZM8.40469 9.99293H6.78516V8.37331H8.40469V9.99293ZM17.9647 14.1788C17.9647 14.0793 17.9251 13.9839 17.8548 13.9136C17.7845 13.8433 17.6891 13.8038 17.5897 13.8038H10.5712C10.4718 13.8038 10.3764 13.8433 10.3061 13.9136C10.2358 13.9839 10.1962 14.0793 10.1962 14.1788C10.1962 14.2782 10.2358 14.3736 10.3061 14.4439C10.3764 14.5143 10.4718 14.5538 10.5712 14.5538H17.5897C17.6891 14.5538 17.7845 14.5143 17.8548 14.4439C17.9251 14.3736 17.9647 14.2782 17.9647 14.1788ZM8.77969 12.619H6.41016C6.3107 12.619 6.21532 12.6585 6.14499 12.7288C6.07466 12.7991 6.03516 12.8945 6.03516 12.994V15.3636C6.03516 15.463 6.07466 15.5584 6.14499 15.6288C6.21532 15.6991 6.3107 15.7386 6.41016 15.7386H8.77969C8.87914 15.7386 8.97453 15.6991 9.04485 15.6288C9.11518 15.5584 9.15469 15.463 9.15469 15.3636V12.994C9.15469 12.8945 9.11518 12.7991 9.04485 12.7288C8.97453 12.6585 8.87914 12.619 8.77969 12.619ZM8.40469 14.9886H6.78516V13.369H8.40469V14.9886ZM12.4462 18.7993H10.5712C10.4718 18.7993 10.3764 18.8389 10.3061 18.9092C10.2358 18.9795 10.1962 19.0749 10.1962 19.1743C10.1962 19.2738 10.2358 19.3692 10.3061 19.4395C10.3764 19.5098 10.4718 19.5493 10.5712 19.5493H12.4462C12.5457 19.5493 12.6411 19.5098 12.7114 19.4395C12.7817 19.3692 12.8212 19.2738 12.8212 19.1743C12.8212 19.0749 12.7817 18.9795 12.7114 18.9092C12.6411 18.8389 12.5457 18.7993 12.4462 18.7993ZM14.5937 18.7993H13.8525C13.753 18.7993 13.6577 18.8389 13.5873 18.9092C13.517 18.9795 13.4775 19.0749 13.4775 19.1743C13.4775 19.2738 13.517 19.3692 13.5873 19.4395C13.6577 19.5098 13.753 19.5493 13.8525 19.5493H14.5937C14.6931 19.5493 14.7885 19.5098 14.8589 19.4395C14.9292 19.3692 14.9687 19.2738 14.9687 19.1743C14.9687 19.0749 14.9292 18.9795 14.8589 18.9092C14.7885 18.8389 14.6931 18.7993 14.5937 18.7993ZM8.77969 17.6146H6.41016C6.3107 17.6146 6.21532 17.6541 6.14499 17.7245C6.07466 17.7948 6.03516 17.8902 6.03516 17.9896V20.3592C6.03516 20.4587 6.07466 20.5541 6.14499 20.6244C6.21532 20.6947 6.3107 20.7342 6.41016 20.7342H8.77969C8.87914 20.7342 8.97453 20.6947 9.04485 20.6244C9.11518 20.5541 9.15469 20.4587 9.15469 20.3592V17.9896C9.15469 17.8902 9.11518 17.7948 9.04485 17.7245C8.97453 17.6541 8.87914 17.6146 8.77969 17.6146ZM8.40469 19.9842H6.78516V18.3646H8.40469V19.9842Z" fill="#5F266D"/>
</svg>
