<svg width="66" height="66" viewBox="0 0 66 66" fill="none" xmlns="http://www.w3.org/2000/svg">
<g clip-path="url(#clip0_196_12317)">
<path d="M32.9894 66.0001C51.2089 66.0001 65.9787 51.2255 65.9787 33.0001C65.9787 14.7746 51.2089 0 32.9894 0C14.7698 0 0 14.7746 0 33.0001C0 51.2255 14.7698 66.0001 32.9894 66.0001Z" fill="#DC3027"/>
<rect x="41.875" y="17.4768" width="8.82296" height="35.2918" rx="1.5" transform="rotate(45 41.875 17.4768)" fill="white"/>
<rect x="17.8662" y="23.5588" width="8.82296" height="35.2918" rx="1.5" transform="rotate(-45 17.8662 23.5588)" fill="white"/>
<path d="M41.168 18.184C41.5585 17.7935 42.1917 17.7935 42.5822 18.184L47.4068 23.0086C47.7973 23.3991 47.7973 24.0323 47.4068 24.4228L26.4199 45.3202L24.4199 34.8202L41.168 18.184Z" fill="#DC3027" fill-opacity="0.1"/>
</g>
<defs>
<clipPath id="clip0_196_12317">
<rect width="66" height="66" fill="white"/>
</clipPath>
</defs>
</svg>
