<svg width="129" height="129" viewBox="0 0 129 129" fill="none" xmlns="http://www.w3.org/2000/svg">
<path d="M31.8761 118.514L59.5186 118.878L106.844 119.501C112.614 119.577 115.878 112.916 112.28 108.407C110.648 106.361 110.327 103.564 111.455 101.203L114.584 94.6498C119.617 84.1132 113.704 71.615 102.363 68.8136L101.875 68.6933C93.3672 66.5919 87.4298 58.9095 87.5451 50.152L87.6 45.9833C87.7481 34.7399 80.095 24.8886 69.159 22.2451L61.5473 20.4053C48.0977 17.1544 34.8943 26.5892 33.6224 40.3595L33.41 42.6583C32.9818 47.295 30.6926 51.5604 27.0646 54.4821L15.9992 63.3931C13.6819 65.2593 13.5543 68.7433 15.7289 70.774C17.9493 72.8473 17.7617 76.4206 15.3364 78.2498L9.02846 83.0084C4.17032 86.673 2.997 93.4793 6.34797 98.5573L12.5436 107.946C16.8371 114.453 24.0778 118.411 31.8761 118.514ZM28.226 16.9871L29.4118 20.1489C29.4839 20.3412 29.4425 20.5554 29.3044 20.704L27.5483 22.5943C27.1705 23.001 27.5893 23.6514 28.1255 23.4907L30.6639 22.7302C30.8493 22.6747 31.0523 22.7208 31.198 22.8515L33.3754 24.8045C33.7847 25.1717 34.4154 24.7963 34.2725 24.2706L33.4812 21.3612C33.4347 21.1904 33.4739 21.0094 33.5864 20.8752L35.1222 19.0433C35.4682 18.6306 35.0529 18.0142 34.5312 18.166L32.266 18.8252C32.0841 18.8782 31.8857 18.8336 31.7414 18.7075L29.102 16.3996C28.6703 16.0222 28.0261 16.4542 28.226 16.9871ZM19.3935 36.2085L19.481 38.0906C19.4863 38.2052 19.4276 38.3117 19.3288 38.367L18.0722 39.0696C17.8018 39.2208 17.9127 39.6379 18.225 39.6446L19.7033 39.676C19.8112 39.6783 19.9111 39.7376 19.966 39.832L20.7873 41.2424C20.9417 41.5075 21.341 41.4164 21.3552 41.1127L21.4339 39.4322C21.4385 39.3335 21.4904 39.2441 21.5731 39.1922L22.7027 38.4828C22.9572 38.323 22.8424 37.9245 22.5393 37.9156L21.2235 37.8772C21.1179 37.8741 21.0202 37.8165 20.9652 37.7248L19.9594 36.0467C19.7949 35.7723 19.3788 35.8912 19.3935 36.2085ZM117.291 55.0885L118.221 56.7274C118.277 56.8272 118.274 56.9486 118.21 57.0426L117.408 58.2378C117.235 58.4951 117.523 58.8168 117.804 58.6812L119.137 58.0404C119.234 57.9934 119.35 58.0013 119.441 58.0605L120.812 58.9465C121.07 59.1129 121.385 58.8511 121.26 58.5739L120.57 57.0394C120.529 56.9495 120.535 56.8463 120.585 56.7627L121.271 55.6189C121.426 55.361 121.143 55.0575 120.869 55.1869L119.678 55.7482C119.583 55.7935 119.469 55.7861 119.379 55.729L117.722 54.6882C117.452 54.5178 117.134 54.8121 117.291 55.0885Z" fill="#E7E8FF"/>
<path d="M49.5401 14.3984C49.573 11.9023 51.623 9.90537 54.1191 9.93824L104.966 10.6078C107.462 10.6407 109.459 12.6908 109.426 15.187L108.116 114.691C108.083 117.187 106.033 119.184 103.537 119.151L52.6898 118.482C50.1937 118.449 48.197 116.398 48.2298 113.902L49.5401 14.3984Z" fill="white"/>
<path fill-rule="evenodd" clip-rule="evenodd" d="M49.1631 14.3935C49.1987 11.6893 51.4198 9.526 54.1238 9.56161L104.971 10.2312C107.675 10.2668 109.838 12.4878 109.802 15.192L108.492 114.696C108.457 117.4 106.235 119.564 103.531 119.528L52.6846 118.858C49.9806 118.823 47.8172 116.602 47.8528 113.897L49.1631 14.3935ZM54.1139 10.3149C51.826 10.2848 49.9467 12.1152 49.9165 14.4034L48.6063 113.907C48.5761 116.196 50.4066 118.075 52.6945 118.105L103.541 118.775C105.829 118.805 107.709 116.974 107.739 114.686L109.049 15.1821C109.079 12.8939 107.249 11.0146 104.961 10.9845L54.1139 10.3149Z" fill="black"/>
<path d="M67.5763 13.7363L65.6934 10.0905L93.3905 10.4552L91.0692 14.211C90.3736 15.3365 89.1382 16.0145 87.8154 15.9971L70.8734 15.774C69.4824 15.7557 68.2146 14.9722 67.5763 13.7363Z" fill="black"/>
<path d="M108.721 12.9032L49.922 12.1289C51.894 10.2082 53.7578 9.87091 54.4432 9.94233L104.259 10.5983C106.655 10.6299 108.232 12.148 108.721 12.9032ZM107.322 117.072L48.9613 116.304C50.9578 118.308 52.1221 118.691 52.8358 118.637L103.387 119.303C105.876 119.336 106.793 117.826 107.322 117.072ZM54.646 23.3823C54.6542 22.7582 55.1667 22.259 55.791 22.2672L74.8915 22.5187C75.5158 22.5269 76.015 23.0395 76.0068 23.6635L76.0064 23.6923C75.9982 24.3164 75.4857 24.8156 74.8613 24.8073L55.7609 24.5558C55.1365 24.5476 54.6374 24.0351 54.6456 23.411L54.646 23.3823ZM71.6554 108.574C71.6636 107.95 72.1761 107.45 72.8005 107.459L84.4763 107.612C85.1002 107.621 85.5994 108.133 85.5912 108.757C85.583 109.381 85.0705 109.88 84.4465 109.872L72.7707 109.718C72.1464 109.71 71.6472 109.197 71.6554 108.574Z" fill="black"/>
<path fill-rule="evenodd" clip-rule="evenodd" d="M55.7236 31.1388C55.3075 31.1333 54.9657 31.4662 54.9602 31.8822L54.8189 42.6165L54.0658 42.6066L54.2072 31.8723C54.2181 31.0402 54.9013 30.3746 55.7335 30.3856L67.033 30.5344L67.0231 31.2876L55.7236 31.1388ZM102.804 31.7588L90.7514 31.6001L90.7613 30.8468L102.814 31.0055C103.646 31.0165 104.311 31.6998 104.301 32.5319L104.159 43.2662L103.406 43.2563L103.547 32.522C103.553 32.106 103.22 31.7643 102.804 31.7588ZM54.4394 71.4294L54.3006 81.9754C54.2951 82.3915 54.628 82.7333 55.0441 82.7388L66.3436 82.8876L66.3337 83.6406L55.0342 83.4918C54.202 83.4809 53.5366 82.7977 53.5475 81.9655L53.6864 71.4195L54.4394 71.4294ZM102.887 82.6152L103.026 72.0692L103.78 72.0791L103.641 82.6251C103.63 83.4573 102.946 84.1227 102.115 84.1118L90.062 83.9531L90.0719 83.2L102.124 83.3587C102.541 83.3642 102.882 83.0313 102.887 82.6152ZM105.742 16.094L105.701 19.1747L104.948 19.1648L104.988 16.0841L105.742 16.094ZM103.811 16.4538L103.776 19.1494L103.023 19.1395L103.058 16.4439L103.811 16.4538ZM101.876 17.1986L101.85 19.124L101.097 19.1141L101.122 17.1887L101.876 17.1986ZM99.9401 17.9434L99.9249 19.0987L99.1714 19.0888L99.1866 17.9335L99.9401 17.9434Z" fill="black"/>
<path d="M62.4382 93.384C62.4465 92.7601 62.959 92.2604 63.5829 92.2687L93.7144 92.6654C94.3384 92.6737 94.8375 93.1866 94.8293 93.8105L94.7202 102.097C94.712 102.72 94.1995 103.22 93.5756 103.211L63.444 102.815C62.8201 102.806 62.3209 102.294 62.3291 101.67L62.4382 93.384Z" fill="#E7E8FF"/>
<path fill-rule="evenodd" clip-rule="evenodd" d="M59.5859 35.41C59.5013 35.5005 59.3901 38.766 59.3387 42.6667L59.2454 49.7586L65.8365 49.8454L72.4277 49.9322L72.5232 42.6733L72.6188 35.4146L66.1792 35.3298C62.6375 35.2832 59.6705 35.3192 59.5859 35.41ZM74.6366 37.5691L74.6086 39.6966L75.5174 39.7086L76.4267 39.7206L76.4003 41.723L76.3739 43.7254L77.2832 43.7374L78.1924 43.7494L78.2056 42.7481L78.2188 41.7469L79.2415 41.7604L80.2641 41.7738L80.2509 42.7751L80.2378 43.7763L81.147 43.7883L82.0562 43.8003L82.0414 44.9267L82.0266 46.0531L82.9354 46.065L83.8446 46.077L83.8727 43.9491L83.9007 41.8217L82.9914 41.8098L82.0826 41.7978L82.0958 40.7966L82.109 39.7954L83.0178 39.8073L83.927 39.8193L83.9551 37.6918L83.9831 35.5643L79.3238 35.5029L74.6646 35.4416L74.6366 37.5691ZM85.9333 42.8499L85.8377 50.1087L92.315 50.194L98.7927 50.2793L98.8883 43.0205L98.9839 35.7618L92.5062 35.6765L86.0289 35.5912L85.9333 42.8499ZM70.7052 42.6494L70.636 47.9056L65.8629 47.8428L61.0898 47.7799L61.1568 42.6906C61.1937 39.8913 61.293 37.5268 61.3776 37.4363C61.4622 37.3455 63.611 37.2987 66.1528 37.3322L70.7744 37.3931L70.7052 42.6494ZM80.2605 38.7071L80.3167 39.7718L79.2805 39.7581L78.2451 39.7445L78.2578 38.7851C78.2647 38.2572 78.3443 37.7461 78.4349 37.6489C78.5255 37.5517 78.9608 37.5106 79.4022 37.5572C80.1717 37.639 80.2075 37.6863 80.2605 38.7071ZM97.0698 42.9965L97.0006 48.2528L92.3414 48.1914L87.6821 48.1301L87.7513 42.8738L87.8206 37.6175L92.4798 37.6789L97.139 37.7402L97.0698 42.9965ZM63.2031 42.6757L63.1619 45.8046L66.0031 45.8421L68.8439 45.8795L68.8851 42.7505L68.9263 39.6218L66.0855 39.5844L63.2443 39.547L63.2031 42.6757ZM89.5682 43.0229L89.527 46.1518L92.3677 46.1892L95.2089 46.2266L95.2501 43.0977L95.2913 39.969L92.4501 39.9316L89.6094 39.8941L89.5682 43.0229ZM74.4438 52.2115L74.335 60.4717L71.4939 60.4343L68.6527 60.3968L68.6395 61.3979L68.6263 62.399L71.4675 62.4365L74.3087 62.4739L74.2955 63.475L74.2823 64.4765L75.1911 64.4885L76.1003 64.5004L76.1135 63.4989L76.1267 62.4978L77.036 62.5098L79.8111 62.5463L79.8243 61.5452L79.8375 60.5441L77.0623 60.5076L76.1531 60.4956L76.1811 58.3677L76.2091 56.2402L78.0276 56.2642L79.8457 56.2881L79.8588 55.287L79.872 54.2859L82.8266 54.3248L85.7817 54.3637L85.7553 56.3659L85.7289 58.3685L87.547 58.3925L89.3655 58.4164L89.3506 59.5428L89.3358 60.6692L86.4946 60.6318L83.6535 60.5944L83.6667 59.5929L83.6798 58.5918L82.7706 58.5798L81.8618 58.5678L81.8486 59.5689L81.8354 60.5704L82.7442 60.5824L83.6535 60.5944L83.6255 62.7219L83.5974 64.8494L82.6882 64.8374L81.7794 64.8254L81.7942 63.699L81.8091 62.5726L80.9125 62.5608C80.021 62.5491 79.8771 62.5472 79.8771 62.5472L79.8491 64.6747L77.9729 64.7228L76.0968 64.7709L76.0837 65.7619C76.0707 66.7511 76.069 66.7528 75.1614 66.7408L74.2526 66.7288L74.2394 67.7304L74.2263 68.7315L75.1351 68.7434L76.0443 68.7554L76.0163 70.8829L75.9883 73.0104L75.079 72.9984L74.1702 72.9864L74.1307 75.9902L74.0911 78.9934L76.8184 79.0294L79.5457 79.0653L79.5589 78.0642L79.5721 77.0631L78.6629 77.0511L77.754 77.0391L77.7672 76.038L77.7804 75.0369L76.8712 75.025L75.9619 75.013L75.9751 74.0115L75.9883 73.0104L77.7936 73.0342L79.5986 73.0579L79.6829 71.9951L79.7667 70.9323L81.5694 70.8984L81.5407 73.0835L83.4887 73.1091L83.5175 70.9241L84.4836 70.9267L89.2008 70.921L89.1859 72.0525L89.171 73.184L87.3525 73.16L85.5345 73.1361L85.5213 74.1372L85.5081 75.1387L86.4169 75.1507L87.3262 75.1626L87.313 76.1637L87.2998 77.1648L86.3906 77.1529L85.4817 77.1409L85.4686 78.142L85.4554 79.1431L86.3642 79.1551L87.2734 79.167L87.2867 78.1562L87.3001 77.1445L89.1743 77.242L91.0481 77.3395L91.0358 78.2784L91.0234 79.2168L92.0067 79.2298L92.9901 79.2423L92.9423 77.2387L92.8947 75.2347L95.6787 75.2718L98.4631 75.3093L98.4763 74.3078L98.4895 73.3067L96.671 73.2827L94.8529 73.2588L94.8678 72.1324L94.8826 71.006L95.7918 71.018L96.7006 71.03L96.7138 70.0289C96.727 69.0303 96.7249 69.0277 95.8309 69.016C94.9394 69.0042 94.9347 69.0092 94.8509 70.067C94.7681 71.1192 94.7586 71.1297 93.8947 71.1183L93.0222 71.1068L93.0126 69.0415L93.0034 66.9758L93.9694 66.9885L94.9353 67.0012L94.9633 64.8737L94.9914 62.7462L95.9006 62.7582L96.8094 62.7702L96.8226 61.7691L96.8358 60.768L95.927 60.756L95.0177 60.744L95.0045 61.7451L94.9914 62.7462L94.0254 62.7339L93.0594 62.722L93.1599 60.72L93.2603 58.7179L92.2203 58.7042L91.1802 58.6905L91.1951 57.5641L91.2099 56.4377L92.2326 56.4512L93.2553 56.4647L93.2421 57.4662L93.2289 58.4673L94.1381 58.4793L95.0474 58.4912L95.0606 57.4901L95.0738 56.4886L94.1645 56.4766L93.2553 56.4647L93.2685 55.4636L93.2816 54.4625L92.259 54.449L91.2363 54.4356L91.2495 53.4345L91.2626 52.4329L86.6034 52.3716L81.9442 52.3102L81.9572 51.3235C81.9701 50.3415 81.9651 50.3363 81.0052 50.2471L80.0403 50.1573L80.0014 48.0916L79.9626 46.0259L79.0627 46.014L78.1627 46.0022L78.1347 48.1297L78.1067 50.2572L77.1975 50.2452L76.2882 50.2332L76.3294 47.1042L76.3706 43.9756L75.4614 43.9636L74.5526 43.9517L74.4438 52.2115ZM81.987 49.0563L81.9738 50.0579L82.8827 50.0698L83.7919 50.0818L83.8051 49.0803L83.8183 48.0792L82.909 48.0672L82.0002 48.0552L81.987 49.0563ZM59.1893 54.0136L59.163 56.0157L60.0722 56.0277L60.981 56.0397L60.9942 55.0386L61.0074 54.0375L62.9393 54.0629L64.8712 54.0884L64.83 57.217L64.7888 60.346L62.8569 60.3205L60.925 60.2951L60.9382 59.2936L60.9514 58.2925L60.0425 58.2805L59.1333 58.2685L59.1069 60.2711L59.0806 62.2733L62.8217 62.3226L66.5623 62.3719L66.656 60.3079L66.7488 58.2435L69.5342 58.2099L72.3191 58.1763L72.3322 57.1828L72.3453 56.1893L70.5272 56.1654L68.7087 56.1414L68.7219 55.1404L68.7351 54.1393L70.5536 54.1632L72.3716 54.1871L72.3848 53.186L72.398 52.1845L70.5799 52.1606L68.7615 52.1366L68.7483 53.1382L68.7351 54.1393L66.8032 54.1138L64.8712 54.0884L64.8844 53.0873L64.8976 52.0858L62.0569 52.0484L59.2157 52.0109L59.1893 54.0136ZM95.1133 53.4853L95.1001 54.4864L96.0094 54.4984L96.9182 54.5104L96.8918 56.5126L96.8654 58.5152L97.7747 58.5272L98.6839 58.5391L98.7235 55.5354L98.763 52.5317L96.9445 52.5078L95.1265 52.4838L95.1133 53.4853ZM89.405 55.4127L89.3918 56.4138L88.4826 56.4018L87.5734 56.3899L87.5865 55.3888L87.5997 54.3877L88.509 54.3996L89.4182 54.4116L89.405 55.4127ZM91.368 61.6972L91.3548 62.6983L90.3321 62.6849L89.3094 62.6714L89.3226 61.6703L89.3358 60.6692L90.3585 60.6827L91.3812 60.6961L91.368 61.6972ZM87.4498 65.776L87.4349 66.9024L89.3669 66.9279L91.2988 66.9533L91.2856 67.9548L91.2724 68.9559L89.3405 68.9305L87.4086 68.905L87.4217 67.9039L87.4349 66.9024L86.4122 66.889L85.3896 66.8755L85.4022 65.9163C85.4091 65.3885 85.484 64.8822 85.5686 64.7919C85.6527 64.7011 86.1143 64.6323 86.5934 64.6386L87.4646 64.6501L87.4498 65.776ZM58.957 71.6595L58.863 78.7929L65.4542 78.8797L72.0453 78.9665L72.1393 71.8331L72.2332 64.6997L65.6421 64.6129L59.0509 64.5261L58.957 71.6595ZM96.8106 65.962C96.8658 66.8505 96.915 66.9066 97.72 66.9904L98.5715 67.0796L98.5849 66.0632L98.5982 65.0469L97.6755 65.0347L96.7522 65.0226L96.8106 65.962ZM70.3212 71.8092L70.2536 76.9404L65.4806 76.8775L60.7075 76.8147L60.775 71.6835L60.8426 66.5523L65.6157 66.6151L70.3888 66.678L70.3212 71.8092ZM77.876 67.7783L77.8628 68.7794L76.9536 68.7674L76.0443 68.7554L76.0575 67.7543L76.0707 66.7528L76.9799 66.7648L77.8892 66.7767L77.876 67.7783ZM83.5579 67.8531L83.5447 68.8542L82.6355 68.8422L81.7267 68.8302L81.7398 67.8291L81.753 66.8276L82.6618 66.8396L83.5711 66.8516L83.5579 67.8531ZM62.8208 71.7104L62.7796 74.8394L65.6208 74.8768L68.4615 74.9142L68.5027 71.7852L68.5439 68.6566L65.7032 68.6192L62.862 68.5818L62.8208 71.7104ZM81.6311 76.0889L81.5915 79.0922L82.5003 79.1042L83.4096 79.1162L83.4491 76.1129L83.4623 75.1118L82.5531 75.0998L81.6443 75.0878L81.6311 76.0889ZM96.768 77.4563C96.6834 77.5471 96.6089 77.9966 96.6029 78.4558C96.5922 79.2622 96.6224 79.2901 97.5011 79.3017L98.4104 79.3137L98.4236 78.3126C98.4363 77.3449 98.4113 77.3112 97.679 77.3015C97.2625 77.296 96.8522 77.3656 96.768 77.4563Z" fill="black"/>
<path d="M115.646 85.5576C120.873 90.1704 115.071 109.945 111.517 119.256L106.099 119.185C106.377 98.1065 109.111 79.7912 115.646 85.5576Z" fill="white"/>
<path fill-rule="evenodd" clip-rule="evenodd" d="M113.366 84.7879C113.968 84.7967 114.659 85.0932 115.446 85.7873C116.656 86.8549 117.268 88.846 117.403 91.4752C117.537 94.0892 117.195 97.2574 116.577 100.589C115.357 107.155 113.073 114.297 111.31 118.948L106.407 118.883C106.557 108.465 107.309 98.7716 108.821 92.3754C109.588 89.1319 110.537 86.7976 111.655 85.6269C112.204 85.0512 112.772 84.7796 113.366 84.7879ZM108.231 92.2334C106.688 98.7605 105.935 108.637 105.796 119.181L105.792 119.487L111.725 119.565L111.8 119.366C113.582 114.7 115.927 107.41 117.173 100.701C117.796 97.3488 118.146 94.1264 118.009 91.4439C117.872 88.7774 117.25 86.5664 115.846 85.3273C114.999 84.5799 114.174 84.1876 113.375 84.1762C112.568 84.1652 111.847 84.5431 111.218 85.2029C109.976 86.5032 108.999 88.984 108.231 92.2334Z" fill="black"/>
<path d="M121.293 101.034C124.837 105.376 117.101 114.888 112.814 119.492L109.672 119.451C111.847 110.631 116.068 94.6296 121.293 101.034Z" fill="black"/>
<path fill-rule="evenodd" clip-rule="evenodd" d="M113.69 87.8866L111.598 100.052L109.127 96.7537L108.643 97.1224L111.455 100.878L109.445 112.571L107.867 110.395L107.377 110.756L109.3 113.408L108.292 119.275L108.889 119.379L110.923 107.558L113.864 106.352L113.636 105.785L111.044 106.848L113.123 94.7623L115.839 92.7972L115.485 92.3001L113.271 93.9022L114.288 87.991L113.69 87.8866Z" fill="black"/>
<path fill-rule="evenodd" clip-rule="evenodd" d="M117.271 106.171L118.938 102.623L119.486 102.885L115.914 110.488L118.351 110.52L118.343 111.132L115.628 111.096L111.682 119.495L111.133 119.233L113.104 115.04L112.505 112.349L113.097 112.215L113.526 114.142L116.896 106.969L115.876 103.904L116.451 103.709L117.271 106.171Z" fill="white"/>
<path d="M30.6624 66.2662L30.1188 70.8246C30.5822 71.3693 31.9965 72.4362 33.9468 72.3446C35.897 72.253 37.3331 71.0526 37.8073 70.4636L37.0383 65.9674C39.4761 65.853 39.9182 63.1882 39.9939 60.7294C40.0696 58.2707 39.1284 50.0051 32.4809 52.5831C27.1628 54.6456 29.0527 62.5646 30.6624 66.2662Z" fill="white"/>
<path fill-rule="evenodd" clip-rule="evenodd" d="M36.3477 52.7017C35.4167 52.2911 34.1971 52.2446 32.5899 52.8678C30.1037 53.8321 29.2685 56.1627 29.2773 58.8089C29.286 61.4538 30.1458 64.3165 30.9405 66.1441L30.9736 66.2199L30.4366 70.7221C30.9321 71.2367 32.2095 72.1206 33.9329 72.04C35.6639 71.9586 36.9717 70.9454 37.484 70.3746L36.681 65.6786L37.0244 65.6624C37.5757 65.6366 37.9986 65.4686 38.3305 65.2067C38.6657 64.9418 38.925 64.568 39.1233 64.1066C39.5236 63.1754 39.6528 61.9447 39.6906 60.7204C39.7276 59.5168 39.5124 56.8946 38.4891 54.9078C37.9799 53.9193 37.2847 53.115 36.3477 52.7017ZM39.028 54.627C40.1182 56.7434 40.3358 59.4833 40.2971 60.7385C40.2592 61.9726 40.1295 63.3036 39.6804 64.3481C39.454 64.8747 39.1409 65.3422 38.7052 65.6862C38.3433 65.9719 37.9083 66.163 37.3927 66.2392L38.1296 70.5478L38.0431 70.6555C37.531 71.2914 36.0208 72.5526 33.9607 72.6491C31.8964 72.746 30.3976 71.6217 29.8881 71.0227L29.8017 70.9212L30.3514 66.312C29.5456 64.4352 28.6794 61.5296 28.6704 58.8115C28.6613 56.0569 29.5402 53.397 32.3719 52.2988C34.0884 51.633 35.4792 51.6526 36.592 52.1431C37.6986 52.6315 38.4805 53.5639 39.028 54.627Z" fill="black"/>
<path d="M35.7737 63.0033L35.1614 66.0536C32.3749 66.7506 31.4376 66.7946 30.2869 66.2824C29.1362 65.7698 27.3781 60.187 27.0616 57.3691C26.7451 54.5516 29.1394 53.4951 30.426 52.8681C37.9908 45.7149 41.9641 50.4383 41.7009 52.9056C41.4904 54.8796 38.5916 56.136 37.1686 56.5174C36.9759 57.7854 36.5174 60.3623 36.2243 60.5274C35.8579 60.7334 35.1924 58.4986 34.1363 60.0588C33.2914 61.3072 34.8759 62.5418 35.7737 63.0033Z" fill="black"/>
<path d="M70.7135 41.1029L70.5408 54.2197C70.5377 54.4538 70.7872 54.604 70.9911 54.4903L74.3451 52.6212C74.4423 52.5666 74.5026 52.4628 74.5011 52.3506L74.3325 38.3075C74.3296 38.0434 74.0168 37.908 73.8239 38.0871L70.8113 40.8827C70.75 40.9395 70.7146 41.0191 70.7135 41.1029Z" fill="white"/>
<path fill-rule="evenodd" clip-rule="evenodd" d="M73.6184 37.863C74.0042 37.5047 74.6297 37.7756 74.6363 38.3038L74.8045 52.347C74.8075 52.5715 74.6874 52.779 74.4921 52.8878L71.1381 54.7573C70.7308 54.9843 70.2318 54.6839 70.238 54.2154L70.4107 41.0989C70.4129 40.9314 70.4831 40.7722 70.6057 40.6586L73.6184 37.863ZM74.0295 38.3113L71.0173 41.1069L70.8445 54.2233L74.1981 52.3543L74.0295 38.3113Z" fill="black"/>
<path d="M73.0252 50.8151C72.7127 51.7166 71.3612 53.6865 70.724 54.5587L74.0663 57.245C74.3231 56.745 75.0664 55.3708 75.987 53.8732C77.1374 52.0014 77.5199 51.4404 77.3945 46.7211C77.2939 42.9454 75.4632 41.4117 74.465 41.2098L74.3904 46.8699C74.2693 46.5542 74.0001 45.1667 73.0898 45.9095C71.9514 46.8378 73.4151 49.6877 73.0252 50.8151Z" fill="white"/>
<path fill-rule="evenodd" clip-rule="evenodd" d="M74.1665 40.8383L74.525 40.9107C75.7102 41.1504 77.5951 42.8517 77.698 46.7128C77.7604 49.0726 77.6981 50.4279 77.4647 51.4341C77.2349 52.4239 76.8412 53.0639 76.2953 53.9517C76.2788 53.979 76.2619 54.0063 76.2451 54.0336C75.3292 55.5241 74.5893 56.8916 74.336 57.3849L74.1661 57.7154L70.3077 54.6142L70.4797 54.3785C70.7953 53.9462 71.289 53.241 71.7415 52.5332C72.2006 51.8153 72.5962 51.1261 72.7388 50.7148C72.8097 50.51 72.8042 50.1877 72.7397 49.7483C72.7005 49.4806 72.6457 49.203 72.5877 48.9114C72.5516 48.7276 72.5139 48.5378 72.4788 48.3422C72.3908 47.8546 72.32 47.3439 72.3519 46.888C72.3837 46.4303 72.5222 45.9795 72.8988 45.6725C73.1641 45.4562 73.4412 45.3477 73.7186 45.4021C73.8748 45.433 74.0017 45.5104 74.1037 45.6041L74.1665 40.8383ZM74.7627 41.6353L74.6937 46.8739L74.1076 46.9797C74.0888 46.9312 74.0693 46.8674 74.0506 46.8074L74.0478 46.7985C74.0271 46.7314 74.0043 46.6587 73.9778 46.5825C73.924 46.4273 73.8608 46.277 73.7848 46.163C73.7063 46.0455 73.6429 46.0091 73.6019 46.0009C73.5685 45.9946 73.4708 45.9912 73.2808 46.1462C73.0882 46.3032 72.9828 46.5571 72.9572 46.9302C72.931 47.305 72.9887 47.7516 73.0755 48.2332C73.1067 48.4055 73.142 48.5855 73.1777 48.7663C73.238 49.0719 73.2992 49.3801 73.3399 49.6588C73.4044 50.1 73.4361 50.5563 73.3115 50.9154C73.1421 51.4056 72.7059 52.1526 72.2516 52.8629C71.8664 53.4654 71.453 54.0649 71.1398 54.5024L73.9693 56.7763C74.3149 56.1276 74.961 54.963 75.729 53.7131L75.7614 53.6602C76.3208 52.7506 76.6669 52.1869 76.8738 51.2955C77.0879 50.3737 77.1544 49.0888 77.0915 46.7289C77.0059 43.5166 75.6478 42.0653 74.7627 41.6353Z" fill="black"/>
<path d="M18.3182 74.4724C23.6425 69.1077 30.0189 69.3424 36.0221 69.4214C39.0153 69.6382 45.6804 69.8543 48.3934 68.9844C51.7854 67.8965 57.0629 66.0791 58.7713 64.5918C60.4793 63.1046 67.3597 53.5711 69.2432 53.0299C71.1267 52.4882 75.9522 56.5149 75.9348 57.8356C75.9174 59.1563 68.9959 74.5393 66.1268 77.3322C63.2573 80.1251 54.3584 86.2353 52.845 87.159C53.145 89.1354 53.7616 94.3277 53.8293 99.2833C53.971 104.534 54.015 114.503 53.2931 118.49L11.5375 117.941C9.98955 112.127 7.88204 101.207 8.05497 98.6806C8.2873 95.2869 11.6628 81.1781 18.3182 74.4724Z" fill="white"/>
<path fill-rule="evenodd" clip-rule="evenodd" d="M70.9624 53.6453C70.2553 53.3277 69.6877 53.2195 69.3269 53.3231C69.159 53.3713 68.8884 53.54 68.5185 53.854C68.1588 54.1591 67.7376 54.5727 67.273 55.0653C66.3439 56.0506 65.2593 57.3326 64.1755 58.6507C63.6342 59.3087 63.0937 59.9747 62.5742 60.6157L62.5226 60.6789C62.0216 61.2968 61.5401 61.8899 61.0973 62.4286C60.1887 63.5322 59.4207 64.4302 58.9701 64.8227C58.514 65.2197 57.8368 65.6257 57.0419 66.0255C56.2432 66.4273 55.3082 66.8316 54.3251 67.2217C52.3588 68.0015 50.1841 68.7302 48.486 69.2748C47.0804 69.7254 44.6926 69.8878 42.3166 69.9154C39.9319 69.9432 37.5136 69.8352 36.0095 69.7265C35.8644 69.7246 35.7191 69.7227 35.5738 69.7203C29.6891 69.6399 23.6258 69.5562 18.5332 74.6877C15.2534 77.9925 12.764 83.1448 11.0638 87.9213C9.36405 92.6965 8.47143 97.0429 8.35789 98.7015C8.3171 99.2975 8.41149 100.424 8.60941 101.897C8.80594 103.36 9.1006 105.138 9.44942 107.022C10.1295 110.693 11.0133 114.753 11.7719 117.639L53.0389 118.182C53.365 116.181 53.5231 112.853 53.5823 109.355C53.6434 105.714 53.5973 101.914 53.5264 99.2916L53.526 99.2878C53.459 94.35 52.8442 89.1721 52.5454 87.205L52.5151 87.0039L52.6879 86.8983C53.4344 86.4428 56.0294 84.6899 58.8012 82.6985C61.5768 80.7041 64.5006 78.4912 65.9163 77.1131C66.5977 76.4493 67.5491 75.0017 68.604 73.1421C69.6521 71.2948 70.7833 69.0756 71.8272 66.8992C72.8707 64.7233 73.825 62.5945 74.5189 60.9288C74.866 60.0955 75.1468 59.3807 75.3407 58.8354C75.4378 58.5624 75.512 58.3351 75.5617 58.1584C75.6141 57.972 75.6311 57.8693 75.6316 57.8316C75.6327 57.7491 75.5919 57.5999 75.4665 57.3794C75.3457 57.167 75.1644 56.9199 74.9325 56.6514C74.4696 56.1157 73.8251 55.5191 73.118 54.9768C72.4109 54.4344 71.6518 53.9549 70.9624 53.6453ZM75.993 57.076C76.1353 57.3264 76.2415 57.592 76.2382 57.8396C76.2365 57.967 76.1974 58.1393 76.1455 58.3244C76.0904 58.5197 76.011 58.7613 75.9116 59.0407C75.7129 59.6003 75.4273 60.326 75.0784 61.1643C74.3798 62.8414 73.4211 64.9803 72.3737 67.1643C71.3263 69.3482 70.1881 71.5809 69.1309 73.4446C68.0803 75.2961 67.0907 76.8187 66.3377 77.5513C64.8842 78.9661 61.9238 81.2049 59.1541 83.1947C56.5606 85.0581 54.1094 86.7214 53.1748 87.3124C53.4852 89.4304 54.0671 94.4626 54.1329 99.2767C54.2037 101.906 54.25 105.714 54.1884 109.366C54.1273 113.01 53.9578 116.523 53.5921 118.545L53.546 118.799L11.3043 118.243L11.2449 118.02C10.4683 115.103 9.55282 110.912 8.85312 107.133C8.50318 105.244 8.20663 103.456 8.00829 101.979C7.81126 100.512 7.7071 99.3267 7.75276 98.6596C7.87155 96.9245 8.78285 92.5195 10.4928 87.7156C12.2022 82.913 14.7283 77.6579 18.1039 74.2566C23.3802 68.9404 29.6809 69.0284 35.5248 69.1096C35.6924 69.1118 35.8596 69.1144 36.0265 69.1166L36.0354 69.1167L36.0443 69.1173C37.5341 69.225 39.94 69.3329 42.3097 69.3052C44.6926 69.2777 46.9941 69.1129 48.3019 68.6936C49.9957 68.1503 52.1551 67.4268 54.1027 66.654C55.0764 66.268 55.9936 65.8711 56.7705 65.48C57.5522 65.0868 58.1749 64.7076 58.5732 64.361C58.9766 64.0099 59.7092 63.1584 60.63 62.0397C61.0714 61.5027 61.5517 60.9108 62.0535 60.2921L62.1039 60.2301C62.6237 59.5892 63.1651 58.9219 63.7081 58.2618C64.7932 56.9425 65.8886 55.6466 66.8328 54.6455C67.3046 54.1454 67.7434 53.7138 68.1275 53.3878C68.5008 53.0709 68.8572 52.8237 69.1602 52.7363C69.7411 52.5695 70.4829 52.7617 71.2098 53.088C71.9543 53.4225 72.7537 53.9305 73.4859 54.4918C74.2186 55.0535 74.895 55.6776 75.3904 56.2514C75.6381 56.5375 75.8457 56.8175 75.993 57.076Z" fill="black"/>
<path d="M62.1245 80.6762C64.0131 74.0584 67.8637 72.3229 69.5526 72.2821C68.9125 73.4062 67.4031 75.9523 66.4864 77.1481C65.5701 78.3439 63.197 79.9985 62.1245 80.6762ZM9.07629 106.62C11.2669 99.8549 10.1066 94.8706 9.25269 93.2239C8.92845 94.1002 8.23493 96.4183 8.05505 98.6806C7.87514 100.943 8.66092 104.916 9.07629 106.62ZM14.7725 87.2576C12.4744 96.6202 12.4225 109.969 12.7886 117.957L14.1391 117.975C13.4882 101.124 14.2641 90.5807 14.7725 87.2576Z" fill="black"/>
</svg>
