<svg width="20" height="20" viewBox="0 0 20 20" fill="none" xmlns="http://www.w3.org/2000/svg">
<path d="M18.8598 6.37L11.9298 0.830002C10.8598 -0.0299982 9.12978 -0.0299982 8.06978 0.820002L1.13978 6.37C0.359777 6.99 -0.140223 8.3 0.0297768 9.28L1.35978 17.24C1.59978 18.66 2.95978 19.81 4.39978 19.81H15.5998C17.0298 19.81 18.3998 18.65 18.6398 17.24L19.9698 9.28C20.1298 8.3 19.6298 6.99 18.8598 6.37ZM9.99978 13.5C9.33674 13.5 8.70085 13.2366 8.23201 12.7678C7.76317 12.2989 7.49978 11.663 7.49978 11C7.49978 10.337 7.76317 9.70108 8.23201 9.23223C8.70085 8.76339 9.33674 8.5 9.99978 8.5C10.6628 8.5 11.2987 8.76339 11.7675 9.23223C12.2364 9.70108 12.4998 10.337 12.4998 11C12.4998 11.663 12.2364 12.2989 11.7675 12.7678C11.2987 13.2366 10.6628 13.5 9.99978 13.5Z" fill="#7210FF"/>
</svg>
